<?xml version="1.0" encoding="utf-8"?>
<!-- Generator: Adobe Illustrator 19.2.0, SVG Export Plug-In . SVG Version: 6.00 Build 0)  -->
<svg version="1.1" id="Capa_1" xmlns="http://www.w3.org/2000/svg" xmlns:xlink="http://www.w3.org/1999/xlink" x="0px" y="0px"
	 width="159.7px" height="34.9px" viewBox="0 0 159.7 34.9" style="enable-background:new 0 0 159.7 34.9;" xml:space="preserve">
<style type="text/css">
	.st0{fill:#FF0000;}
	.st1{fill:#C626B6;}
	.st2{fill:#00C473;}
	.st3{fill:#1D1DEA;}
	.st4{fill:#6E6D72;}
</style>
<path class="st0" d="M14.5,20.1c-4.3,0-12.8-1.6-13-2.1c0,1.6,0.3,3.4,0.7,4.9c0.5,1.8,1.2,3.4,2.3,4.8c2.9,4,7.4,6.8,12.6,7
	C16.9,35,14.5,20.3,14.5,20.1z"/>
<path class="st1" d="M2.1,2.6c-0.3,0-0.6,0.3-0.6,0.7v15.4c0.3,0.3,1.4,1.1,3.3,1.4c0.3,0.1,0.6,0.1,1,0.1c1.9,0.3,5.5,0.5,9,0.5
	L14.4,8.8C10.4,3.6,4.1,2.6,2.1,2.6"/>
<path class="st2" d="M14.4,0.3v20.3c0.9,0,6.2,0.1,10.7-0.3c1.1-0.1,2.3-0.3,3.3-0.4c2.6-0.5,4.7-1.2,5.5-1.9V2.2
	C31.8,0.7,23.6,0.3,14.4,0.3"/>
<path class="st3" d="M33.7,18.4v-0.2c-0.8,0.6-3,1.4-5.5,1.9c-1,0.1-2.2,0.3-3.3,0.4c-4.5,0.4-9.7,0.3-10.7,0.3V21
	c0,0.9,0,1.8,0.1,2.7c0,0.9,0.1,1.9,0.1,2.7c0.1,1.9,0.3,3.5,0.7,5c0.3,1.6,0.8,2.9,1.6,3.5l0,0c0.3,0,0.5,0,0.7,0
	c5.5,0,10.4-2.7,13.2-6.8c1.1-1.5,1.9-3.4,2.3-5.5C33.6,21.2,33.7,19.8,33.7,18.4"/>
<path id="path7907" class="st4" d="M40.5,10.7h3.8v7.9c0,1.6,1.2,3.2,3.2,3.2c1.8,0,3.2-1.2,3.2-3.2v-7.9h3.8v7.9
	c0,4.3-3,6.7-7.1,6.7c-4.2,0-7-3-7-6.7L40.5,10.7L40.5,10.7z"/>
<path id="path7911" class="st4" d="M71.7,25h-3.8v-7.8c0-1.6-1.2-3.2-3.2-3.2c-1.8,0-3.2,1.2-3.2,3.2v7.9h-3.8v-7.9
	c0-4.3,3-6.7,7.1-6.7c4.2,0,7,3,7,6.7L71.7,25L71.7,25z"/>
<path id="path7913" class="st4" d="M159.8,25H156v-7.8c0-1.6-1.2-3.2-3.2-3.2c-1.8,0-3.2,1.2-3.2,3.2v7.9h-3.8v-7.9
	c0-4.3,3-6.7,7.1-6.7c4.2,0,7,3,7,6.7L159.8,25L159.8,25z"/>
<path id="path7915" class="st4" d="M75.2,10.7H79V25h-3.8V10.7z"/>
<path id="path7917" class="st4" d="M99.9,10.7h3.8V25h-3.8V10.7z"/>
<path id="path7919" class="st4" d="M121.2,10.7h3.8V25h-3.8V10.7z"/>
<path id="path7921" class="st4" d="M81.6,10.7h4l3.8,8.7l4-8.7h4L90.9,25h-2.7L81.6,10.7z"/>
<path id="path7923" class="st4" d="M106.6,23.4l1.9-2.7c0,0,1.4,1.4,3.8,1.4c1,0,1.9-0.5,1.9-1.2c0-2.1-7-1.4-7-6
	c0-2.7,2.5-4.5,5.6-4.5c2.9,0,4.8,1.4,4.8,1.4l-1.9,2.7c0,0-1.4-0.9-2.7-0.9c-1.4,0-1.9,0.6-1.9,1.2c0,1.9,7,1.1,7,6.1
	c0,2.7-2.7,4.4-5.7,4.4C109.1,25.4,106.6,23.4,106.6,23.4L106.6,23.4z"/>
<path id="path7925" class="st4" d="M135.4,10.4c-4.9,0-7.6,4-7.6,7.5c0,4.5,3.7,7.5,7.6,7.5c4.2,0,7.6-3.2,7.6-7.5
	C143.1,13.3,139.3,10.4,135.4,10.4z M135.4,14c2.1,0,3.8,1.6,3.8,4c0,2.2-1.6,3.8-3.7,3.8c-1.9,0-3.8-1.4-3.8-3.8
	C131.7,16,133.1,14,135.4,14z"/>
</svg>
