<?xml version="1.0" encoding="utf-8"?>
<!-- Generator: Adobe Illustrator 19.2.0, SVG Export Plug-In . SVG Version: 6.00 Build 0)  -->
<svg version="1.1" id="Capa_1" xmlns="http://www.w3.org/2000/svg" xmlns:xlink="http://www.w3.org/1999/xlink" x="0px" y="0px"
	 width="178px" height="26.8px" viewBox="0 0 178 26.8" style="enable-background:new 0 0 178 26.8;" xml:space="preserve">
<style type="text/css">
	.st0{fill:#BE2864;}
	.st1{fill:#262729;}
</style>
<g>
	<path class="st0" d="M0,23.7c0.2-0.8,0.5-1.6,1-2.3c1.1-1.6,2.6-2.4,4.5-2.4c1,0,2,0,3.1,0c-0.5-1-0.9-2-1.1-3c-1-4.4,0-8.4,3-11.7
		c2.3-2.6,5.3-3.9,8.8-4.1C20,0,20.7,0,21.5,0c5.9,0,11.7,0,17.6,0c0.4,0,0.5,0.1,0.5,0.5c0,2.3-0.7,4.1-2.7,5.4
		c-0.9,0.5-1.8,0.8-2.8,0.8c-1,0-2,0-3,0c0.4,0.9,0.8,1.7,1,2.6c2.1,7.4-2.7,15-10.3,16.1c-0.8,0.1-1.6,0.2-2.5,0.2
		c-6.5,0-12.9,0-19.4,0C0,25,0,24.4,0,23.7z M25.9,12.9c0.1-2.9-2.2-6.1-6-6.1c-3.7,0-6.1,3-6.1,6.1c0,3.3,2.7,6.1,6,6.1
		C23.2,18.9,25.9,16.3,25.9,12.9z"/>
	<path class="st1" d="M147.1,26.8c-0.6-0.2-1.3-0.3-1.9-0.5c-3.6-1.2-5.8-3.7-6.4-7.4c-0.5-2.9,0-5.6,1.9-7.9c1.6-2,3.7-3.1,6.2-3.5
		c2.5-0.4,5,0,7.2,1.3c2.5,1.5,3.9,3.7,4.3,6.6c0.3,2.1,0.1,4.1-0.8,6c-1.3,2.7-3.5,4.3-6.3,5c-0.5,0.1-1.1,0.2-1.6,0.3
		C148.8,26.8,148,26.8,147.1,26.8z M153.3,17c0-0.2,0-0.4,0-0.6c-0.2-1.8-0.9-3.2-2.6-4c-1.8-0.8-3.5-0.7-5.1,0.5
		c-1.3,1-1.7,2.4-1.8,3.9c-0.1,4,3.1,5.7,6.2,4.9C152.1,21.2,153.3,19.4,153.3,17z"/>
	<path class="st1" d="M62.3,17.4c0-0.7,0-1.4,0-2.1c0-4.9,0-9.8,0-14.8c0-0.5,0.1-0.6,0.6-0.6c1.3,0,2.6,0,4,0c0.3,0,0.5,0,0.5,0.4
		c0,8.3,0,16.5,0,24.8c0,0.3-0.1,0.4-0.4,0.4c-1.4,0-2.8,0-4.2,0c-0.3,0-0.5-0.1-0.7-0.4C58.4,20,54.7,14.7,51.1,9.4
		c-0.1-0.2-0.3-0.4-0.5-0.7c0,0.3,0,0.5,0,0.6c0,5.3,0,10.5,0,15.8c0,0.4-0.1,0.5-0.5,0.5c-1.5,0-3,0-4.5,0c-0.3,0-0.4-0.1-0.4-0.4
		c0-7.4,0-14.8,0-22.2c0-1.7,1.3-3,3-3c0.2,0,0.4,0,0.5,0c1.7,0,1.3-0.2,2.3,1.2c3.7,5.3,7.3,10.6,11,15.9
		C62.1,17.2,62.1,17.4,62.3,17.4z"/>
	<path class="st1" d="M118.5,14.2c0-3.6,0-7.3,0-10.9c0-1.7,1.2-3,3-3c3.1,0,6.1,0,9.2,0c2.4,0.1,4.6,0.8,6.3,2.7
		c1,1.1,1.6,2.5,1.9,4c0.4,2.4,0,4.7-1.6,6.6c-0.9,1.1-2.1,1.9-3.4,2.4c-0.7,0.3-0.7,0.3-0.3,0.9c1.9,2.8,3.8,5.5,5.7,8.3
		c0.1,0.2,0.3,0.3,0.2,0.6c-0.1,0.3-0.4,0.2-0.6,0.2c-1.7,0-3.3,0-5,0c-0.4,0-0.6-0.1-0.8-0.4c-1.8-2.8-3.6-5.7-5.4-8.5
		c-0.2-0.3-0.3-0.4-0.7-0.4c-0.8,0-1.6,0-2.4,0c-0.5,0-0.6,0.1-0.6,0.6c0,2.7,0,5.4,0,8.1c0,0.6,0,0.7-0.7,0.7c-1.4,0-2.7,0-4.1,0
		c-0.5,0-0.6-0.1-0.6-0.6C118.5,21.6,118.5,17.9,118.5,14.2z M127.2,11.9c0.9,0,1.9,0,2.8,0c1.8,0,3.3-0.7,3.3-3
		c0-1.6-0.6-3-2.6-3.2c-2.1-0.2-4.3,0-6.4-0.1c-0.3,0-0.4,0.2-0.4,0.5c0,1.7,0,3.5,0,5.2c0,0.4,0.1,0.6,0.5,0.5
		C125.3,11.9,126.3,11.9,127.2,11.9z"/>
	<path class="st1" d="M80.7,18.6c-2,0-3.9,0-5.8,0c-0.7,0-0.8,0.1-0.6,0.8c0.4,1.5,1.7,2.6,3.4,2.8c1.8,0.2,3.4-0.2,4.9-1.3
		c0.2-0.2,0.3-0.1,0.5,0c0.8,0.8,1.6,1.6,2.3,2.3c0.3,0.3,0.3,0.5,0,0.8c-1.4,1.1-3,1.8-4.8,2.1c-2.7,0.5-5.2,0.1-7.6-1.2
		c-1.6-0.9-2.5-2.3-3.1-3.9C68.8,18,68.8,15,70,12c1.2-2.8,3.4-4.4,6.3-4.9c2.3-0.4,4.5-0.2,6.6,0.9c2.2,1.1,3.4,3,4,5.4
		c0.4,1.6,0.5,3.2,0.4,4.9c0,0.4-0.3,0.4-0.6,0.4C84.8,18.6,82.8,18.6,80.7,18.6z M78.4,15.1c1.2,0,2.4,0,3.7,0
		c0.4,0,0.6-0.2,0.5-0.6c-0.1-0.4-0.2-0.8-0.4-1.2c-0.9-1.7-3-2.6-4.9-2.2c-1.7,0.4-3.1,1.9-3.2,3.4c0,0.5,0.1,0.6,0.6,0.6
		C75.9,15,77.1,15.1,78.4,15.1z"/>
	<path class="st1" d="M86,25.8c1.2-1.6,2.5-3.1,3.8-4.6c1.1-1.3,2.1-2.6,3.2-3.8c0.2-0.3,0.2-0.5,0-0.8c-2.1-2.8-4.1-5.5-6.2-8.3
		c-0.1-0.1-0.3-0.3-0.2-0.5c0.1-0.2,0.4-0.2,0.6-0.2c1.4,0.1,2.9,0.2,4.3,0c0.6-0.1,0.9,0.1,1.2,0.6c1,1.5,2,2.9,3,4.3
		c0.4,0.6,0.5,0.6,0.9,0c1-1.4,2-2.9,3-4.3c0.3-0.5,0.7-0.7,1.3-0.6c1.2,0.2,2.4,0.2,3.5,0.1c0.3,0,0.6-0.1,0.8-0.1
		c0.2,0,0.3,0,0.4,0.1c0.1,0.2,0,0.3-0.1,0.5c-1.2,1.6-2.3,3.2-3.5,4.7c-0.9,1.2-1.7,2.3-2.6,3.5c-0.3,0.4-0.3,0.7,0,1.1
		c1.8,2.3,3.8,4.4,5.6,6.7c0.3,0.4,0.6,0.8,0.9,1.1c0.1,0.1,0.2,0.3,0.1,0.4c-0.1,0.2-0.2,0.2-0.4,0.2c-1,0-2,0-2.9,0
		c-0.6,0-1.1,0-1.7,0c-0.5,0-0.8-0.2-1.1-0.6c-1.1-1.6-2.3-3.1-3.4-4.6c-0.4-0.5-0.4-0.5-0.8,0c-1.1,1.5-2.3,3.1-3.4,4.6
		c-0.3,0.4-0.7,0.6-1.2,0.6c-1.5,0-3-0.1-4.5,0C86.5,26,86.2,26,86,25.8z"/>
	<path class="st1" d="M107,13.3c0-3.4,0-6.2,0-8.9c0-1.5,0.9-2.4,2.4-2.4c0.5,0,1.1,0,1.6,0c0.6,0,0.7,0,0.7,0.7c0,1.5,0,3.1,0,4.6
		c0,0.7,0,0.7,0.7,0.7c1.2,0,2.5,0,3.7,0c0.4,0,0.6,0.1,0.6,0.6c0,0.9,0,1.9,0,2.8c0,0.5-0.1,0.6-0.6,0.6c-1.3,0-2.6,0-3.9,0
		c-0.4,0-0.6,0.1-0.6,0.5c0,2.5,0,5.1,0,7.6c0,1.3,0.6,1.9,1.8,2.1c0.5,0.1,1,0,1.3-0.4c0.3-0.2,0.5-0.2,0.7,0.1
		c0.6,0.8,1.1,1.5,1.8,2.3c0.3,0.4,0.3,0.6-0.1,0.8c-1.7,1.2-3.5,1.6-5.6,1.4c-0.8-0.1-1.5-0.2-2.2-0.6c-1.5-0.8-2.2-2.1-2.3-3.7
		C106.8,19,107.1,15.9,107,13.3z"/>
	<path class="st1" d="M174.1,11c0,3.2,0,6.3,0,9.5c0,0.9,0.3,1.4,1,1.6c0.3,0.1,0.6,0.1,0.9,0c0.3-0.1,0.5,0,0.6,0.3
		c0.4,0.9,0.9,1.8,1.3,2.7c0.1,0.3,0.1,0.5-0.1,0.6c-2.1,1.3-5.1,1.3-6.9-0.2c-1-0.9-1.5-2-1.7-3.3c-0.1-0.6-0.1-1.2-0.1-1.9
		c0-5.9,0-11.7,0-17.6c0-0.9-0.1-0.8,0.8-1c1.2-0.3,2.4-0.6,3.6-0.9c0.6-0.1,0.7-0.1,0.7,0.6C174.1,4.6,174.1,7.8,174.1,11z"/>
	<path class="st1" d="M165.3,12.1c0,2.8,0,5.6,0,8.4c0,1.3,0.6,1.8,1.9,1.6c0.2,0,0.4,0,0.5,0.3c0.5,0.9,0.9,1.9,1.4,2.8
		c0.1,0.2,0.1,0.4-0.1,0.5c-2,1.3-5.1,1.3-6.8-0.1c-1-0.9-1.5-2-1.8-3.3c-0.1-0.6-0.1-1.2-0.1-1.8c0-5.3,0-10.5,0-15.8
		c0-0.5,0.2-0.7,0.7-0.8c1.3-0.3,2.6-0.6,3.8-0.9c0.5-0.1,0.6-0.1,0.6,0.5C165.3,6.3,165.3,9.2,165.3,12.1z"/>
</g>
</svg>
