<?xml version="1.0" encoding="utf-8"?>
<!-- Generator: Adobe Illustrator 19.2.0, SVG Export Plug-In . SVG Version: 6.00 Build 0)  -->
<svg version="1.1" id="layer" xmlns="http://www.w3.org/2000/svg" xmlns:xlink="http://www.w3.org/1999/xlink" x="0px" y="0px"
	 viewBox="0 0 274 171" style="enable-background:new 0 0 274 171;" xml:space="preserve">
<style type="text/css">
	.st0{fill-rule:evenodd;clip-rule:evenodd;}
	.st1{fill:url(#SVGID_1_);}
	.st2{fill:url(#SVGID_2_);}
	.st3{fill:url(#SVGID_3_);}
</style>
<g>
	<g>
		<g>
			<path class="st0" d="M165.9,98.8c0-8.9,0-17.8,0-27c6.2,0.4,12.5-1.2,18.2,2.4c4.7,3,7,8.3,5.8,14.3c-0.9,5-5.7,9.8-10.8,10.3
				C174.8,99.1,170.4,98.8,165.9,98.8z M170.8,76.2c0,6.4,0,12.4,0,18.5c2.4,0,4.8,0.3,7-0.1c4.6-0.7,7.7-4.6,7.6-9.2
				c-0.1-4.7-3-8.2-7.8-8.9C175.5,76.2,173.3,76.3,170.8,76.2z"/>
			<path class="st0" d="M132,85.3c0.3-7.8,6.8-14.2,14.3-13.9c7.8,0.3,14.3,6.9,13.8,14.4c-0.5,8.6-6.8,13.9-14.3,13.8
				C138,99.5,131.8,92.8,132,85.3z M136.8,85.2c-0.2,5.4,3.8,9.8,9,10c5.1,0.2,9.4-4,9.6-9.4c0.2-5.3-3.9-9.9-9-10
				C141.3,75.6,137,79.8,136.8,85.2z"/>
			<path class="st0" d="M214.7,94.7c0,1.7,0,2.9,0,4.3c-6.5,0-12.8,0-19.3,0c0-9,0-18,0-27.1c6.4,0,12.8,0,19.3,0c0,1.4,0,2.7,0,4.2
				c-4.7,0-9.5,0-14.4,0c0,2.4,0,4.6,0,7.1c3,0,6,0,9.1,0c0,1.5,0,2.8,0,4.3c-3.1,0-6.1,0-9.2,0c0,2.5,0,4.8,0,7.3
				C205,94.7,209.8,94.7,214.7,94.7z"/>
		</g>
	</g>
	<g>
		<path d="M254.4,85.1c3.7-4,8.1-8.8,12.1-13.2h-6.2l-11.8,12.3c0-4.1,0-8.1,0-12.3c-1.6,0-3,0-4.6,0c0,9.2,0,18.2,0,27.2
			c1.6,0,3,0,4.7,0c0-4.5,0-8.8,0-13.6c0,0,8.5,8.7,12.9,13.6h6.4C263.5,94.6,258.1,89,254.4,85.1z"/>
	</g>
	<g>
		<path d="M66.1,71.8l-4.6,0l-12,27.3h5.2l2.7-6.5h12.7l2.8,6.5h5.2L66.1,71.8z M59.2,88.4l4.5-10.8l4.6,10.8H59.2z"/>
	</g>
	<g>
		<polygon points="109,76.1 117.7,76.1 117.7,99.1 122.2,99.1 122.2,76.1 129.4,76.1 131.2,71.9 109,71.9 		"/>
	</g>
	<g>
		<path d="M229.5,83.1c-6.4-1.8-5.6-4.5-5.3-5.3c0.3-0.8,1.4-2.1,5.5-2.1c4.1,0,6.9,1.7,6.9,1.7l1.8-3.6c-0.1-0.2-3.4-2.1-8.8-2.3
			c-5.4-0.1-10.2,3-10.2,7.3c0,4.3,2.6,6.3,7.7,7.8c5.8,1.7,7.6,3.2,7.6,5.3c0,2.1-1.2,3.7-5.4,3.7c-3.6,0-8-2.8-9-3.7l-1.7,3.6
			c1.4,0.9,6.5,3.8,11,3.8c5.1,0,9.4-2.5,9.5-7.7C239.3,86.6,235.3,84.7,229.5,83.1z"/>
	</g>
	<g>
		<path d="M98.7,87.9c0,3.8-3,6.8-6.8,6.8s-6.8-3-6.8-6.8V71.7h-5v15.8c0,6.5,5.3,11.9,11.9,11.9c6.5,0,11.9-5.3,11.9-11.9V71.7h-5
			V87.9z"/>
	</g>
	<g>
		<path d="M273.8,85.5c0,1-0.8,1.7-1.8,1.7c-1,0-1.8-0.8-1.8-1.7c0-0.9,0.8-1.7,1.8-1.7C273,83.8,273.8,84.5,273.8,85.5z
			 M270.7,85.5c0,0.8,0.6,1.4,1.3,1.4c0.8,0,1.3-0.6,1.3-1.4c0-0.8-0.6-1.4-1.3-1.4C271.3,84.1,270.7,84.7,270.7,85.5z M271.8,86.4
			h-0.4v-1.7c0.2,0,0.4-0.1,0.7-0.1c0.3,0,0.5,0.1,0.6,0.1c0.1,0.1,0.2,0.2,0.2,0.4c0,0.2-0.1,0.3-0.4,0.4v0
			c0.2,0.1,0.3,0.2,0.3,0.4c0.1,0.3,0.1,0.4,0.1,0.4h-0.4c-0.1-0.1-0.1-0.2-0.1-0.4c0-0.2-0.1-0.3-0.4-0.3h-0.2V86.4z M271.8,85.4
			h0.2c0.2,0,0.4-0.1,0.4-0.3c0-0.2-0.1-0.3-0.4-0.3c-0.1,0-0.2,0-0.2,0V85.4z"/>
	</g>
	<g>
		<linearGradient id="SVGID_1_" gradientUnits="userSpaceOnUse" x1="10.8683" y1="66.6293" x2="10.8683" y2="95.9425">
			<stop  offset="0" style="stop-color:#3E7040"/>
			<stop  offset="0.1509" style="stop-color:#578347"/>
			<stop  offset="0.3896" style="stop-color:#799D4F"/>
			<stop  offset="0.6169" style="stop-color:#91AF56"/>
			<stop  offset="0.8262" style="stop-color:#A0BA5A"/>
			<stop  offset="1" style="stop-color:#A5BE5B"/>
		</linearGradient>
		<path class="st1" d="M14.8,62.4c-1.2,0.1-1.7,0.7-1.7,0.8c0,0,0,0,0,0l0,0l-12.6,30c0,0,0,0.1,0,0.1c-0.3,0.8-0.2,1.4,0,1.9
			l0.1,0.3c0.5,0.9,1.6,1.3,2.3,1.3c0.5,0,4.4,0,9.1,0l9.6-22.6c-2.4-5.8-4.3-10.1-4.5-10.6C16.5,62.6,15.5,62.3,14.8,62.4z"/>
		<linearGradient id="SVGID_2_" gradientUnits="userSpaceOnUse" x1="5.677" y1="102.1076" x2="20.7179" y2="95.5513">
			<stop  offset="0" style="stop-color:#4B8689"/>
			<stop  offset="0.2488" style="stop-color:#62A6A3"/>
			<stop  offset="0.5357" style="stop-color:#79C6BE"/>
		</linearGradient>
		<path class="st2" d="M2.8,96.8c-0.6,0-1.7-0.4-2.3-1.3l3.6,6.6l2.9,5.3c0.6,1.1,2.2,1.3,2.2,1.3c1.7,0.1,4.7-1.4,5.3-1.8
			c0.6-0.3,14.6-9,16.4-10.1c-2,0-11.6,0-19.1,0C7.2,96.8,3.3,96.8,2.8,96.8z"/>
		<path d="M0.5,95.5l-0.1-0.3C0.4,95.4,0.5,95.4,0.5,95.5z"/>
		<polygon points="13.1,63.2 13.1,63.2 13.1,63.2 		"/>
		<polygon points="13.1,63.2 13.1,63.2 13.1,63.2 		"/>
		<path d="M13.1,63.2C13.1,63.2,13.1,63.2,13.1,63.2L13.1,63.2C13.1,63.2,13.1,63.2,13.1,63.2z"/>
		<linearGradient id="SVGID_3_" gradientUnits="userSpaceOnUse" x1="22.37" y1="65.2032" x2="40.8817" y2="108.3971">
			<stop  offset="0" style="stop-color:#64B4E4"/>
			<stop  offset="0.9439" style="stop-color:#436CB1"/>
		</linearGradient>
		<path class="st3" d="M30,63.4c0,0-0.4-1.2-1.9-1.2c0,0-2.2,0-4.8,0c-3.7,0-8.2,0-8.5,0c-0.8,0.1-1.4,0.6-1.7,1
			c0.1-0.1,0.5-0.8,1.7-0.8c0.7,0,1.7,0.2,2.2,1.3c0.3,0.6,2.1,4.9,4.5,10.6c5.3,12.5,13.5,32,14.5,34.5h13.1L30,63.4z"/>
	</g>
</g>
</svg>
