<?xml version="1.0" encoding="utf-8"?>
<!-- Generator: Adobe Illustrator 19.2.0, SVG Export Plug-In . SVG Version: 6.00 Build 0)  -->
<svg version="1.1" id="Capa_1" xmlns="http://www.w3.org/2000/svg" xmlns:xlink="http://www.w3.org/1999/xlink" x="0px" y="0px"
	 width="251.7px" height="26.8px" viewBox="0 0 251.7 26.8" style="enable-background:new 0 0 251.7 26.8;" xml:space="preserve">
<g>
	<path d="M120.6,10.3c0,4,0,8,0,11.8c0,0.4,0.5,0.7,0.6,1.1c0.1,0.1,0.2,0.3,0.3,0.4c-0.2,0.1-0.3,0.3-0.5,0.3c-3.1,0-6.2,0-9.1,0
		c-0.2,0-0.4-0.2-0.5-0.3c0.1-0.1,0.3-0.3,0.4-0.5c0.2-0.4,0.6-0.7,0.6-1.2c0.1-3.3,0-6.7,0-10.1c0-1.4-0.6-2-1.8-1.8
		c-0.2,0-0.5,0.4-0.5,0.5c0,3.8,0,7.7,0,11.5c0,0.4,0.4,0.6,0.5,1c0.1,0.2,0.3,0.3,0.4,0.5c-0.2,0.1-0.4,0.2-0.5,0.2
		c-1.5,0-3.2,0-4.7,0c-1.6,0-3.3,0-4.9,0c-0.3,0-0.5-0.2-0.7-0.3c0.2-0.2,0.4-0.5,0.5-0.5c1.1-0.2,1.3-0.9,1.3-1.8
		c0-3.3-0.1-6.6,0-9.9c0-1.3-0.2-2.4-1.4-3.1c-0.2-0.1-0.3-0.3-0.5-0.5c0.7-0.1,1.4-0.2,2-0.3c2.4-0.3,4.7-0.5,7.1-0.7
		c0.7-0.1,1,0.1,0.9,0.8c-0.1,0.5,0,1.1,0,1.8c0.5-0.4,0.7-0.5,1.1-0.8c1.6-1.1,3.3-1.9,5.4-1.8c1.8,0.1,3.3,0.8,3.9,2.6
		c0.8-0.5,1.6-1,2.4-1.5c1.4-0.7,2.8-1.2,4.3-1.1c2.4,0.1,4,1.5,4.1,3.9c0.1,3.3,0.1,6.7,0,10.1c0,1.2,0,2.3,1.4,2.5
		c0.1,0,0.2,0.2,0.3,0.4c-0.1,0.1-0.3,0.2-0.4,0.3c-0.1,0-0.2,0-0.4,0c-3.2,0-6.3,0-9.4,0c-0.3,0-0.5-0.2-0.7-0.3
		c0.2-0.2,0.4-0.4,0.5-0.5c0.2-0.3,0.5-0.6,0.5-0.9c0-3.4,0.1-6.9,0-10.3C123,10.4,122.2,9.9,120.6,10.3z"/>
	<path d="M188.2,8.7c-0.6,0-1.3,0-1.8,0c0-0.1,0-0.1-0.1-0.2c0.5-0.2,0.9-0.5,1.4-0.6c0.5-0.2,0.6-0.5,0.7-1
		c0.2-1.3,0.3-2.5,0.7-3.7c1.1-2.6,4.9-3.9,7.5-2.7c0.8,0.4,1.1,1,1.1,2c1.6-2.2,3.8-3,6.3-2.7c0.5,0.1,1.1,0.3,1.6,0.5
		c0.7,0.4,1,1.2,0.8,1.8c-0.2,0.7-0.6,1.1-1.4,1.1s-1.4-0.4-1.6-1.2c-0.1-0.2-0.1-0.5-0.2-0.6c-0.3-1.1-0.8-1.3-1.7-0.7
		c-0.8,0.5-1.2,1.4-1.4,2.3c-0.1,0.5-0.1,1.1-0.1,1.6c0,0.9,0,1.9,0,2.9c1.1,0,2.2,0,3.3,0c0,0.5-0.1,0.7-0.1,1.1
		c-1.1,0-2.1,0-3.2,0c0,0.4-0.1,0.6-0.1,1c0,3.9,0,7.7,0,11.6c0,1.6,0,1.6,1.5,2c0.3,0.1,0.5,0.2,0.8,0.5c-2.5,0-5.1,0-7.6,0
		c0-0.1,0-0.1-0.1-0.2c0.4-0.1,0.6-0.2,1-0.3c0.7-0.1,1-0.5,1-1.2c0-0.5,0-0.8,0-1.3c0-3.7,0-7.3,0-11c0-0.3,0-0.6,0-1
		c-1.7,0-3.3,0-5.2,0c0,0.4,0,0.6,0,0.9c0,3.9,0,7.7,0,11.6c0,1.6,0,1.6,1.5,2c0.3,0.1,0.5,0.2,0.7,0.4c-5.2,0-10.6,0-15.8,0
		c0-0.1,0-0.2-0.1-0.3c0.3-0.1,0.6-0.2,0.9-0.3c0.9-0.3,1.2-0.6,1-1.5c-0.4-1.4-0.8-2.9-1.3-4.4c-0.5-1.4-0.5-1.4-2-1.4
		s-3.1,0-4.6,0c-0.5,0-0.7,0.2-0.9,0.6c-0.5,1.5-1,3.1-1.4,4.7c-0.4,1.4,0,1.7,1.4,2.1c0.2,0.1,0.4,0.1,0.6,0.2
		c-0.5,0.4-4.9,0.5-5.6,0.1c0.1-0.1,0.1-0.2,0.1-0.2c1.4-0.3,1.8-1.4,2.3-2.4c2.3-6.2,4.4-12.2,6.7-18.4c0.3-0.7,0.6-0.8,1.3-0.8
		c0.7,0,0.9,0.4,1.1,0.8c2.1,6,4.2,11.9,6.2,17.9c0.2,0.6,0.5,1.2,0.7,1.7c0.7,1.3,2.4,1.3,3.4,0.5c0.2-0.1,0.3-0.5,0.3-0.7
		c0-4.4,0-8.8,0-13.2C188.3,9,188.3,8.9,188.2,8.7z M191.5,7.7c1.9,0,3.5,0,5.1,0c0.2-1.5,0.4-3.1,0.5-4.4c-1.3,0.7-2.3,0.4-2.6-1.1
		c-0.1-0.2-0.1-0.4-0.1-0.5c-0.1-0.6-0.5-0.8-1.1-0.6c-0.8,0.3-1.3,0.9-1.4,1.6C191.7,4.2,191.6,5.9,191.5,7.7z M171.7,15.1
		c2.2,0,4.2,0,6.2,0c-1-3.1-2-6-2.9-9c-0.1,0-0.1,0-0.2,0C173.7,9.1,172.7,12.1,171.7,15.1z"/>
	<path d="M51.1,10.3c0,4,0,8,0,11.9c0,0.4,0.4,0.6,0.6,1c0.1,0.2,0.3,0.3,0.4,0.5c-0.2,0.1-0.4,0.2-0.5,0.2c-1.4,0-3,0-4.4,0
		c-1.7,0-3.5,0-5.2,0c-0.2,0-0.5-0.2-0.6-0.3c0.2-0.2,0.3-0.5,0.5-0.5c1-0.3,1.3-0.9,1.3-1.9c-0.1-3.4-0.1-7,0-10.4
		c0-1.1-0.3-1.8-1.2-2.4c-0.2-0.1-0.4-0.4-0.7-0.7c0.9-0.1,1.4-0.2,2.1-0.3c2.4-0.3,4.7-0.5,7.1-0.7c0.6-0.1,0.9,0.1,0.8,0.8
		c-0.1,0.5,0,1.1,0,1.8c0.5-0.4,0.8-0.6,1.2-0.9c2-1.4,4.2-2.2,6.6-1.6c1.8,0.5,3,1.7,3,3.5c0.1,3.3,0.1,6.5,0.1,9.8
		c0,0.5,0,0.9,0,1.4c0,0.8,0.3,1.4,1.2,1.6c0.2,0.1,0.4,0.3,0.6,0.5c-0.3,0.1-0.5,0.3-0.7,0.3c-3.2,0-6.3,0-9.5,0
		c-0.3,0-0.5-0.2-0.7-0.3c0.2-0.2,0.4-0.3,0.5-0.5c0.3-0.4,0.6-0.8,0.6-1.2c0.1-3.3,0.1-6.7,0-10C53.6,10.4,52.8,9.8,51.1,10.3z"/>
	<path d="M88.4,6.8c0,0.5,0,0.8,0,1.2c0,3.3,0,6.7,0,10.1c0,0.5,0,0.9,0.1,1.4c0.2,1.5,1,2,2.5,1.4c0-2.1,0-4.2,0-6.2
		c0-1.2,0-2.4,0-3.6c0-1.1-0.3-1.9-1.2-2.4c-0.3-0.2-0.5-0.3-0.6-0.4c0.1-0.1,0.1-0.3,0.2-0.4c3.2-0.4,6.4-0.6,9.7-1
		c0,0.5,0.1,0.7,0.1,1.1c0,4.1,0,8,0,12.1c0,1.3,0,2.4,1.5,2.7c0.1,0,0.1,0.1,0.2,0.3c-0.3,0.1-0.5,0.2-0.7,0.2
		c-2.8,0.4-5.6,0.7-8.3,1.1c-0.7,0.1-0.8-0.1-0.8-0.7c0-0.5,0-1.1,0-1.6c-1.1,0.6-2.2,1.4-3.3,1.9c-1.4,0.6-2.9,0.7-4.4,0.3
		c-1.8-0.5-2.9-1.9-3-3.8c-0.1-2.4,0-5-0.1-7.4c0-0.7,0-1.4,0-2.1c0-1-0.4-1.6-1.1-2.2c-0.3-0.2-0.5-0.4-0.6-0.5
		c0-0.1,0-0.2,0.1-0.3C81.8,7.4,84.9,7.1,88.4,6.8z"/>
	<path d="M19.7,10.1c-0.3-0.3-0.5-0.5-0.6-0.7c-1.3-1.8-2.4-3.6-3.7-5.3c-0.6-0.9-1.4-1.8-2.8-1.5s-1.7,1.4-2,2.6
		c-0.3,1.1-0.4,2.2-0.5,3.3c-0.2,3.8-0.3,7.6,0.4,11.4c0.1,0.7,0.4,1.4,0.6,2.1c0.8,1.8,2.8,2.3,4.2,0.7c1.2-1.4,2.1-2.9,3-4.4
		c0.5-0.6,0.7-1.4,1.1-2.1c0.1-0.2,0.4-0.4,0.5-0.5c0.1,0,0.2,0.1,0.2,0.1c0,0.9-0.1,1.8-0.1,2.8c-0.1,1.4-0.2,2.7-0.3,4.1
		c0,0.3-0.2,0.6-0.4,0.6c-4.6,1.4-9.1,1.8-13.7-0.3c-3.7-1.7-5.3-4.9-5.6-8.8C-0.2,11.3,0.3,8.5,2.2,6s4.5-3.7,7.4-4.2
		c3-0.5,6-0.5,9,0.4c0.3,0.1,0.6,0.4,0.6,0.6c0.3,2.3,0.5,4.6,0.6,6.9C19.9,9.7,19.8,9.8,19.7,10.1z"/>
	<path d="M31.2,6.8c3.3,0.1,6.2,1,8.1,3.5c2.1,2.8,2.2,5.9,0.9,9c-1.3,3.1-4,4.3-7.1,4.8c-2.5,0.4-5,0.1-7.2-1.1
		c-3.2-1.6-4.8-4.8-4.3-8.6c0.5-4.2,3.2-7,7.3-7.5C29.8,6.8,30.6,6.8,31.2,6.8z M29.8,15.4c0.1,0,0.2,0,0.3,0c0,1.7-0.1,3.3,0,5.1
		c0,0.7,0.2,1.4,0.5,2.2c0.1,0.3,0.5,0.5,0.9,0.5c0.3,0,0.6-0.3,0.8-0.5c0.2-0.5,0.4-1,0.4-1.4c0.1-3.4,0.1-6.9,0.1-10.2
		c0-0.7-0.2-1.5-0.3-2.4c-0.1-0.5-0.4-1.1-1-1.1c-0.7,0-0.9,0.5-1,1.1c-0.1,0.1-0.1,0.3-0.1,0.5C30,11.3,29.9,13.4,29.8,15.4z"/>
	<path d="M150.7,14.4c-3.3,0-6.5,0-9.8,0c0,1.8,0.1,3.4,1.1,4.9c0.6,0.9,1.5,1.3,2.6,1.4c1.8,0.4,3.6,0,5.4-0.6
		c-0.1,0.3-0.2,0.5-0.4,0.7c-2.1,2.4-4.9,3.3-8,3.3c-1.2,0-2.3-0.2-3.3-0.5c-3-0.9-4.6-3-5.1-6c-0.7-4.2,0.8-7.9,4.2-9.8
		c3.2-1.7,6.5-1.8,9.8-0.3c2.3,1,3.1,3.2,3.4,5.5C150.6,13.5,150.6,13.9,150.7,14.4z M143.4,13.4c-0.2-1.7-0.3-3.3-0.5-5
		c0-0.3-0.5-0.8-0.7-0.7c-0.4,0.1-0.8,0.5-0.9,0.7c-0.3,1.7-0.4,3.4-0.5,5.2C141.7,13.5,142.4,13.5,143.4,13.4z"/>
	<path d="M150.5,7.8c1.4-0.2,2.6-0.3,3.9-0.5c1.6-0.2,3.3-0.4,5-0.5c0.7-0.1,1.1,0.1,1,0.8c-0.1,0.5,0,1.1,0,1.5
		c0.4-0.4,0.8-0.6,1.3-1c1.4-1.2,2.8-1.7,4.5-1.2c1.4,0.5,2.2,1.6,2.2,3.3c0,1.5-0.7,2.7-2.1,3.2c-1.5,0.5-3.1,0.1-4-1.2
		c-0.4-0.5-0.5-1-0.8-1.4c-0.2-0.2-0.5-0.4-0.7-0.5c-0.1,0.3-0.3,0.5-0.4,0.7c0,3.4,0,7,0,10.4c0,0.9,0.5,1.4,1.4,1.6
		c0.3,0.1,0.5,0.3,0.7,0.5c-0.3,0.1-0.5,0.3-0.8,0.3c-3.4,0-6.9,0-10.3,0c-0.3,0-0.5-0.2-0.7-0.3c0.2-0.2,0.4-0.5,0.5-0.5
		c1-0.2,1.2-0.8,1.2-1.7c0-3.3,0-6.8,0-10.1c0-1.3-0.2-2.3-1.4-2.9c-0.1-0.1-0.2-0.2-0.3-0.3C150.6,8,150.6,8,150.5,7.8z"/>
	<path d="M64.1,23.8c-0.1-2-0.2-3.7-0.3-5.4c0.1,0,0.2-0.1,0.2-0.1c0.2,0.2,0.4,0.4,0.5,0.6c0.9,1,1.7,2.1,2.7,3.1
		c0.9,1,2,1.6,3.4,1.4c0.6-0.1,1.2-0.5,1.4-1.1c0.2-0.7,0.2-1.5-0.5-2c-0.7-0.5-1.6-0.7-2.4-1.1c-0.6-0.3-1.4-0.5-1.9-0.7
		c-3.6-1.8-4.7-6.7-2-9.5c1.4-1.4,3.3-2.1,5.2-2.1c2,0,3.9,0.3,5.9,0.5c0.2,0,0.5,0.3,0.5,0.5c0.1,1.4,0.2,2.9,0.1,4.5
		c-0.2-0.2-0.4-0.4-0.6-0.5c-0.9-1-1.8-2-2.7-2.9c-0.8-0.8-1.8-1.3-3-0.8c-0.5,0.2-0.9,0.7-1.1,1.2c-0.3,0.6,0,1.3,0.6,1.5
		c0.8,0.5,1.7,0.8,2.6,1.2c0.8,0.4,1.6,0.6,2.4,1c2.2,1,3.3,2.8,3.2,5.2c-0.1,2.5-1.3,4.4-3.6,5.3c-1.5,0.5-3.3,0.9-4.9,0.9
		C68,24.3,66.1,23.9,64.1,23.8z"/>
	<path d="M218.3,23.4c-1.8,1.6-4.4,1.1-5.4-0.9c-0.9,0.5-1.8,1.2-2.8,1.5c-1.6,0.5-3.3,0.5-4.7-0.5c-2.1-1.3-2.4-4.6-0.3-6
		c1.1-0.7,2.5-1.2,3.8-1.6c1.1-0.4,2.2-0.6,3.3-0.8c0.5-0.1,0.5-0.3,0.5-0.7c0-1.4,0-2.7-0.1-4.1c-0.1-2.1-1.8-3.2-3.8-2.4
		c-0.4,0.2-0.6,0.7-0.8,1.2c-0.2,0.4-0.1,0.7-0.3,1.2c-0.2,0.7-0.6,1.2-1.4,1.2c-0.6,0-1.4-0.1-1.6-0.7c-0.4-0.7-0.3-1.4,0.4-2
		c0.4-0.4,0.7-0.6,1.2-0.8c2.3-0.9,4.6-1.1,7-0.5c1.9,0.5,2.8,1.8,2.8,4c0,3,0,6.1,0,9c0,2.1,0,2.1,2.1,2.6
		C218.2,23.2,218.3,23.3,218.3,23.4z M212.8,15.9c-1,0.2-1.8,0.4-2.7,0.5c-0.4,0.1-0.7,0.2-1.1,0.4c-1.3,0.5-1.9,1.5-1.8,2.9
		c0,1.2,0.3,2.4,1.5,2.9c1.2,0.5,2.9,0.2,3.7-0.6c0.2-0.2,0.4-0.4,0.4-0.6C212.8,19.5,212.8,17.8,212.8,15.9z"/>
	<path d="M248.8,11.9c-0.5-0.8-1-1.7-1.5-2.5c-1-1.5-3-2-4.6-1.1c-1.6,0.9-1.8,3.2-0.3,4.3c0.8,0.5,1.7,0.9,2.5,1.4
		c0.9,0.5,1.9,0.9,2.7,1.4c3.3,1.8,2.7,6.4-0.4,8c-1.7,0.9-3.5,0.9-5.3,0.7c-1-0.1-2-0.4-3.1-0.5c0-1.6,0-3.2,0-4.9
		c0.3,0.4,0.4,0.5,0.5,0.6c0.5,0.8,0.8,1.6,1.3,2.4c1,1.6,3,2.3,4.7,1.5c1-0.5,1.6-1.2,1.7-2.3c0.1-1.1-0.2-2.1-1.2-2.7
		c-0.9-0.5-1.8-0.9-2.7-1.4c-0.5-0.3-1-0.5-1.4-0.7c-2.2-1.2-3.2-2.9-2.8-5.2c0.3-1.9,1.9-3.4,4.2-3.8c1.7-0.4,3.5-0.2,5.2,0.5
		c0.2,0.1,0.5,0.3,0.5,0.4c0.1,1.3,0,2.4,0,3.7C248.9,11.9,248.9,11.9,248.8,11.9z"/>
	<path d="M234.3,23.9c-2.5,0-5.1,0-7.7,0c0-0.1,0-0.1-0.1-0.2c0.4-0.1,0.7-0.3,1.1-0.4c0.6-0.2,1-0.5,1-1.2c0-4,0-8,0-11.9
		c0-0.6-0.3-1-0.7-1.3c-0.4-0.2-0.8-0.5-1.2-0.7c0-0.1,0-0.2,0-0.2c1.7-0.3,3.4-0.5,5.2-0.7c0,0.8,0,1.5,0,2.4
		c0.5-0.4,0.6-0.6,0.9-0.8c1-0.5,2-1.4,3.1-1.6c1.6-0.5,2.8,0.5,2.6,2.1c-0.1,0.8-0.5,1.3-1.3,1.4c-0.9,0.2-1.5-0.1-1.9-0.8
		c-0.6-1.2-0.7-1.2-2-0.6c-1,0.5-1.5,1-1.4,2.3c0.1,3.3,0,6.5,0.1,9.8c0,1.5,0.1,1.7,1.6,2c0.3,0.1,0.5,0.1,0.8,0.2
		C234.4,23.7,234.4,23.8,234.3,23.9z"/>
	<path d="M226,23.9c-2.4,0-4.9,0-7.3,0c0-0.1,0-0.1-0.1-0.2c0.4-0.1,0.6-0.3,1-0.4c0.7-0.2,1.1-0.5,1.1-1.3c0-3.9,0-7.9,0-11.8
		c0-0.7-0.4-1.2-1-1.5c-0.4-0.2-0.7-0.5-1-0.8c1.8-0.3,3.5-0.5,5.4-0.7c0,0.6-0.1,1.2-0.1,1.7c0,4.3,0,8.7,0,13
		c0,0.7,0.4,1.2,1.1,1.4c0.4,0.1,0.6,0.2,1,0.3C226,23.7,226,23.8,226,23.9z"/>
	<path d="M222.4,1.2c1.1,0.1,1.8,0.9,1.8,2c-0.1,1.1-0.9,1.9-2,1.8c-1.1,0-1.9-0.9-1.9-2C220.3,2,221.2,1.2,222.4,1.2z"/>
</g>
</svg>
