<?xml version="1.0" encoding="utf-8"?>
<!-- Generator: Adobe Illustrator 19.2.0, SVG Export Plug-In . SVG Version: 6.00 Build 0)  -->
<svg version="1.1" id="Capa_1" xmlns="http://www.w3.org/2000/svg" xmlns:xlink="http://www.w3.org/1999/xlink" x="0px" y="0px"
	 viewBox="0 0 274 171" style="enable-background:new 0 0 274 171;" xml:space="preserve">
<style type="text/css">
	.st0{fill:#4285F4;}
	.st1{fill:#EA4335;}
	.st2{fill:#FBBC05;}
	.st3{fill:#34A853;}
</style>
<path class="st0" d="M37.7,73.1v8.9h21.2c-0.6,5-2.3,8.6-4.8,11.2c-3.1,3.1-7.9,6.5-16.4,6.5c-13.1,0-23.3-10.5-23.3-23.6
	s10.2-23.6,23.3-23.6c7,0,12.2,2.8,16,6.4l6.2-6.2c-5.3-5.1-12.3-9-22.2-9c-17.9,0-33,14.6-33,32.5s15.1,32.5,33,32.5
	c9.7,0,17-3.2,22.7-9.1c5.8-5.8,7.7-14.1,7.7-20.8c0-2.1-0.1-4-0.5-5.6H37.7z"/>
<path class="st1" d="M94.6,65.8c-11.6,0-21.1,8.8-21.1,21c0,12.1,9.5,21,21.1,21s21.1-8.9,21.1-21C115.6,74.7,106.1,65.8,94.6,65.8z
	 M94.6,99.5c-6.4,0-11.8-5.2-11.8-12.7c0-7.5,5.5-12.7,11.8-12.7s11.8,5.2,11.8,12.7C106.4,94.3,100.9,99.5,94.6,99.5z"/>
<path class="st0" d="M197.8,70.5h-0.3c-2.1-2.5-6-4.7-11-4.7c-10.5,0-19.6,9.1-19.6,21c0,11.8,9.1,21,19.6,21c5,0,9-2.2,11-4.8h0.3
	v2.9c0,8-4.3,12.3-11.2,12.3c-5.6,0-9.1-4-10.6-7.5l-8,3.3c2.3,5.6,8.4,12.4,18.6,12.4c10.8,0,19.9-6.4,19.9-21.8V66.9h-8.7V70.5z
	 M187.2,99.5c-6.4,0-11.2-5.4-11.2-12.7c0-7.4,4.8-12.7,11.2-12.7c6.3,0,11.2,5.4,11.2,12.8C198.4,94.2,193.5,99.5,187.2,99.5z"/>
<path class="st2" d="M141.5,65.8c-11.6,0-21.1,8.8-21.1,21c0,12.1,9.5,21,21.1,21s21.1-8.9,21.1-21
	C162.5,74.7,153.1,65.8,141.5,65.8z M141.5,99.5c-6.4,0-11.8-5.2-11.8-12.7c0-7.5,5.5-12.7,11.8-12.7s11.8,5.2,11.8,12.7
	C153.3,94.3,147.9,99.5,141.5,99.5z"/>
<path class="st3" d="M213.7,44.4h9.1v63.4h-9.1V44.4z"/>
<path class="st1" d="M250.8,99.5c-4.7,0-8-2.1-10.2-6.4l28.1-11.6l-0.9-2.4c-1.7-4.7-7.1-13.4-17.9-13.4c-10.8,0-19.8,8.5-19.8,21
	c0,11.8,8.9,21,20.8,21c9.6,0,15.2-5.9,17.5-9.3l-7.1-4.8C258.7,97.2,255.5,99.5,250.8,99.5L250.8,99.5z M250.1,73.7
	c3.7,0,6.9,1.9,7.9,4.6l-19,7.8C239.1,77.4,245.3,73.7,250.1,73.7z"/>
</svg>
