<?xml version="1.0" encoding="utf-8"?>
<!-- Generator: Adobe Illustrator 19.2.0, SVG Export Plug-In . SVG Version: 6.00 Build 0)  -->
<svg version="1.1" id="layer" xmlns="http://www.w3.org/2000/svg" xmlns:xlink="http://www.w3.org/1999/xlink" x="0px" y="0px"
	 viewBox="0 0 274 171" style="enable-background:new 0 0 274 171;" xml:space="preserve">
<style type="text/css">
	.st0{fill:#00527C;}
	.st1{fill:#009ADA;}
</style>
<g>
	<g>
		<path class="st0" d="M67.3,112.5l1-1.2c0.7,0.6,1.4,0.9,2.3,0.9c0.7,0,1.1-0.3,1.1-0.7v0c0-0.4-0.3-0.6-1.5-1
			c-1.5-0.4-2.5-0.8-2.5-2.3v0c0-1.4,1.1-2.3,2.7-2.3c1.1,0,2,0.3,2.8,1l-0.9,1.3c-0.7-0.5-1.3-0.7-2-0.7s-1,0.3-1,0.7v0
			c0,0.5,0.3,0.7,1.6,1c1.5,0.4,2.4,1,2.4,2.3v0c0,1.5-1.1,2.4-2.8,2.4C69.3,113.7,68.2,113.3,67.3,112.5z"/>
		<path class="st0" d="M80,106h1.5l3.3,7.6H83l-0.7-1.7h-3.2l-0.7,1.7h-1.7L80,106z M81.7,110.5l-1-2.5l-1,2.5H81.7z"/>
		<path class="st0" d="M89.6,107.6h-2.3V106h6.3v1.5h-2.3v6h-1.7V107.6z"/>
		<path class="st0" d="M97.6,106h5.7v1.5h-4.1v1.5h3.6v1.5h-3.6v1.6h4.1v1.5h-5.8V106z"/>
		<path class="st0" d="M107.7,106h1.7v6.1h3.8v1.5h-5.5V106z"/>
		<path class="st0" d="M117.2,106h1.7v6.1h3.8v1.5h-5.5V106z"/>
		<path class="st0" d="M126.8,106h1.7v7.6h-1.7V106z"/>
		<path class="st0" d="M135,107.6h-2.3V106h6.3v1.5h-2.3v6H135V107.6z"/>
		<path class="st0" d="M143.1,106h5.7v1.5h-4.1v1.5h3.6v1.5h-3.6v1.6h4.1v1.5h-5.8V106z"/>
		<path class="st0" d="M159.2,106h3.5c1,0,1.7,0.3,2.2,0.8c0.4,0.4,0.7,1,0.7,1.7v0c0,1.2-0.7,2-1.6,2.4l1.9,2.7h-2l-1.6-2.4h0h-1.3
			v2.4h-1.7V106z M162.6,109.7c0.8,0,1.3-0.4,1.3-1.1v0c0-0.7-0.5-1.1-1.3-1.1h-1.7v2.2H162.6z"/>
		<path class="st0" d="M172.5,106h1.5l3.3,7.6h-1.7l-0.7-1.7h-3.2l-0.7,1.7h-1.7L172.5,106z M174.2,110.5l-1-2.5l-1,2.5H174.2z"/>
		<path class="st0" d="M181.2,106h3c2.4,0,4,1.6,4,3.8v0c0,2.1-1.6,3.8-4,3.8h-3V106z M184.2,112.1c1.4,0,2.3-0.9,2.3-2.3v0
			c0-1.3-0.9-2.3-2.3-2.3h-1.3v4.6H184.2z"/>
		<path class="st0" d="M192.6,106h1.7v7.6h-1.7V106z"/>
		<path class="st0" d="M198.7,109.9L198.7,109.9c0-2.2,1.7-3.9,4-3.9c2.3,0,4,1.7,4,3.9v0c0,2.2-1.7,3.9-4,3.9
			C200.3,113.8,198.7,112,198.7,109.9z M205,109.9L205,109.9c0-1.3-1-2.4-2.3-2.4c-1.3,0-2.3,1.1-2.3,2.4v0c0,1.3,1,2.4,2.3,2.4
			S205,111.2,205,109.9z"/>
	</g>
	<g>
		<g>
			<path class="st1" d="M257.4,61L257.4,61c4.3,6.3,6.5,13.6,6.5,21.2c0,7.6-2.3,15-6.6,21.2c-0.8,1.1-0.5,2.6,0.6,3.3
				c1.1,0.8,2.6,0.5,3.3-0.6c4.9-7.1,7.4-15.4,7.4-24c0-8.6-2.6-16.9-7.4-23.9c-0.7-1.1-2.2-1.4-3.3-0.6
				C256.9,58.4,256.6,59.9,257.4,61"/>
			<path class="st1" d="M249.7,100.2L249.7,100.2c1.1,0.8,2.6,0.6,3.4-0.5c3.8-5.1,5.8-11.1,5.8-17.4c0-6.4-2-12.5-5.9-17.6
				c-0.8-1.1-2.3-1.3-3.4-0.5c-1.1,0.8-1.3,2.3-0.5,3.4l0,0c3.2,4.2,4.9,9.3,4.9,14.6c0,5.3-1.7,10.3-4.8,14.5
				C248.5,97.9,248.7,99.4,249.7,100.2"/>
			<path class="st1" d="M241.2,94.3L241.2,94.3c1,0.8,2.6,0.7,3.4-0.4c2.7-3.3,4.1-7.5,4.1-11.8c0-4.3-1.4-8.3-4-11.6
				c-0.8-1.1-2.3-1.2-3.4-0.4c-1,0.8-1.2,2.3-0.4,3.4l0,0c1.9,2.5,3,5.5,3,8.6c0,3.2-1.1,6.3-3.1,8.8l0,0
				C240,92,240.2,93.5,241.2,94.3"/>
		</g>
		<g>
			<path class="st1" d="M16.7,103.4c-4.3-6.3-6.6-13.6-6.6-21.2c0-7.6,2.3-14.9,6.5-21.2c0.7-1.1,0.5-2.6-0.6-3.3
				c-1.1-0.8-2.6-0.5-3.3,0.6c-4.8,7.1-7.4,15.3-7.4,23.9c0,8.6,2.6,16.9,7.4,24l0,0c0.8,1.1,2.3,1.4,3.3,0.6
				C17.2,106,17.4,104.5,16.7,103.4C16.7,103.4,17.4,104.5,16.7,103.4C16.7,103.4,17.4,104.5,16.7,103.4L16.7,103.4z"/>
			<path class="st1" d="M24.8,67.6c0.8-1.1,0.6-2.6-0.5-3.4c-1.1-0.8-2.6-0.6-3.4,0.5l0,0c-3.9,5.1-5.9,11.1-5.9,17.6
				c0,6.3,2,12.4,5.8,17.4c0.8,1.1,2.3,1.3,3.4,0.5c1.1-0.8,1.3-2.3,0.5-3.4c-3.2-4.2-4.8-9.2-4.8-14.5
				C19.9,76.9,21.6,71.9,24.8,67.6L24.8,67.6L24.8,67.6L24.8,67.6L24.8,67.6z"/>
			<path class="st1" d="M25.3,82.1c0,4.3,1.5,8.5,4.2,11.8c0.8,1,2.3,1.2,3.4,0.4c1-0.8,1.2-2.3,0.4-3.4c-2-2.5-3.1-5.6-3.1-8.8
				c0-3.2,1-6.2,3-8.6l0,0c0.8-1,0.6-2.6-0.4-3.4c-1-0.8-2.6-0.6-3.4,0.4C26.7,73.9,25.3,77.9,25.3,82.1
				C25.3,82.1,25.3,77.9,25.3,82.1C25.3,82.1,25.3,77.9,25.3,82.1L25.3,82.1z"/>
		</g>
	</g>
	<g>
		<path class="st0" d="M48.5,87.5c0,1.1,0.4,2,1.2,2.5c0.7,0.5,1.6,0.8,2.7,0.8c1.7,0,3.5-0.5,3.5-2.5c0-4.5-17-0.9-17-11.7
			c0-7.1,7.4-9.2,13.2-9.2c6,0,13.2,1.4,13.8,8.8h-10c-0.1-0.9-0.5-1.5-1.1-2c-0.6-0.5-1.4-0.7-2.2-0.7c-1.9,0-3.1,0.6-3.1,2
			c0,3.9,17.6,1.3,17.6,11.7c0,5.8-4.8,9.7-15,9.7c-6.4,0-13.4-2-13.9-9.4H48.5z"/>
		<path class="st0" d="M68.8,67.6h9v4.3h-9V67.6z M68.8,96.3V73.7h9v22.6H68.8z"/>
		<path class="st0" d="M80.1,73.7h8.1v4.6h0.1c1.2-3.5,3.4-5.2,6.9-5.2c0.4,0,0.8,0.1,1.2,0.1v9c-0.6-0.1-1.3-0.3-1.9-0.3
			c-3.7,0-5.5,1.7-5.5,6.6v7.8h-9V73.7z"/>
		<path class="st0" d="M98.3,67.6h9v4.3h-9V67.6z M98.3,96.3V73.7h9v22.6H98.3z"/>
		<path class="st0" d="M134,96.3h-8.3V93c-2.2,3.1-4.4,4-8.1,4c-4.9,0-8.1-3-8.1-9.5V73.7h9v12.2c0,3.1,1.1,4.1,3.2,4.1
			c2.6,0,3.4-1.9,3.4-5.4V73.7h9V96.3z"/>
		<path class="st0" d="M143.5,89.2c0,0.9,0.3,1.6,0.9,2.1c0.6,0.4,1.3,0.7,2.2,0.7c1.4,0,2.8-0.4,2.8-2c0-3.6-13.8-0.7-13.8-9.5
			c0-5.8,6-7.5,10.7-7.5c4.9,0,10.7,1.1,11.2,7.1h-8.1c-0.1-0.7-0.4-1.2-0.9-1.6c-0.5-0.4-1.1-0.6-1.8-0.6c-1.6,0-2.5,0.5-2.5,1.6
			c0,3.1,14.3,1,14.3,9.5c0,4.7-3.9,7.9-12.1,7.9c-5.2,0-10.9-1.6-11.3-7.7H143.5z"/>
		<path class="st0" d="M167.2,81.6L158,68.3h12.3l3.5,6.9l3.7-6.9h12.1l-9.5,13.2l9.6,14.6h-12.3l-3.9-8l-4,8h-12.2L167.2,81.6z"/>
		<path class="st0" d="M190.4,68.3h10.1v4.1c1.4-2.1,3.9-4.9,7.9-4.9c4.6,0,7.4,2.1,8.7,5.1c2.4-3.3,4.5-5.1,8.5-5.1
			c7,0,10.4,4.6,10.4,12.1v16.4h-11V82c0-4.1-0.3-5.7-3.2-5.7c-3.1,0-3.1,2.8-3.1,6.1v13.7h-11V82c0-4.1-0.2-5.6-3.2-5.7
			c-3-0.1-3.1,2.8-3.1,6.1v13.7h-11V68.3z"/>
	</g>
	<path class="st0" d="M233,65.8h-1v-0.5h2.5v0.5h-1v2.5H233V65.8z"/>
	<path class="st0" d="M235,65.3h0.6l0.9,1.4l0.9-1.4h0.6v3h-0.5v-2.2l-1,1.4h0l-0.9-1.4v2.2H235V65.3z"/>
</g>
</svg>
