<?xml version="1.0" encoding="utf-8"?>
<!-- Generator: Adobe Illustrator 19.2.0, SVG Export Plug-In . SVG Version: 6.00 Build 0)  -->
<svg version="1.1" id="Layer_1" xmlns="http://www.w3.org/2000/svg" xmlns:xlink="http://www.w3.org/1999/xlink" x="0px" y="0px"
	 viewBox="0 0 445.9 312.1" style="enable-background:new 0 0 445.9 312.1;" xml:space="preserve">
<style type="text/css">
	.st0{fill:#646569;}
	.st1{fill:#E86B1F;}
</style>
<g>
	<path class="st0" d="M145.2,148.7H139v17.7c0,0.3-0.3,0.6-0.6,0.6h-3.1c-0.3,0-0.6-0.3-0.6-0.6v-17.7h-6.2c-0.3,0-0.6-0.2-0.6-0.6
		v-2.4c0-0.3,0.3-0.6,0.6-0.6h16.6c0.3,0,0.6,0.2,0.6,0.6v2.4C145.8,148.4,145.5,148.7,145.2,148.7 M167.4,167h-3.1
		c-0.3,0-0.6-0.3-0.6-0.6v-8.9H154v8.9c0,0.3-0.3,0.6-0.6,0.6h-3.1c-0.3,0-0.6-0.3-0.6-0.6v-20.7c0-0.3,0.3-0.6,0.6-0.6h3.1
		c0.3,0,0.6,0.2,0.6,0.6v8h9.8v-8c0-0.3,0.3-0.6,0.6-0.6h3.1c0.3,0,0.6,0.2,0.6,0.6v20.7C168.1,166.7,167.8,167,167.4,167z
		 M182.7,167.3c-5.1,0-9.8-2.8-9.8-9.6v-3.2c0-6.8,4.7-9.6,9.8-9.6c5.1,0,9.8,2.8,9.8,9.6v3.2C192.6,164.4,187.8,167.3,182.7,167.3z
		 M188.2,154.5c0-4.1-2.5-5.9-5.5-5.9c-3,0-5.5,1.8-5.5,5.9v3.2c0,4.1,2.5,5.9,5.5,5.9c3,0,5.5-1.8,5.5-5.9V154.5z M219.2,167H216
		c-0.3,0-0.5-0.3-0.5-0.6v-13.3c0-0.2,0-0.3-0.1-0.3c0,0-0.1,0.1-0.2,0.2l-5,11c-0.2,0.3-0.6,0.5-1,0.5h-1.6c-0.4,0-0.8-0.2-1-0.5
		l-5-11c-0.1-0.1-0.1-0.2-0.2-0.2c-0.1,0-0.1,0.1-0.1,0.3v13.3c0,0.3-0.2,0.6-0.5,0.6h-3.1c-0.3,0-0.5-0.2-0.5-0.5v-20.2
		c0-0.7,0.6-1.2,1.2-1.2h2.5c0.5,0,0.9,0.3,1.1,0.7l5.9,12.1c0.2,0.3,0.2,0.4,0.3,0.4c0.1,0,0.2-0.2,0.3-0.4l5.9-12.1
		c0.2-0.4,0.7-0.7,1.1-0.7h2.5c0.7,0,1.2,0.6,1.2,1.2v20.2C219.7,166.9,219.4,167,219.2,167z M287,167h-3.1c-0.7,0-1.4,0-1.9-1.1
		l-8.4-14c-0.1-0.2-0.2-0.2-0.3-0.2c-0.1,0-0.2,0.1-0.2,0.2v14.5c0,0.3-0.2,0.6-0.6,0.6H270c-0.3,0-0.6-0.3-0.6-0.6v-20.1
		c0-0.7,0.5-1.2,1.2-1.2h3.3c0.6,0,1,0.2,1.4,1l8.7,14.9c0.1,0.1,0.2,0.2,0.2,0.2c0.1,0,0.1-0.1,0.1-0.3v-15.2
		c0-0.3,0.2-0.6,0.6-0.6h2.7c0.3,0,0.6,0.2,0.6,0.6v20.1C288.2,166.5,287.7,167,287,167z M232.9,167.3c-2.7,0-5.5-0.5-7-0.8
		c-0.3-0.1-0.6-0.3-0.6-0.6v-2.2c0-0.3,0.3-0.6,0.6-0.6c0,0,0,0,0.1,0c1.2,0.2,4.1,0.6,7,0.6c2.8,0,3.6-1,3.6-2.8
		c0-2.3-5.5-3.6-8.2-4.7c-2.7-1.1-3.6-3.2-3.6-5.4c0-3.4,2.7-5.9,8.5-5.9c2.9,0,5.6,0.6,6.7,0.8c0.3,0.1,0.6,0.3,0.6,0.6v2.3
		c0,0.3-0.2,0.6-0.5,0.6c0,0,0,0-0.1,0c-2-0.2-4.2-0.6-6.8-0.6c-2.3,0-4,0.8-4,2.2c0,1,1.2,2,2.5,2.5c1.4,0.5,3.2,1.2,5.2,2.1
		c2.6,1.1,4.3,2.6,4.3,5.5C241.1,163.9,239.1,167.3,232.9,167.3z M254.8,167.3c-5.1,0-9.8-2.8-9.8-9.6v-3.2c0-6.8,4.7-9.6,9.8-9.6
		c5.1,0,9.8,2.8,9.8,9.6v3.2C264.6,164.4,259.9,167.3,254.8,167.3z M260.3,154.5c0-4.1-2.5-5.9-5.5-5.9c-3,0-5.5,1.8-5.5,5.9v3.2
		c0,4.1,2.5,5.9,5.5,5.9c3,0,5.5-1.8,5.5-5.9V154.5z M320.2,167h-3.8c-0.3,0-0.5-0.3-0.6-0.6l-4.4-7.5h-0.7c-0.8,0-3.3-0.1-4-0.1
		v7.6c0,0.3-0.2,0.6-0.6,0.6H303c-0.3,0-0.6-0.3-0.6-0.6v-20.2c0-0.6,0.4-0.8,1-0.9c1.6-0.2,5.1-0.4,7.3-0.4c4.8,0,9.1,1.7,9.1,7
		v0.3c0,3.3-1.6,5.1-4.2,6l4.8,8.3c0.1,0.1,0.1,0.2,0.1,0.2C320.6,166.9,320.5,167,320.2,167z M315.6,151.8c0-2.3-1.8-3.3-4.9-3.3
		c-0.6,0-3.5,0.1-4,0.1v6.7c0.5,0,3.5,0.1,4,0.1c3.2,0,4.9-0.6,4.9-3.3V151.8z M328.8,160.9c0,2.6,0.1,2.7,2.4,2.7h7.8
		c0.3,0,0.6,0.3,0.6,0.6v2c0,0.4-0.2,0.6-0.6,0.6c-1,0.2-3,0.4-6.7,0.4c-5.1,0-7.8,0-7.8-6.3v-9.8c0-6.4,2.7-6.3,7.8-6.3
		c3.7,0,5.7,0.3,6.7,0.4c0.5,0.1,0.6,0.2,0.6,0.7v2c0,0.3-0.3,0.6-0.6,0.6h-7.8c-2.3,0-2.4,0.1-2.4,2.7v2.8h9.9
		c0.3,0,0.6,0.3,0.6,0.6v2.2c0,0.3-0.3,0.6-0.6,0.6h-9.9V160.9z M353.6,167.3c-5,0-9.2-2.2-9.2-8.7v-12.8c0-0.3,0.3-0.6,0.6-0.6h3.1
		c0.3,0,0.6,0.2,0.6,0.6v12.8c0,3.5,1.6,5.2,5,5.2c3.3,0,5-1.7,5-5.2v-12.8c0-0.3,0.3-0.6,0.6-0.6h3.1c0.3,0,0.6,0.2,0.6,0.6v12.8
		C362.8,165.1,358.6,167.3,353.6,167.3z M383.1,148.7H377v17.7c0,0.3-0.3,0.6-0.6,0.6h-3.1c-0.3,0-0.6-0.3-0.6-0.6v-17.7h-6.2
		c-0.3,0-0.6-0.2-0.6-0.6v-2.4c0-0.3,0.3-0.6,0.6-0.6h16.6c0.3,0,0.6,0.2,0.6,0.6v2.4C383.7,148.4,383.5,148.7,383.1,148.7z
		 M425.1,167h-3.8c-0.3,0-0.5-0.3-0.6-0.6l-4.5-7.5h-0.7c-0.8,0-3.3-0.1-4-0.1v7.6c0,0.3-0.2,0.6-0.6,0.6h-3.1
		c-0.3,0-0.6-0.3-0.6-0.6v-20.2c0-0.6,0.4-0.8,1-0.9c1.6-0.2,5.1-0.4,7.3-0.4c4.8,0,9.1,1.7,9.1,7v0.3c0,3.3-1.6,5.1-4.2,6l4.9,8.3
		c0.1,0.1,0.1,0.2,0.1,0.2C425.4,166.9,425.3,167,425.1,167z M420.4,151.8c0-2.3-1.8-3.3-4.9-3.3c-0.6,0-3.5,0.1-4,0.1v6.7
		c0.5,0,3.5,0.1,4,0.1c3.2,0,4.9-0.6,4.9-3.3V151.8z M436.9,167.3c-2.7,0-5.5-0.5-7-0.8c-0.3-0.1-0.6-0.3-0.6-0.6v-2.2
		c0-0.3,0.3-0.6,0.6-0.6c0,0,0,0,0.1,0c1.2,0.2,4.1,0.6,7,0.6c2.7,0,3.6-1,3.6-2.8c0-2.3-5.5-3.6-8.2-4.7c-2.7-1.1-3.6-3.2-3.6-5.4
		c0-3.4,2.7-5.9,8.5-5.9c2.9,0,5.6,0.6,6.7,0.8c0.3,0.1,0.6,0.3,0.6,0.6v2.3c0,0.3-0.2,0.6-0.5,0.6c0,0,0,0-0.1,0
		c-2-0.2-4.2-0.6-6.8-0.6c-2.3,0-4,0.8-4,2.2c0,1,1.2,1.9,2.5,2.5c1.4,0.5,3.2,1.2,5.2,2.1c2.6,1.1,4.3,2.6,4.3,5.5
		C445,163.9,443,167.3,436.9,167.3z M391.2,160.9c0,2.6,0.1,2.7,2.4,2.7h7.8c0.3,0,0.6,0.3,0.6,0.6v2c0,0.4-0.2,0.6-0.6,0.6
		c-1,0.2-3,0.4-6.7,0.4c-5.1,0-7.8,0-7.8-6.3v-9.8c0-6.4,2.7-6.3,7.8-6.3c3.7,0,5.7,0.3,6.7,0.4c0.5,0.1,0.6,0.2,0.6,0.7v2
		c0,0.3-0.3,0.6-0.6,0.6h-7.8c-2.3,0-2.4,0.1-2.4,2.7v2.8h9.9c0.3,0,0.6,0.3,0.6,0.6v2.2c0,0.3-0.3,0.6-0.6,0.6h-9.9V160.9z"/>
	<path class="st1" d="M75.1,138c-1.3,1.4-3.4,1.4-4.8,0.1c-1.4-1.3-1.4-3.4-0.1-4.8c1.3-1.4,3.4-1.4,4.8-0.2
		C76.4,134.5,76.4,136.6,75.1,138 M41.2,130.3c-0.7-0.6-1.7-0.6-2.4,0.1c-0.6,0.7-0.6,1.7,0.1,2.4c0.7,0.6,1.7,0.6,2.4-0.1
		C41.9,132,41.8,130.9,41.2,130.3z M49.7,127c-0.8-0.8-2.1-0.7-2.9,0.1c-0.8,0.8-0.7,2.1,0.1,2.9c0.8,0.8,2.1,0.7,2.9-0.1
		C50.6,129.2,50.5,127.8,49.7,127z M58.8,126.4c-1.1-1-2.7-0.9-3.7,0.1c-1,1.1-0.9,2.7,0.1,3.7c1.1,1,2.7,0.9,3.7-0.1
		C59.9,129,59.9,127.4,58.8,126.4z M67.5,128.6c-1.2-1.1-3.1-1.1-4.2,0.1c-1.1,1.2-1.1,3.1,0.1,4.2c1.2,1.1,3.1,1.1,4.2-0.1
		C68.7,131.6,68.7,129.7,67.5,128.6z M34,136c-0.5-0.5-1.3-0.4-1.8,0.1c-0.5,0.5-0.5,1.3,0,1.8c0.5,0.5,1.3,0.5,1.8,0
		C34.5,137.2,34.5,136.4,34,136z M77.6,166.9c-0.6,0.7-0.6,1.7,0.1,2.4c0.7,0.6,1.7,0.6,2.4-0.1c0.6-0.7,0.6-1.7-0.1-2.4
		C79.3,166.2,78.2,166.2,77.6,166.9z M79.7,158.2c-0.8,0.8-0.7,2.1,0.1,2.9c0.8,0.8,2.1,0.7,2.9-0.1c0.8-0.8,0.8-2.1-0.1-2.9
		C81.8,157.3,80.5,157.3,79.7,158.2z M79.1,149c-1,1.1-0.9,2.7,0.1,3.7c1.1,1,2.7,0.9,3.7-0.1c1-1,0.9-2.7-0.1-3.7
		C81.7,147.9,80,148,79.1,149z M75.9,140.6c-1.1,1.2-1.1,3.1,0.1,4.2c1.2,1.1,3.1,1.1,4.2-0.1c1.1-1.2,1.1-3.1-0.1-4.2
		C78.9,139.3,77,139.4,75.9,140.6z M72.9,174.4c-0.5,0.5-0.4,1.3,0.1,1.8c0.5,0.5,1.3,0.5,1.8-0.1c0.5-0.5,0.5-1.3,0-1.8
		C74.2,173.9,73.4,173.9,72.9,174.4z M36.8,178.8c1.3-1.4,1.2-3.5-0.1-4.8c-1.4-1.3-3.5-1.2-4.8,0.1c-1.3,1.4-1.2,3.5,0.1,4.8
		C33.3,180.2,35.5,180.1,36.8,178.8z M29.4,145.3c0.6-0.7,0.6-1.7-0.1-2.4c-0.7-0.6-1.7-0.6-2.4,0.1c-0.6,0.7-0.6,1.7,0.1,2.4
		C27.7,145.9,28.8,145.9,29.4,145.3z M27.2,153.9c0.8-0.8,0.7-2.2-0.1-2.9c-0.8-0.8-2.2-0.7-2.9,0.1c-0.8,0.8-0.8,2.1,0.1,2.9
		C25.1,154.8,26.4,154.8,27.2,153.9z M27.9,163.1c1-1.1,1-2.7-0.1-3.7c-1.1-1-2.7-0.9-3.7,0.1c-1,1.1-0.9,2.7,0.1,3.7
		C25.2,164.2,26.9,164.1,27.9,163.1z M31.1,171.5c1.1-1.2,1.1-3.1-0.1-4.2c-1.2-1.1-3.1-1.1-4.2,0.1c-1.1,1.2-1.1,3.1,0.1,4.2
		C28.1,172.8,30,172.7,31.1,171.5z M65.8,181.8c0.7,0.6,1.7,0.6,2.4-0.1c0.6-0.7,0.6-1.7-0.1-2.4c-0.7-0.6-1.7-0.6-2.4,0.1
		C65.1,180.1,65.1,181.2,65.8,181.8z M57.3,185.1c0.8,0.8,2.1,0.7,2.9-0.1c0.8-0.8,0.8-2.1-0.1-2.9c-0.8-0.8-2.1-0.7-2.9,0.1
		C56.4,183,56.4,184.3,57.3,185.1z M48.1,185.7c1.1,1,2.7,1,3.7-0.1c1-1.1,1-2.7-0.1-3.7c-1.1-1-2.7-0.9-3.7,0.1
		C47,183.1,47.1,184.7,48.1,185.7z M39.5,183.5c1.2,1.1,3.1,1.1,4.2-0.1c1.1-1.2,1.1-3.1-0.1-4.2c-1.2-1.1-3.1-1.1-4.2,0.1
		C38.2,180.5,38.3,182.4,39.5,183.5z M61.9,136.7c-0.4,1.4-1.9,2.2-3.3,1.8c-1.4-0.4-2.2-1.9-1.8-3.3c0.4-1.4,1.9-2.2,3.3-1.8
		C61.6,133.8,62.4,135.3,61.9,136.7z M36.5,142.9c-0.7-0.2-1.4,0.2-1.6,0.9c-0.2,0.7,0.2,1.4,0.9,1.6c0.7,0.2,1.4-0.2,1.6-0.9
		C37.6,143.9,37.2,143.2,36.5,142.9z M41.1,137.9c-0.9-0.3-1.8,0.2-2,1.1c-0.3,0.9,0.2,1.8,1.1,2c0.9,0.3,1.8-0.2,2-1.1
		C42.5,139,42,138.1,41.1,137.9z M47,134.3c-1.1-0.3-2.2,0.3-2.6,1.4c-0.3,1.1,0.3,2.2,1.4,2.6c1.1,0.3,2.2-0.3,2.5-1.4
		C48.7,135.8,48.1,134.6,47,134.3z M53.5,132.9c-1.2-0.4-2.5,0.3-2.9,1.6c-0.4,1.2,0.3,2.5,1.6,2.9c1.2,0.4,2.5-0.3,2.9-1.6
		C55.5,134.5,54.8,133.2,53.5,132.9z M33.6,149.2c-0.5-0.2-1.1,0.1-1.2,0.7c-0.1,0.5,0.1,1.1,0.7,1.2c0.5,0.2,1.1-0.2,1.2-0.7
		C34.4,149.9,34.1,149.4,33.6,149.2z M73.2,155.1c-0.2,0.7,0.2,1.4,0.9,1.6c0.7,0.2,1.4-0.2,1.6-0.9c0.2-0.7-0.2-1.4-0.9-1.6
		C74.1,154,73.4,154.4,73.2,155.1z M71.7,148.5c-0.3,0.9,0.2,1.8,1.1,2c0.9,0.3,1.8-0.2,2-1.1c0.3-0.9-0.2-1.8-1.1-2
		C72.9,147.2,71.9,147.7,71.7,148.5z M68.1,142.7c-0.3,1.1,0.3,2.2,1.4,2.6c1.1,0.3,2.2-0.3,2.6-1.4c0.3-1.1-0.3-2.2-1.4-2.5
		C69.6,141,68.5,141.6,68.1,142.7z M63.1,138.1c-0.4,1.2,0.3,2.5,1.6,2.9c1.2,0.4,2.5-0.4,2.9-1.6c0.4-1.2-0.3-2.5-1.6-2.9
		C64.8,136.1,63.5,136.9,63.1,138.1z M72.7,161.7c-0.1,0.5,0.1,1.1,0.7,1.2c0.5,0.2,1.1-0.1,1.2-0.7c0.2-0.5-0.1-1.1-0.7-1.2
		C73.4,160.9,72.8,161.2,72.7,161.7z M50.1,177c0.4-1.4-0.4-2.9-1.8-3.3c-1.4-0.4-2.9,0.4-3.3,1.8c-0.4,1.4,0.4,2.9,1.8,3.3
		C48.2,179.2,49.7,178.3,50.1,177z M33.7,157c0.2-0.7-0.2-1.4-0.9-1.6c-0.7-0.2-1.4,0.2-1.6,0.9c-0.2,0.7,0.2,1.4,0.9,1.6
		C32.8,158.1,33.5,157.7,33.7,157z M35.3,163.6c0.3-0.9-0.2-1.8-1.1-2c-0.9-0.3-1.8,0.2-2,1.1c-0.2,0.9,0.2,1.8,1.1,2
		C34.1,164.9,35,164.4,35.3,163.6z M38.8,169.5c0.3-1.1-0.3-2.2-1.4-2.6c-1.1-0.3-2.2,0.3-2.5,1.4c-0.3,1.1,0.3,2.2,1.4,2.5
		C37.4,171.2,38.5,170.5,38.8,169.5z M43.8,174c0.4-1.2-0.3-2.5-1.6-2.9c-1.2-0.4-2.5,0.3-2.9,1.6c-0.4,1.2,0.3,2.5,1.6,2.9
		C42.2,176,43.5,175.3,43.8,174z M70.4,169.2c0.7,0.2,1.4-0.2,1.6-0.9c0.2-0.7-0.2-1.4-0.9-1.6c-0.7-0.2-1.4,0.2-1.6,0.9
		C69.4,168.2,69.8,169,70.4,169.2z M65.8,174.2c0.9,0.3,1.8-0.2,2-1.1c0.3-0.9-0.2-1.8-1.1-2c-0.9-0.3-1.8,0.2-2,1.1
		C64.5,173.1,65,174,65.8,174.2z M59.9,177.8c1.1,0.3,2.2-0.3,2.6-1.4c0.3-1.1-0.3-2.2-1.4-2.5c-1.1-0.3-2.2,0.3-2.6,1.4
		C58.2,176.3,58.9,177.5,59.9,177.8z M53.4,179.3c1.2,0.4,2.5-0.3,2.9-1.6c0.4-1.2-0.3-2.5-1.6-2.9c-1.2-0.4-2.5,0.3-2.9,1.6
		C51.5,177.6,52.2,178.9,53.4,179.3z M48,141.6c0.5,1,0.2,2.2-0.8,2.8c-1,0.5-2.3,0.2-2.8-0.8c-0.5-1-0.2-2.2,0.8-2.8
		C46.2,140.2,47.5,140.6,48,141.6z M37.8,157.7c-0.6,0.3-0.8,1.1-0.5,1.6c0.3,0.6,1.1,0.8,1.6,0.5c0.6-0.3,0.8-1.1,0.5-1.6
		C39.2,157.6,38.4,157.4,37.8,157.7z M37.6,152.8c-0.7,0.4-0.9,1.2-0.6,1.9c0.4,0.7,1.2,0.9,1.9,0.6c0.7-0.4,0.9-1.2,0.6-1.9
		C39.2,152.6,38.3,152.4,37.6,152.8z M38.9,148c-0.8,0.4-1.1,1.4-0.7,2.2c0.4,0.8,1.4,1.1,2.2,0.7c0.8-0.4,1.1-1.4,0.7-2.2
		C40.7,147.9,39.7,147.6,38.9,148z M41.5,143.9c-0.9,0.5-1.2,1.6-0.7,2.5c0.5,0.9,1.6,1.2,2.4,0.7c0.9-0.5,1.2-1.6,0.8-2.5
		C43.5,143.7,42.4,143.4,41.5,143.9z M39.5,162.4c-0.5,0.3-0.7,0.9-0.4,1.4c0.3,0.5,0.9,0.7,1.4,0.4c0.5-0.3,0.7-0.9,0.4-1.4
		C40.6,162.4,40,162.2,39.5,162.4z M63,145.5c0.3,0.6,1,0.8,1.7,0.5c0.6-0.3,0.8-1.1,0.5-1.7c-0.3-0.6-1.1-0.8-1.6-0.5
		C62.9,144.2,62.7,145,63,145.5z M58.9,142.9c0.4,0.7,1.2,0.9,1.9,0.6c0.7-0.4,1-1.2,0.6-1.9c-0.4-0.7-1.2-0.9-1.9-0.6
		C58.7,141.4,58.5,142.2,58.9,142.9z M54.1,141.6c0.4,0.8,1.4,1.1,2.2,0.6c0.8-0.4,1.1-1.4,0.7-2.2c-0.4-0.8-1.4-1.1-2.2-0.6
		C54,139.9,53.7,140.9,54.1,141.6z M49.1,141.8c0.5,0.9,1.6,1.2,2.5,0.7c0.9-0.5,1.2-1.6,0.7-2.5c-0.5-0.9-1.6-1.2-2.5-0.7
		C49,139.9,48.7,141,49.1,141.8z M66.1,149.3c0.3,0.5,0.9,0.7,1.4,0.4c0.5-0.3,0.7-0.9,0.4-1.4c-0.3-0.5-0.9-0.7-1.4-0.4
		C66,148.1,65.8,148.8,66.1,149.3z M62.6,168.5c-0.5-1-1.8-1.4-2.8-0.8c-1,0.5-1.4,1.8-0.8,2.8c0.5,1,1.8,1.4,2.8,0.8
		C62.7,170.8,63.1,169.5,62.6,168.5z M44,166.5c-0.3-0.6-1-0.8-1.6-0.5c-0.6,0.3-0.8,1.1-0.5,1.6c0.3,0.6,1,0.8,1.6,0.5
		C44.1,167.9,44.3,167.1,44,166.5z M48.1,169.2c-0.4-0.7-1.2-0.9-1.9-0.6c-0.7,0.4-1,1.2-0.6,1.9c0.4,0.7,1.2,1,1.9,0.6
		C48.2,170.7,48.5,169.8,48.1,169.2z M52.9,170.4c-0.4-0.8-1.4-1.1-2.2-0.7c-0.8,0.4-1.1,1.4-0.7,2.2c0.4,0.8,1.4,1.1,2.2,0.7
		C53,172.2,53.3,171.2,52.9,170.4z M57.8,170.2c-0.5-0.9-1.6-1.2-2.5-0.7c-0.9,0.5-1.2,1.6-0.7,2.5c0.5,0.9,1.6,1.2,2.4,0.7
		C58,172.2,58.3,171.1,57.8,170.2z M69.1,154.4c0.6-0.3,0.8-1.1,0.5-1.7c-0.3-0.6-1.1-0.8-1.6-0.5c-0.6,0.3-0.8,1.1-0.5,1.6
		C67.8,154.5,68.5,154.7,69.1,154.4z M69.3,159.3c0.7-0.4,0.9-1.2,0.6-1.9c-0.4-0.7-1.2-0.9-1.9-0.6c-0.7,0.4-0.9,1.2-0.6,1.9
		C67.8,159.4,68.7,159.7,69.3,159.3z M68,164.1c0.8-0.4,1.1-1.4,0.7-2.2c-0.4-0.8-1.4-1.1-2.2-0.7c-0.8,0.4-1.1,1.4-0.7,2.2
		C66.3,164.2,67.3,164.5,68,164.1z M65.4,168.2c0.9-0.5,1.2-1.6,0.7-2.5c-0.5-0.9-1.6-1.2-2.5-0.7c-0.9,0.5-1.2,1.6-0.7,2.5
		C63.4,168.4,64.5,168.7,65.4,168.2z M100.7,161.3c-2.9,0-5.3-2.4-5.3-5.3c0-2.9,2.4-5.3,5.3-5.3c2.9,0,5.3,2.3,5.3,5.3
		C106,159,103.6,161.3,100.7,161.3z M80,115.7c0.3-1.6-0.7-3.1-2.2-3.5c-1.6-0.3-3.1,0.7-3.5,2.2c-0.3,1.6,0.7,3.1,2.2,3.5
		C78.1,118.3,79.6,117.3,80,115.7z M90.4,123.2c0.3-1.9-1-3.7-2.9-4c-1.9-0.3-3.7,1-4,2.9c-0.3,1.9,1,3.7,2.9,4
		C88.2,126.5,90.1,125.1,90.4,123.2z M98.8,132.9c0.3-2.4-1.5-4.6-3.9-4.8c-2.4-0.2-4.6,1.5-4.8,3.9c-0.3,2.4,1.5,4.6,3.9,4.8
		C96.3,137.1,98.5,135.3,98.8,132.9z M104,144.1c0.1-2.7-1.9-5-4.6-5.1c-2.7-0.1-5,1.9-5.1,4.6c-0.1,2.7,1.9,5,4.6,5.1
		C101.5,148.8,103.8,146.8,104,144.1z M55.6,108.8c0-1.2-1-2.1-2.1-2.1c-1.2,0-2.1,0.9-2.1,2.1c0,1.2,1,2.1,2.1,2.1
		C54.6,110.9,55.6,110,55.6,108.8z M76.5,194.1c-1.6,0.3-2.6,1.9-2.3,3.5c0.3,1.6,1.9,2.6,3.5,2.2c1.6-0.3,2.6-1.9,2.2-3.5
		C79.6,194.8,78.1,193.8,76.5,194.1z M86.3,186c-1.9,0.3-3.2,2.1-2.9,4c0.3,1.9,2.1,3.2,4,2.9c1.9-0.3,3.2-2.1,2.9-4
		C90.1,187,88.2,185.7,86.3,186z M93.9,175.3c-2.4,0.3-4.2,2.4-3.9,4.8c0.3,2.4,2.4,4.2,4.8,3.9c2.4-0.3,4.2-2.4,3.9-4.8
		C98.5,176.8,96.3,175,93.9,175.3z M98.9,163.4c-2.7,0.1-4.7,2.4-4.6,5.1c0.1,2.7,2.4,4.7,5.1,4.6c2.7-0.1,4.7-2.4,4.6-5.1
		C103.8,165.4,101.5,163.3,98.9,163.4z M53.5,201.2c-1.2,0-2.1,0.9-2.1,2.1c0,1.2,1,2.1,2.1,2.1c1.2,0,2.1-0.9,2.1-2.1
		C55.6,202.1,54.6,201.2,53.5,201.2z M6.2,161.3c2.9,0,5.3-2.4,5.3-5.3c0-2.9-2.4-5.3-5.3-5.3c-2.9,0-5.3,2.3-5.3,5.3
		C0.9,159,3.3,161.3,6.2,161.3z M30.5,118c1.6-0.3,2.6-1.9,2.2-3.5c-0.3-1.6-1.9-2.6-3.5-2.2c-1.6,0.3-2.6,1.9-2.2,3.5
		C27.3,117.3,28.9,118.3,30.5,118z M20.6,126.1c1.9-0.3,3.2-2.1,2.9-4.1c-0.3-1.9-2.1-3.2-4-2.9c-1.9,0.3-3.2,2.1-2.9,4
		C16.9,125.1,18.7,126.5,20.6,126.1z M13,136.8c2.4-0.3,4.2-2.4,3.9-4.8c-0.3-2.4-2.4-4.2-4.8-3.9c-2.4,0.3-4.2,2.4-3.9,4.8
		C8.4,135.3,10.6,137.1,13,136.8z M8.1,148.7c2.7-0.1,4.7-2.4,4.6-5.1c-0.1-2.7-2.4-4.7-5.1-4.6c-2.7,0.1-4.7,2.4-4.6,5.1
		C3.1,146.8,5.4,148.8,8.1,148.7z M27,196.4c-0.3,1.6,0.7,3.1,2.2,3.5c1.6,0.3,3.1-0.7,3.5-2.2c0.3-1.6-0.7-3.1-2.2-3.5
		C28.9,193.8,27.3,194.8,27,196.4z M16.6,188.9c-0.3,1.9,1,3.7,2.9,4c1.9,0.3,3.7-1,4-2.9c0.3-1.9-1-3.7-2.9-4
		C18.7,185.7,16.9,187,16.6,188.9z M8.2,179.2c-0.3,2.4,1.5,4.6,3.9,4.8c2.4,0.3,4.6-1.5,4.8-3.9c0.3-2.4-1.5-4.6-3.9-4.8
		C10.6,175,8.4,176.8,8.2,179.2z M3,168c-0.1,2.7,1.9,5,4.6,5.1c2.7,0.1,5-1.9,5.1-4.6c0.1-2.7-1.9-5-4.6-5.1
		C5.4,163.3,3.1,165.4,3,168z M65.1,199.5c-1.2,0.3-1.9,1.6-1.6,2.8c0.3,1.2,1.6,1.9,2.8,1.6c1.2-0.3,1.9-1.6,1.6-2.8
		C67.6,199.9,66.3,199.2,65.1,199.5z M41.8,199.5c-1.2-0.3-2.5,0.4-2.8,1.6c-0.3,1.2,0.4,2.5,1.6,2.8c1.2,0.3,2.5-0.4,2.8-1.6
		C43.8,201.1,43.1,199.8,41.8,199.5z M67.9,111c0.3-1.2-0.4-2.5-1.6-2.8c-1.2-0.3-2.5,0.4-2.8,1.6c-0.3,1.2,0.4,2.5,1.6,2.8
		C66.3,113,67.6,112.2,67.9,111z M43.5,109.8c-0.3-1.2-1.6-1.9-2.8-1.6c-1.2,0.3-1.9,1.6-1.6,2.8c0.3,1.2,1.6,1.9,2.8,1.6
		C43.1,112.3,43.8,111.1,43.5,109.8z M89,145.2c-2.1,0.9-4.5-0.1-5.4-2.2c-0.9-2.1,0.1-4.5,2.2-5.4c2.1-0.9,4.5,0.1,5.4,2.2
		C92,141.9,91.1,144.3,89,145.2z M60,119c-0.3-1.2-1.4-2-2.7-1.8c-1.2,0.2-2,1.4-1.8,2.7c0.2,1.2,1.4,2,2.7,1.8
		C59.4,121.4,60.2,120.2,60,119z M69.8,121.1c-0.4-1.5-1.9-2.4-3.4-2c-1.5,0.4-2.4,1.9-2,3.4c0.4,1.5,1.9,2.4,3.4,2
		C69.3,124.1,70.1,122.6,69.8,121.1z M78.8,125.4c-0.6-1.8-2.5-2.8-4.3-2.3c-1.8,0.6-2.8,2.5-2.3,4.3c0.6,1.8,2.5,2.8,4.3,2.3
		C78.3,129.2,79.3,127.3,78.8,125.4z M86,131.9c-0.7-2-2.9-3-4.9-2.2c-2,0.7-3,2.9-2.2,4.9c0.7,2,2.9,3,4.9,2.2
		C85.7,136,86.7,133.8,86,131.9z M40.4,121.5c-0.4-0.9-1.3-1.2-2.2-0.9c-0.8,0.4-1.2,1.3-0.9,2.2c0.4,0.8,1.3,1.2,2.2,0.9
		C40.4,123.3,40.8,122.4,40.4,121.5z M81.7,176.2c-1,0.7-1.3,2.1-0.5,3.2c0.7,1,2.1,1.3,3.2,0.5c1-0.7,1.3-2.1,0.5-3.2
		C84.2,175.7,82.8,175.5,81.7,176.2z M86.3,167.3c-1.3,0.8-1.7,2.5-0.9,3.8c0.8,1.3,2.5,1.7,3.8,0.9c1.3-0.8,1.7-2.5,0.9-3.8
		C89.3,166.9,87.6,166.5,86.3,167.3z M88.4,157.3c-1.7,0.9-2.2,3-1.3,4.7c0.9,1.7,3,2.2,4.7,1.3c1.7-0.9,2.2-3,1.3-4.7
		C92.2,157,90.1,156.4,88.4,157.3z M88.3,147.3c-1.9,0.9-2.6,3.2-1.7,5.1c0.9,1.9,3.2,2.6,5.1,1.7c1.9-0.9,2.7-3.2,1.7-5.1
		C92.4,147.2,90.2,146.4,88.3,147.3z M67.4,188.4c-0.8,0.4-1.2,1.3-0.9,2.2c0.4,0.8,1.3,1.2,2.2,0.9c0.8-0.4,1.2-1.3,0.9-2.2
		C69.2,188.4,68.3,188,67.4,188.4z M21.2,174.5c2.1-0.9,3.1-3.3,2.1-5.4c-0.9-2.1-3.3-3.1-5.4-2.2c-2.1,0.9-3.1,3.3-2.2,5.4
		C16.7,174.4,19.2,175.4,21.2,174.5z M25.2,135.9c1-0.7,1.3-2.1,0.5-3.2c-0.7-1-2.1-1.3-3.2-0.5c-1,0.7-1.3,2.1-0.5,3.2
		C22.8,136.4,24.2,136.6,25.2,135.9z M20.7,144.8c1.3-0.8,1.7-2.5,0.9-3.8c-0.8-1.3-2.5-1.7-3.8-0.9c-1.3,0.8-1.7,2.5-0.9,3.8
		C17.7,145.2,19.4,145.6,20.7,144.8z M18.5,154.8c1.7-0.9,2.2-3,1.3-4.7c-0.9-1.7-3-2.2-4.7-1.3c-1.7,0.9-2.2,3-1.3,4.7
		C14.8,155.1,16.9,155.7,18.5,154.8z M18.7,164.8c1.9-0.9,2.6-3.2,1.7-5.1c-0.9-1.9-3.2-2.7-5.1-1.7c-1.9,0.9-2.6,3.2-1.7,5.1
		C14.5,165,16.8,165.7,18.7,164.8z M47,193.1c0.2,1.2,1.4,2,2.7,1.8c1.2-0.2,2-1.4,1.8-2.7c-0.2-1.2-1.4-2-2.7-1.8
		C47.5,190.7,46.7,191.9,47,193.1z M37.2,191c0.4,1.5,1.9,2.4,3.4,2c1.5-0.4,2.4-1.9,2-3.4c-0.4-1.5-1.9-2.4-3.4-2
		C37.7,188,36.8,189.5,37.2,191z M28.2,186.7c0.6,1.8,2.5,2.8,4.3,2.3c1.8-0.6,2.8-2.5,2.3-4.3c-0.6-1.8-2.5-2.8-4.3-2.3
		C28.6,182.9,27.6,184.8,28.2,186.7z M21,180.3c0.7,2,2.9,3,4.9,2.2c2-0.7,3-2.9,2.2-4.9c-0.7-2-2.9-3-4.9-2.2
		C21.3,176.1,20.2,178.3,21,180.3z M75.2,183.6c-0.8,0.6-0.9,1.7-0.3,2.5c0.6,0.8,1.7,0.9,2.5,0.3c0.8-0.6,0.9-1.7,0.3-2.5
		C77.1,183.1,76,183,75.2,183.6z M58.6,190.8c-1,0.1-1.6,1-1.5,2c0.1,1,1,1.6,2,1.5c1-0.1,1.7-1,1.5-2
		C60.4,191.3,59.5,190.6,58.6,190.8z M49.9,119.3c-0.1-1-1-1.6-2-1.5c-1,0.1-1.6,1-1.5,2c0.1,1,1,1.6,2,1.5
		C49.4,121.2,50,120.3,49.9,119.3z M32,126c-0.6-0.8-1.7-0.9-2.5-0.3c-0.8,0.6-0.9,1.7-0.3,2.5c0.6,0.8,1.7,0.9,2.5,0.3
		C32.5,127.9,32.6,126.8,32,126z"/>
</g>
</svg>
