<?xml version="1.0" encoding="utf-8"?>
<!-- Generator: Adobe Illustrator 19.2.0, SVG Export Plug-In . SVG Version: 6.00 Build 0)  -->
<svg version="1.1"
	 id="logosvg.com" inkscape:version="0.92.4 (5da689c313, 2019-01-14)" sodipodi:docname="ViacomCBS Logo (RGB).svg" xmlns:cc="http://creativecommons.org/ns#" xmlns:dc="http://purl.org/dc/elements/1.1/" xmlns:inkscape="http://www.inkscape.org/namespaces/inkscape" xmlns:rdf="http://www.w3.org/1999/02/22-rdf-syntax-ns#" xmlns:sodipodi="http://sodipodi.sourceforge.net/DTD/sodipodi-0.dtd" xmlns:svg="http://www.w3.org/2000/svg"
	 xmlns="http://www.w3.org/2000/svg" xmlns:xlink="http://www.w3.org/1999/xlink" x="0px" y="0px" viewBox="0 0 274 171"
	 style="enable-background:new 0 0 274 171;" xml:space="preserve">
<style type="text/css">
	.st0{fill:#001884;}
	.st1{fill:#439CD6;}
</style>
<path id="viacom" inkscape:connector-curvature="0" class="st0" d="M177.4,85L177.4,85c0-4.4,1.6-9.6,4.2-12.6v-3.1h-9.5l-7.7,12.5
	l-7.7-12.5h-9.4v32.3h8.8V83.1l8.2,12.6h0.2l8.3-12.6v18.6h9v-4C179,94.7,177.4,89.5,177.4,85L177.4,85z M136.5,85.5L136.5,85.5
	c0-4.8-3.4-8.8-8.3-8.8c-4.9,0-8.2,4-8.2,8.7v0.1c0,4.6,3.4,8.8,8.3,8.8C133.2,94.1,136.5,90.1,136.5,85.5L136.5,85.5z M110.8,85.5
	L110.8,85.5c0-9.4,7.5-16.9,17.5-16.9s17.4,7.5,17.4,16.8v0.1c0,9.3-7.5,16.8-17.5,16.8S110.8,94.8,110.8,85.5L110.8,85.5z M81,85.5
	L81,85.5c0-9.5,7.2-16.9,17-16.9c6.6,0,10.9,2.8,13.7,6.7l-6.8,5.3c-1.8-2.3-4-3.8-7-3.8c-4.5,0-7.7,3.9-7.7,8.6v0.1
	c0,4.9,3.2,8.7,7.7,8.7c3.4,0,5.3-1.6,7.3-3.9l6.8,4.8c-3.1,4.2-7.2,7.3-14.3,7.3C88.5,102.3,81,95.2,81,85.5L81,85.5z M69.4,88.8
	l-3.6-9.2l-3.6,9.2H69.4z M61.6,69h8.7l13.8,32.6h-9.6l-2.3-5.8H59.6l-2.3,5.8h-9.4L61.6,69z M37.4,69.2h9v32.3h-9V69.2z M1.3,69.2
	h10l7.4,20.5L26,69.2h9.8l-13.1,32.6h-8.3L1.3,69.2"/>
<path id="cbs" class="st1" d="M181.6,85.5L181.6,85.5c0-9.5,7.2-16.9,17-16.9c6.6,0,10.9,2.8,13.7,6.7l-6.8,5.3
	c-1.8-2.3-4-3.8-7.1-3.8c-4.5,0-7.7,3.9-7.7,8.6v0.1c0,4.9,3.2,8.7,7.7,8.7c3.4,0,5.3-1.6,7.3-3.9l6.8,4.8
	c-3.1,4.2-7.2,7.3-14.3,7.3C189,102.3,181.6,95.2,181.6,85.5 M230.2,88.4h-6.8v5.9h7c2.8,0,4.3-1.1,4.3-2.9v-0.1
	C234.6,89.6,233.2,88.4,230.2,88.4L230.2,88.4z M233.3,79.2c0-1.8-1.4-2.8-4.1-2.8h-5.9v5.7h5.7C231.7,82.1,233.3,81.1,233.3,79.2
	L233.3,79.2L233.3,79.2z M214.6,69.2h16.6c4.1,0,6.9,1,8.8,2.9c1.4,1.4,2.1,3.3,2.1,5.3v0.1c0,3.8-2.1,5.9-5,7.2
	c3.9,1.3,6.4,3.5,6.4,7.9v0.1c0,5.5-4.5,9-12.2,9h-16.7V69.2 M244.4,96.8l5-5.9c3.2,2.5,6.8,3.9,10.5,3.9c2.5,0,3.8-0.8,3.8-2.3
	v-0.1c0-1.4-1.1-2.1-5.5-3.1c-6.9-1.6-12.2-3.5-12.2-10.1v-0.1c0-6,4.8-10.3,12.5-10.3c5.5,0,9.8,1.5,13.3,4.3l-4.5,6.4
	c-2.9-2.1-6.2-3.2-9.1-3.2c-2.2,0-3.2,0.9-3.2,2.1v0.1c0,1.5,1.1,2.1,5.7,3.1c7.4,1.6,12,4,12,10.1v0.1c0,6.6-5.2,10.5-13.1,10.5
	C253.8,102.2,248.4,100.3,244.4,96.8"/>
</svg>
