<?xml version="1.0" encoding="utf-8"?>
<!-- Generator: Adobe Illustrator 19.2.0, SVG Export Plug-In . SVG Version: 6.00 Build 0)  -->
<svg version="1.1" id="Capa_1" xmlns="http://www.w3.org/2000/svg" xmlns:xlink="http://www.w3.org/1999/xlink" x="0px" y="0px"
	 width="188.8px" height="26.8px" viewBox="0 0 188.8 26.8" style="enable-background:new 0 0 188.8 26.8;" xml:space="preserve">
<style type="text/css">
	.st0{fill:#2A7BA0;}
	.st1{fill:#FDCC10;}
	.st2{fill:#F78F20;}
	.st3{fill:#EB2227;}
</style>
<g>
	<g>
		<polygon class="st0" points="0,20.1 11.9,13.4 23.7,20.1 11.9,26.7 		"/>
		<polygon class="st1" points="5.9,3.3 0,6.7 5.9,10 11.9,6.7 		"/>
		<polygon class="st2" points="11.9,0 5.9,3.3 11.9,6.7 17.8,3.3 		"/>
		<polygon class="st3" points="17.8,3.3 11.9,6.7 17.8,10 23.7,6.7 		"/>
		<path class="st0" d="M35.7,23.2V3.3H39v19.9H35.7z"/>
		<path class="st0" d="M44.8,23.2V3.3h3.3l4.2,12.3V3.3h3v19.9h-3.1l-4.3-12.9v12.9H44.8z"/>
		<path class="st0" d="M84.3,6.2H81v17h-3.3v-17h-3.3V3.3h9.9V6.2z"/>
		<path class="st0" d="M96.4,23.2l-2.5-7.9h-1.7v7.9h-3.3V3.3H94c3,0,5,1.2,5,4.2v3.6c0,1.9-0.8,3.1-2.2,3.7l2.8,8.4H96.4z
			 M92.2,12.4h1.7c1.1,0,1.8-0.4,1.8-1.8V8c0-1.4-0.7-1.8-1.8-1.8h-1.7V12.4z"/>
		<path class="st0" d="M114.4,19.2c0,3.1-1.9,4.2-4.9,4.2h-0.1c-3,0-4.9-1.1-4.9-4.2V3.3h3.3v15.4c0,1.4,0.6,1.8,1.7,1.8
			c1.1,0,1.7-0.4,1.7-1.8V3.3h3.3L114.4,19.2z"/>
		<path class="st0" d="M130,19.2c0,3.1-2,4.2-5,4.2h-0.1c-3,0-5-1.1-5-4.2V7.3c0-3,2-4.2,5-4.2h0.1c3,0,5,1.2,5,4.2v2.3h-3.3V7.8
			c0-1.4-0.7-1.8-1.7-1.8c-1.1,0-1.7,0.4-1.7,1.8v10.9c0,1.4,0.7,1.8,1.7,1.8c1.1,0,1.7-0.4,1.7-1.8v-2.3h3.3V19.2z"/>
		<path class="st0" d="M144.1,6.2h-3.3v17h-3.3v-17h-3.3V3.3h9.9V6.2z"/>
		<path class="st0" d="M158.6,19.2c0,3.1-1.9,4.2-4.9,4.2h-0.1c-3,0-4.9-1.1-4.9-4.2V3.3h3.3v15.4c0,1.4,0.6,1.8,1.7,1.8
			s1.7-0.4,1.7-1.8V3.3h3.3V19.2z"/>
		<path class="st0" d="M171.7,23.2l-2.5-7.9h-1.6v7.9h-3.3V3.3h5.1c3,0,5,1.2,5,4.2v3.6c0,1.9-0.8,3.1-2.2,3.7l2.8,8.4H171.7z
			 M167.5,12.4h1.7c1.1,0,1.8-0.4,1.8-1.8V8c0-1.4-0.7-1.8-1.8-1.8h-1.7V12.4z"/>
		<path class="st0" d="M67.1,9.1V7.6c0-1.3-0.7-1.7-1.7-1.7c-1,0-1.7,0.5-1.7,1.7V9c0,1,0.3,1.5,1.3,2l2.3,1.3c1.9,1.1,3,2,3,4.1
			v2.9c0,3.1-1.9,4.1-4.9,4.1h-0.1c-3,0-4.9-1-4.9-4.1v-2.1h3.2v1.7c0,1.2,0.7,1.8,1.7,1.8c1,0,1.7-0.5,1.7-1.8v-1.6
			c0-1-0.3-1.5-1.3-2.1l-2.3-1.3c-1.9-1.1-3-2-3-4.1V7.2c0-2.9,2.2-4.1,4.9-4.1h0.1c2.7,0,4.9,1.1,4.9,4.1v1.9H67.1z"/>
		<polygon class="st0" points="179.9,23.2 179.9,3.3 188.6,3.3 188.6,6.2 183.2,6.2 183.2,11.7 187.7,11.7 187.7,14.6 183.2,14.6 
			183.2,20.3 188.7,20.3 188.7,23.2 		"/>
	</g>
</g>
</svg>
