<?xml version="1.0" encoding="utf-8"?>
<!-- Generator: Adobe Illustrator 19.2.0, SVG Export Plug-In . SVG Version: 6.00 Build 0)  -->
<svg version="1.1" id="Capa_1" xmlns="http://www.w3.org/2000/svg" xmlns:xlink="http://www.w3.org/1999/xlink" x="0px" y="0px"
	 width="120px" height="26.8px" viewBox="0 0 120 26.8" style="enable-background:new 0 0 120 26.8;" xml:space="preserve">
<style type="text/css">
	.st0{fill:#BA2434;}
</style>
<g>
	<polygon points="69.6,0.3 59.5,26.2 57.8,26.2 68,0.3 	"/>
	<polygon class="st0" points="0,0.1 26,0.1 26,26.6 0,26.6 	"/>
	<path d="M111.4,17l-2.9-9.1l-2.9,9.1H111.4L111.4,17z M111.4,0.7l8.9,25.3H120h-5.9l-1.5-4.8h-8.2l-1.5,4.8h-0.3h-5.9l8.8-25.3h0.3
		L111.4,0.7L111.4,0.7z"/>
	<path d="M93,12.3V26h-0.3h-4.1v-2.4c-0.6,0.9-1.4,1.6-2.1,2c-0.8,0.5-1.6,0.7-2.4,0.9c-0.4,0.1-0.8,0.1-1.2,0.1
		c-0.4,0.1-0.8,0.1-1.2,0.1l-0.3,0.1l-0.1-0.1c0,0,0,0-0.1,0c-0.5,0-1.2-0.1-2.3-0.1c-1-0.1-2.1-0.4-3.3-1c-1.5-0.7-2.9-2-4.1-3.9
		c-1.2-1.9-1.9-4.7-1.9-8.5c0-4,1-7.1,3-9.6c2-2.4,5.1-3.7,9.4-3.7h0.3c2.4,0,4.3,0.5,5.7,1.4c1.4,1,2.4,2,3.1,3.1
		c0.6,1,1,1.9,1.2,2.8c0.2,0.8,0.3,1.4,0.3,1.6h-0.3h-5.8c-0.1-1-0.4-1.9-1.1-2.7C84.9,5.4,83.8,5,82.3,5c-1.8,0-3.2,0.5-4,1.5
		s-1.4,2.1-1.7,3.2c-0.2,0.7-0.3,1.4-0.4,2.1c-0.1,0.7-0.1,1.2-0.1,1.7c0,2.8,0.5,4.9,1.6,6.1c1.1,1.2,2.3,2,3.5,2.2
		c0.2,0.1,0.3,0.1,0.5,0.1c0.1,0,0.3,0,0.5,0c1.6-0.1,2.9-0.6,3.8-1.5s1.4-2.1,1.5-3.5h-4.7v-4.6h0.3L93,12.3L93,12.3z"/>
	<path d="M38.6,12.1h4.8h0.1c0,0,0,0,0.1,0c0.8,0,1.7-0.3,2.4-0.7c0.7-0.5,1.1-1.3,1.1-2.5c0-1.4-0.4-2.2-1.1-2.6
		c-0.7-0.5-1.6-0.6-2.7-0.6h-4.6V12.1L38.6,12.1z M32.8,0.7h0.3h12.1c2.8,0,4.9,0.7,6,2.2C52.4,4.3,53,6,53,7.9c0,1.7-0.3,3-1,3.9
		c-0.6,1-1.4,1.6-2.1,2.1c-0.1,0.1-0.3,0.2-0.5,0.2c-0.1,0.1-0.3,0.1-0.4,0.1v0.1c1.2,0.4,2.1,1,2.5,1.9c0.5,0.9,0.7,1.8,0.8,2.8
		c0,0.3,0.1,0.5,0.1,0.8c0,0.3,0,0.5,0,0.8c0,1.5,0.1,2.6,0.1,3.3c0.1,0.7,0.3,1.3,0.6,1.8c0,0.1,0.1,0.1,0.1,0.2
		c0.1,0.1,0.1,0.1,0.1,0.2H53h-5.7c-0.3-0.5-0.6-1.2-0.7-1.9s-0.2-1.9-0.3-3.5c0-0.1,0-0.3,0-0.4s0-0.3,0-0.4
		c-0.1-0.8-0.3-1.5-0.8-2.2s-1.5-1-3-1h-4V26h-0.3h-5.5V0.7L32.8,0.7z"/>
</g>
</svg>
