<?xml version="1.0" encoding="utf-8"?>
<!-- Generator: Adobe Illustrator 19.2.0, SVG Export Plug-In . SVG Version: 6.00 Build 0)  -->
<svg version="1.1" id="Capa_1" xmlns="http://www.w3.org/2000/svg" xmlns:xlink="http://www.w3.org/1999/xlink" x="0px" y="0px"
	 width="215.2px" height="48.6px" viewBox="0 0 215.2 48.6" style="enable-background:new 0 0 215.2 48.6;" xml:space="preserve">
<style type="text/css">
	.st0{fill:#00498F;}
	.st1{fill:#FFFFFF;}
</style>
<g>
	<g>
		<polyline class="st0" points="83.8,36.8 87.9,36.8 87.9,11.1 83.6,11.1 83.6,36.8 83.8,36.8 		"/>
		<polyline class="st0" points="92.3,36.8 96.4,36.8 96.4,11.1 92.1,11.1 92.1,36.8 92.3,36.8 		"/>
		<path class="st0" d="M160.7,44.7c2.7,0.4,5-0.6,6.6-2.1c2.2-2.1,3.6-4.8,6-11.2l4.5-12l0.1-0.3h-4.3l0,0.1l-4.1,11.9l-4.3-11.9
			l0-0.1h-4.7l0.1,0.3l6.7,16.9c-0.5,1.5-1.4,2.8-2.3,3.6c-1.1,1-2.6,1.5-4.2,1.2L160.7,44.7"/>
		<path class="st0" d="M151.6,18.7c-5.3,0-9,3.8-9,9.3c0,5.6,3.6,9.3,9,9.3c5.4,0,8.9-3.8,8.9-9.3C160.5,22.5,156.9,18.7,151.6,18.7
			z M151.5,33.8c-2.7,0-4.7-2.3-4.7-5.9c0-3.6,2-5.9,4.7-5.9c2.7,0,4.7,2.3,4.7,5.9C156.2,31.5,154.2,33.8,151.5,33.8"/>
		<path class="st0" d="M71.8,18.6c-5.5,0-8.9,3.8-8.9,9.3c0,5.6,3.5,9.3,8.9,9.3c5.4,0,8.9-3.8,8.9-9.3
			C80.7,22.4,77.3,18.6,71.8,18.6z M71.8,33.8c-2.7,0-4.7-2.3-4.7-5.9c0-3.6,2-5.9,4.7-5.9c2.7,0,4.7,2.3,4.7,5.9
			C76.5,31.4,74.5,33.8,71.8,33.8"/>
		<rect x="113" y="23.4" class="st0" width="8.4" height="3.2"/>
		<path class="st0" d="M59.9,29.4c0.9,2.8,1.4,5.6,1.7,7.3l-4.6,0c-0.3-1.5-0.5-3.5-1.3-5.9c-0.9-2.9-2.1-4.3-4.8-4.3h-2.1v10.1
			h-4.3V12.1c0.9,0,2-0.1,3.1-0.1c1.1,0,2.3,0,3.5,0c3.5,0,5.8,0.7,7.4,2.1c1.3,1.1,2.1,2.9,2.1,4.9c0,3.3-1.9,5.1-4,6
			C58.2,25.7,59.2,27,59.9,29.4z M51.6,15.6c-0.6,0-1.1,0-1.4,0c-0.6,0-1,0-1.3,0v7.8h2.5c3,0,5-1.5,5-3.9
			C56.4,16.9,54.7,15.6,51.6,15.6"/>
		<path class="st0" d="M139.9,29.4c0.9,2.8,1.4,5.6,1.7,7.3l-4.6,0c-0.3-1.5-0.5-3.5-1.3-5.9c-0.9-2.9-2.1-4.3-4.8-4.3h-2.1v10.1
			h-4.3V12.1c0.9,0,2-0.1,3.1-0.1c1.1,0,2.3,0,3.5,0c3.5,0,5.8,0.7,7.4,2.1c1.3,1.1,2.1,2.9,2.1,4.9c0,3.3-1.9,5.1-4,6
			C138.1,25.7,139.1,27,139.9,29.4z M131.6,15.6c-0.6,0-1.1,0-1.4,0c-0.6,0-1,0-1.3,0v7.8h2.5c3,0,5-1.5,5-3.9
			C136.3,16.9,134.7,15.6,131.6,15.6"/>
		<path class="st0" d="M100.3,32.8c1,0.6,2.8,1.2,4.4,1.2c2.1,0,3-0.7,3-2c0-1.3-0.7-1.9-2.9-2.7c-3.3-1.2-4.8-3.1-4.8-5.2
			c0-3,2.5-5.4,6.4-5.4c1.9,0,3.5,0.6,4.5,1.2l-0.8,2.9c-1-0.4-2.1-0.8-3.7-0.8c-1.6,0-2.3,0.8-2.3,1.8c0,1.2,1.2,1.9,2.8,2.5
			c3.2,1.1,4.9,2.8,4.9,5.5c0,3.2-2.7,5.5-7.1,5.5c-2,0-3.9-0.4-5.2-1.3L100.3,32.8"/>
		<path class="st0" d="M191.7,36.2c-0.9,0.4-2.7,1-5,1c-5.1,0-9-3.6-9-9c0-5.3,3.5-9.4,9.7-9.4c1.8,0,3.4,0.5,4.4,0.9l-0.8,3.1
			c-0.8-0.4-1.9-0.6-3.5-0.6c-3.6,0-5.4,2.4-5.3,5.8c0,3.8,2.1,5.9,5.3,5.9c1.6,0,2.8-0.4,3.7-0.8L191.7,36.2"/>
		<path class="st0" d="M196.8,28.9c0.1,3.6,2.3,4.9,5.3,4.9c2.1,0,3.6-0.4,4.9-0.8l0.6,3c-1.4,0.6-3.4,1.2-6.1,1.2
			c-5.6,0-8.9-3.7-8.9-9c0-5,3-9.5,8.5-9.5c5.7,0,7.5,4.8,7.5,8.4c0,0.8,0,1.4-0.1,1.8L196.8,28.9z M204.6,25.9
			c0-1.8-0.5-4.1-3.7-4.1c-3,0-3.8,2.2-4,4.1H204.6"/>
		<path class="st1" d="M1.4,4.2c0-1.5,1.2-2.8,2.8-2.8h21.4c1.6,0,2.8,1.2,2.8,2.8v40.2c0,1.5-1.2,2.8-2.8,2.8H4.2
			c-1.5,0-2.8-1.2-2.8-2.8L1.4,4.2"/>
		<path class="st0" d="M2.6,8.9V4.2c0-0.9,0.7-1.6,1.6-1.6h21.4c0.9,0,1.6,0.7,1.6,1.6v4.7L2.6,8.9"/>
		<rect x="2.6" y="10.1" class="st0" width="24.6" height="28.4"/>
		<path class="st0" d="M1.4,4.2c0-1.5,1.2-2.8,2.8-2.8h21.4c1.6,0,2.8,1.2,2.8,2.8v40.2c0,1.5-1.2,2.8-2.8,2.8H4.2
			c-1.5,0-2.8-1.2-2.8-2.8L1.4,4.2L1.4,4.2z M29.8,4.2c0-2.3-1.9-4.2-4.2-4.2H4.2C1.9,0,0,1.9,0,4.2v40.2c0,2.3,1.9,4.2,4.2,4.2
			h21.4c2.3,0,4.2-1.9,4.2-4.2L29.8,4.2"/>
		<path class="st0" d="M2.6,39.7v4.7c0,0.9,0.7,1.6,1.6,1.6h21.4c0.9,0,1.6-0.7,1.6-1.6v-4.7H2.6"/>
		<path class="st1" d="M13.1,34v-6.3c0.6,0,1.2,0,1.8-0.1c-0.2-0.5-0.4-1-0.7-1.5c-0.4,0-0.7,0-1.1,0.1v-1.3
			c-0.8,0.2-1.7,0.3-2.6,0.4V34c0,1.9-0.9,2.4-1.4,2.8h5.5C14,36.4,13.1,35.9,13.1,34"/>
		<path class="st1" d="M25.9,36.8c-0.4-0.4-1-1.1-1.3-2.4c-0.5-2.4-1.6-5.8-3.9-8.3c2.2-1.2,3.6-3.1,3.6-5.5c0-1.7-0.8-3.5-2.4-4.5
			c-0.7-0.4-1.4-0.7-2.3-0.9c0.3,0.7,0.5,1.5,0.6,2.2c1,0.8,1.5,1.9,1.5,3.3c0,1.8-0.9,3.8-4,4.9c0.3,0.5,0.5,1,0.7,1.5
			c0.2,0,0.3-0.1,0.5-0.1c1.5,1.7,2.6,4.3,3,6.8c0.3,1.8-0.4,2.7-0.8,3.1H25.9"/>
		<path class="st1" d="M20.4,33.9c-0.5-0.4-1-1.1-1.3-2.4c-0.5-2.4-1.6-5.7-3.6-8.1c0.1,0,0.2-0.1,0.3-0.1c2.3-1.2,3.8-3.2,3.8-5.6
			c0-1.7-0.8-3.5-2.4-4.5c-1.2-0.8-2.9-1.2-5-1.2H4.3c0.5,0.4,1.4,0.9,1.4,2.8v16.3c0,2-0.9,2.4-1.4,2.8h5.5
			c-0.5-0.4-1.4-0.8-1.4-2.8v-6.3c1.9,0,3.7-0.2,5.3-0.6c1.4,1.7,2.4,4.3,2.7,6.6c0.2,1.8-0.4,2.7-0.8,3.1
			C15.6,33.9,20.4,33.9,20.4,33.9z M8.4,23.4v-9.9h3.7c1.4,0,2.4,0.3,3.2,0.9c1.1,0.7,1.6,1.9,1.6,3.4C16.9,20.2,15.2,23.2,8.4,23.4
			"/>
		<path class="st1" d="M13.1,21.9v-5.6h3c-0.2-0.6-0.6-1.1-1.1-1.5H9.1c0.5,0.4,1.4,0.8,1.4,2.8v4.9C11.5,22.5,12.4,22.2,13.1,21.9"
			/>
		<path class="st1" d="M18.5,42.9c0,0.8,0.5,1.4,1.3,1.4c0.6,0,1.1-0.2,1.4-0.4L21,44.8c-0.2,0.1-0.6,0.2-1.2,0.2
			c-1.3,0-2.2-0.8-2.2-2.1c0-0.7,0.3-1.2,0.7-1.6c0.4-0.3,0.9-0.5,1.5-0.5c0.6,0,1,0.1,1.2,0.2v0.9c-0.3-0.3-0.6-0.4-1.2-0.4
			C19,41.4,18.5,42.1,18.5,42.9"/>
		<path class="st1" d="M7.9,43.9c-0.2-0.4-0.4-0.7-0.6-0.8c0.6-0.1,0.9-0.5,0.9-1c0-0.5-0.2-0.9-0.7-1.1c-0.3-0.1-0.6-0.1-1.1-0.1
			h-2c0.2,0.1,0.3,0.5,0.3,0.9V44c0,0.3-0.1,0.8-0.3,0.9h1.5c-0.2-0.1-0.3-0.6-0.3-0.9v-0.7h0.6c0.3,0,0.5,0.1,0.7,0.4
			C7,44,7.1,44.5,7.4,44.9l1.2,0C8.2,44.6,8.1,44.3,7.9,43.9z M7.3,42.1c0,0.4-0.3,0.6-0.8,0.6H5.5v-1.1h0.9
			C7,41.5,7.3,41.7,7.3,42.1"/>
		<path class="st1" d="M10.1,43.9c-0.2-0.2-0.4-0.6-0.4-1.1c0-0.5,0.1-0.8,0.4-1.1c0.2-0.2,0.5-0.3,0.9-0.3c0.4,0,0.6,0.1,0.8,0.3
			c0.2,0.2,0.4,0.6,0.4,1.1c0,0.5-0.1,0.8-0.4,1.1c-0.2,0.2-0.5,0.4-0.8,0.4C10.6,44.3,10.4,44.1,10.1,43.9z M11,45
			c0.6,0,1-0.2,1.4-0.5c0.4-0.4,0.7-0.9,0.7-1.6c0-0.8-0.3-1.3-0.7-1.7c-0.4-0.3-0.8-0.4-1.4-0.4c-0.5,0-1,0.2-1.4,0.4
			c-0.4,0.4-0.7,0.9-0.7,1.7c0,0.8,0.3,1.3,0.7,1.6C10,44.8,10.5,45,11,45"/>
		<path class="st1" d="M16.3,40.9c0.1,0.1,0.1,0.1,0.1,0.2c0,0.1,0,0.2-0.1,0.4l-0.8,1.2l-0.8-1.2c-0.1-0.1-0.2-0.3-0.2-0.4
			c0-0.1,0-0.1,0.1-0.2H13c0.3,0.1,0.4,0.3,0.6,0.6l1.3,1.9V44c0,0.3-0.1,0.8-0.3,0.9h1.5c-0.2-0.1-0.3-0.5-0.3-0.9v-0.7l1.2-1.7
			c0.2-0.2,0.4-0.7,0.7-0.8L16.3,40.9"/>
		<path class="st1" d="M24.1,44.2h-1v-1.1h1.6l0.1-0.6H23v-1h0.9c0.5,0,0.9,0,1.2,0.2v-0.9h-3.2c0.2,0.1,0.3,0.6,0.3,0.9V44
			c0,0.4-0.1,0.8-0.3,0.9h3.2l0.1-1C25,44.2,24.6,44.2,24.1,44.2"/>
		<path class="st1" d="M22,6.6c0.1,0.1,0.3,0.3,0.4,0.4c0.4,0.2,0.8,0.3,1.1,0.3c0.6,0,0.9-0.3,0.9-0.6c0-0.4-0.4-0.5-1.1-0.6
			c-0.9-0.1-1.3-0.5-1.3-1.2c0-0.7,0.7-1.2,1.6-1.2c0.7,0,1.1,0.1,1.4,0.3v0.9c-0.1-0.2-0.3-0.3-0.5-0.4c-0.3-0.1-0.6-0.1-0.9-0.1
			c-0.5,0-0.8,0.2-0.8,0.4c0,0.4,0.4,0.4,1.2,0.6c0.8,0.2,1.3,0.5,1.3,1.2c0,0.8-0.7,1.4-1.9,1.4c-0.5,0-1.2-0.1-1.6-0.3L22,6.6"/>
		<path class="st1" d="M8,6.8C7.8,6.4,7.7,6.1,7.4,6c0.7-0.1,1-0.5,1-1.1c0-0.5-0.2-1-0.7-1.1C7.4,3.6,7,3.6,6.5,3.6H4.3
			c0.2,0.1,0.3,0.6,0.3,0.9V7c0,0.4-0.1,0.8-0.3,0.9h1.6C5.7,7.8,5.5,7.3,5.5,7V6.2h0.7c0.3,0,0.5,0.1,0.7,0.4
			C7.1,7,7.3,7.5,7.5,7.9h1.2C8.4,7.6,8.2,7.2,8,6.8z M7.4,4.9c0,0.4-0.4,0.6-0.9,0.6h-1V4.3h1C7.1,4.3,7.4,4.5,7.4,4.9"/>
		<path class="st1" d="M10.4,6.9c-0.3-0.2-0.4-0.6-0.4-1.1c0-0.5,0.1-0.9,0.4-1.1c0.2-0.2,0.5-0.4,0.9-0.4c0.4,0,0.7,0.1,0.9,0.4
			c0.3,0.3,0.4,0.6,0.4,1.1c0,0.5-0.1,0.9-0.4,1.1c-0.2,0.2-0.5,0.4-0.9,0.4C10.9,7.2,10.6,7.1,10.4,6.9z M11.3,8
			c0.6,0,1.1-0.2,1.5-0.5c0.4-0.4,0.8-0.9,0.8-1.7c0-0.8-0.3-1.4-0.8-1.7c-0.4-0.3-0.9-0.5-1.5-0.5c-0.6,0-1.1,0.2-1.5,0.5
			C9.4,4.4,9.1,5,9.1,5.8c0,0.8,0.3,1.4,0.8,1.7C10.2,7.8,10.8,8,11.3,8"/>
		<path class="st1" d="M17.4,6.8c-0.2,0.3-0.7,0.4-1.3,0.4h-0.8V4.6c0-0.4,0.1-0.8,0.3-0.9h-1.5c0.2,0.1,0.3,0.6,0.3,0.9V7
			c0,0.4-0.1,0.8-0.3,0.9h3.2L17.4,6.8"/>
		<path class="st1" d="M21.3,6.8C21,7.1,20.5,7.2,20,7.2h-0.8V4.6c0-0.4,0.1-0.8,0.3-0.9h-1.5c0.2,0.1,0.3,0.6,0.3,0.9V7
			c0,0.4-0.1,0.8-0.3,0.9h3.1L21.3,6.8"/>
	</g>
	<path class="st0" d="M210.2,18.6c0-1.3,1-2.3,2.2-2.3c1.2,0,2.2,1,2.2,2.3c0,1.3-1,2.3-2.2,2.3C211.2,20.9,210.2,19.9,210.2,18.6z
		 M212.4,21.3c1.5,0,2.8-1.2,2.8-2.8c0-1.6-1.3-2.7-2.8-2.7c-1.5,0-2.8,1.2-2.8,2.7C209.6,20.2,210.9,21.3,212.4,21.3z M211.9,18.8
		h0.6l0.8,1.4h0.5l-0.9-1.4c0.5-0.1,0.8-0.3,0.8-0.9c0-0.6-0.4-0.9-1.1-0.9h-1.2v3.2h0.5V18.8z M211.9,18.4v-1h0.7
		c0.3,0,0.7,0.1,0.7,0.5c0,0.5-0.4,0.5-0.8,0.5H211.9z"/>
</g>
</svg>
