<?xml version="1.0" encoding="utf-8"?>
<!-- Generator: Adobe Illustrator 19.2.0, SVG Export Plug-In . SVG Version: 6.00 Build 0)  -->
<svg version="1.1" id="layer" xmlns="http://www.w3.org/2000/svg" xmlns:xlink="http://www.w3.org/1999/xlink" x="0px" y="0px"
	 viewBox="0 0 274 171" style="enable-background:new 0 0 274 171;" xml:space="preserve">
<style type="text/css">
	.st0{fill:#F0C931;}
	.st1{fill:none;}
</style>
<g>
	<polygon points="21.9,100 14.1,91.2 13.8,91.2 11.6,92.7 8.7,100 2.4,100 13.9,71.7 20.1,71.7 14.2,86.3 14.5,86.3 31.1,76.4 
		39.9,76.4 19.1,88.1 19.1,88.3 30.6,100 	"/>
	<path d="M52.2,95.3H39.6l1.9-4.7h12.5L52.2,95.3z M56.5,100l7.6-18.8c0,0,1.9-4.7-4.4-4.7H47.2c0,0-6.3,0-8.2,4.7h18.8L56,85.8
		H43.4c-6.3,0-8.2,4.7-8.2,4.7l-1.9,4.7c0,0-2,4.7,4.4,4.7H56.5z"/>
	<path d="M83.2,95.3H70.7l5.7-14.1h12.5L83.2,95.3z M89.5,95.3l5.7-14.1c0,0,1.9-4.7-4.4-4.7H72L59.6,107h6.3l2.9-7.1h12.5
		C81.3,100,87.6,100,89.5,95.3"/>
	<path d="M111,100H98.4c-6.3,0-4.4-4.7-4.4-4.7h18.8l1.9-4.7h-12.5c-6.3,0-4.4-4.7-4.4-4.7l1.9-4.7c1.9-4.7,8.2-4.7,8.2-4.7h12.5
		c6.3,0,4.4,4.7,4.4,4.7h-18.8l-1.9,4.7h12.5c0,0,6.3,0,4.4,4.7l-1.9,4.7C119.1,95.3,117.2,100,111,100"/>
	<path d="M140.9,100h-12.5c-6.3,0-4.4-4.7-4.4-4.7l5.7-14.1c1.9-4.7,8.2-4.7,8.2-4.7h12.5c6.3,0,4.4,4.7,4.4,4.7l-1,2.4h-6.3l1-2.4
		h-12.5l-5.7,14.1h12.5l1-2.4h6.3l-1,2.4C147.1,100,140.9,100,140.9,100"/>
	<path d="M171.1,100l7.6-18.8h-12.5l-7.6,18.8h-6.3l11.4-28.3h6.3l-1.9,4.7h12.5c6.3,0,4.4,4.7,4.4,4.7l-7.6,18.8H171.1z"/>
	<path class="st0" d="M219.4,72.1L203.3,64l-2,4.6l12.9,6l-18.9,8.1l-2.3,5.5l25.1-11C221.5,75.8,222.2,73.4,219.4,72.1"/>
	<path class="st0" d="M244.1,72.1L228,64l-2,4.6l12.9,6l-18.9,8.1l-2.3,5.5l25.1-11C246.2,75.8,246.9,73.4,244.1,72.1"/>
	<path d="M268.8,72.1L252.7,64l-2,4.6l12.9,6l-18.9,8.1l-2.3,5.5l25.1-11C270.8,75.8,271.6,73.4,268.8,72.1"/>
	<rect x="2.4" y="64" class="st1" width="269.1" height="43.1"/>
</g>
</svg>
