<?xml version="1.0" encoding="UTF-8"?>
<svg width="136.17" height="66" version="1.1" viewBox="0 0 136.17 66" xmlns="http://www.w3.org/2000/svg" xmlns:cc="http://creativecommons.org/ns#" xmlns:dc="http://purl.org/dc/elements/1.1/" xmlns:rdf="http://www.w3.org/1999/02/22-rdf-syntax-ns#">
 <metadata>
  <rdf:RDF>
   <cc:Work rdf:about="">
    <dc:format>image/svg+xml</dc:format>
    <dc:type rdf:resource="http://purl.org/dc/dcmitype/StillImage"/>
    <dc:title/>
   </cc:Work>
  </rdf:RDF>
 </metadata>
 <defs>
  <style>.a{fill:#093145;}.b{fill:#bd8f3c;}</style>
 </defs>
 <path class="a" transform="translate(0,-24.154)" d="m111.62 49.9h-2.688l7.228 16.98h2.771l7.213-16.98h-2.673l-5.918 13.987zm-18.078 14.555c-2.079 0-3.163-0.97-3.261-2.91l12.248-2.75q2.492-0.519 2.492-4.045 0-4.852-5.737-4.85h-5.737q-5.742 0-5.737 5.66v5.66q0 5.657 5.737 5.66h5.737q5.742 0 5.737-5.66h-2.461q0 3.235-3.281 3.235zm5.737-12.13q3.281 0 3.281 3.235a0.848 0.848 0 0 1-0.671 0.841l-11.624 2.636v-3.477q0-3.235 3.281-3.235zm-18.672 5.66v8.895h2.456v-8.895q0-8.087-8.2-8.085h-9.017v16.98h2.461v-14.555h6.558q5.742 0 5.742 5.66m-22.361 0v8.895h2.461v-8.895q0-8.087-8.2-8.085h-9.017v16.98h2.461v-14.555h6.558q5.735 0 5.737 5.66m-30.559 6.47q-3.111 0-3.261-2.91l12.248-2.75q2.492-0.519 2.492-4.045 0-4.852-5.737-4.85h-5.742q-5.742 0-5.737 5.66v5.66q0 5.657 5.737 5.66h5.737q5.742 0 5.737-5.66h-2.465q0 3.235-3.281 3.235zm5.737-12.13q3.281 0 3.281 3.235a0.848 0.848 0 0 1-0.671 0.841l-11.624 2.636v-3.477q0-3.235 3.276-3.235zm-21.948 0q3.281 0 3.276 3.235v8.895h-9.019q-3.281 0-3.276-3.235v-5.66q0-3.235 3.276-3.235zm-11.48 8.895q0 5.657 5.737 5.66h9.019v1.615q0 3.235-3.276 3.235h-8.916v2.425h8.916q5.735 0 5.737-5.66v-12.935q0-5.657-5.737-5.66h-5.743q-5.737 0-5.737 5.66z"/>
 <path class="b" transform="translate(-109.56)" d="m242.96 16.619h-10.154q-3.692 0-3.694-3.694v-6.46q0-3.692 3.694-3.694h6.465q3.692 0 3.694 3.694v10.154zm2.771 2.9v-13.054q-1e-3 -6.465-6.465-6.465h-6.47q-6.462 0-6.465 6.465v6.465q0 6.462 6.465 6.465h10.154v0.124c0.052 1.615 0.217 2.482-0.733 3.6h-0.041a3.486 3.486 0 0 0 3.55-3.6"/>
</svg>
