<?xml version="1.0" encoding="utf-8"?>
<!-- Generator: Adobe Illustrator 19.2.0, SVG Export Plug-In . SVG Version: 6.00 Build 0)  -->
<svg version="1.1" id="Capa_1" xmlns="http://www.w3.org/2000/svg" xmlns:xlink="http://www.w3.org/1999/xlink" x="0px" y="0px"
	 viewBox="0 0 96 16" style="enable-background:new 0 0 96 16;" xml:space="preserve">
<style type="text/css">
	.st0{fill:#2B2D2A;}
	.st1{fill:#5C95D9;}
	.st2{fill:#FFFFFF;}
</style>
<rect x="36.939" transform="matrix(-1 -1.224647e-16 1.224647e-16 -1 132.9386 16)" class="st0" width="59.061" height="16"/>
<rect class="st1" width="36.939" height="16"/>
<g>
	<path class="st2" d="M10.986,8.12c0,0.461-0.08,0.888-0.239,1.277c-0.159,0.39-0.384,0.728-0.673,1.013
		c-0.29,0.285-0.638,0.507-1.045,0.667s-0.86,0.239-1.357,0.239H5.191V4.928h2.481c0.497,0,0.949,0.081,1.357,0.241
		s0.756,0.383,1.045,0.667c0.289,0.283,0.514,0.62,0.673,1.01S10.986,7.661,10.986,8.12z M9.469,8.12
		c0-0.316-0.041-0.601-0.123-0.855c-0.082-0.254-0.2-0.47-0.353-0.646S8.652,6.306,8.43,6.21C8.208,6.116,7.956,6.068,7.672,6.068
		h-0.99v4.107h0.99c0.284,0,0.537-0.047,0.758-0.143c0.222-0.095,0.41-0.231,0.563-0.408s0.271-0.392,0.353-0.646
		C9.428,8.724,9.469,8.438,9.469,8.12z"/>
	<path class="st2" d="M15.13,8.742c0.054,0.12,0.106,0.243,0.156,0.368c0.049-0.128,0.102-0.253,0.158-0.375
		c0.055-0.121,0.112-0.239,0.171-0.353l1.639-3.229c0.029-0.056,0.06-0.099,0.09-0.129c0.031-0.031,0.065-0.054,0.103-0.068
		s0.081-0.022,0.129-0.022s0.104,0,0.169,0h1.131v6.382H17.57V7.642c0-0.178,0.009-0.371,0.026-0.579l-1.692,3.283
		c-0.052,0.103-0.124,0.18-0.212,0.232c-0.089,0.053-0.191,0.079-0.305,0.079h-0.202c-0.114,0-0.215-0.026-0.305-0.079
		c-0.089-0.053-0.16-0.13-0.212-0.232l-1.701-3.288c0.011,0.103,0.02,0.204,0.026,0.305c0.005,0.101,0.008,0.194,0.008,0.278v3.673
		h-1.306V4.933h1.131c0.064,0,0.121,0,0.169,0s0.091,0.007,0.129,0.022s0.072,0.038,0.103,0.068c0.031,0.03,0.061,0.074,0.09,0.129
		l1.644,3.243C15.02,8.506,15.076,8.622,15.13,8.742z"/>
	<path class="st2" d="M24.219,9.663c0.035,0,0.07,0.006,0.105,0.02c0.035,0.013,0.069,0.036,0.101,0.068l0.587,0.618
		c-0.257,0.336-0.58,0.589-0.967,0.76c-0.387,0.171-0.845,0.257-1.374,0.257c-0.485,0-0.92-0.083-1.304-0.248
		c-0.384-0.165-0.71-0.393-0.978-0.684c-0.267-0.291-0.473-0.636-0.616-1.035S19.56,8.587,19.56,8.12
		c0-0.477,0.082-0.914,0.246-1.313s0.392-0.743,0.686-1.032c0.293-0.29,0.645-0.514,1.054-0.675c0.409-0.161,0.86-0.241,1.354-0.241
		c0.239,0,0.465,0.021,0.677,0.063s0.41,0.101,0.594,0.175c0.184,0.074,0.354,0.164,0.509,0.267
		c0.155,0.104,0.292,0.219,0.412,0.344l-0.5,0.671c-0.032,0.041-0.07,0.078-0.114,0.112c-0.044,0.033-0.105,0.05-0.184,0.05
		c-0.053,0-0.103-0.012-0.149-0.035c-0.046-0.023-0.096-0.052-0.149-0.085s-0.11-0.07-0.173-0.109
		c-0.062-0.04-0.137-0.076-0.223-0.11c-0.086-0.034-0.187-0.062-0.303-0.085c-0.115-0.023-0.25-0.035-0.405-0.035
		c-0.269,0-0.515,0.048-0.736,0.143c-0.222,0.095-0.413,0.231-0.572,0.408s-0.283,0.391-0.373,0.642s-0.134,0.533-0.134,0.846
		c0,0.327,0.044,0.618,0.134,0.872s0.21,0.468,0.364,0.642s0.333,0.306,0.537,0.397c0.205,0.09,0.424,0.136,0.657,0.136
		c0.135,0,0.257-0.006,0.369-0.02c0.111-0.013,0.214-0.036,0.309-0.068c0.095-0.032,0.186-0.074,0.272-0.125
		c0.086-0.051,0.173-0.115,0.261-0.191c0.035-0.029,0.073-0.053,0.114-0.072C24.133,9.672,24.175,9.663,24.219,9.663z"/>
	<path class="st2" d="M31.631,11.315h-1.148c-0.128,0-0.234-0.03-0.318-0.09c-0.083-0.06-0.141-0.137-0.173-0.23l-0.377-1.114
		h-2.429l-0.377,1.114c-0.029,0.082-0.086,0.155-0.171,0.221c-0.084,0.066-0.188,0.099-0.311,0.099H25.17l2.472-6.387h1.517
		L31.631,11.315z M27.529,8.874h1.745l-0.587-1.749c-0.038-0.111-0.083-0.242-0.134-0.393c-0.051-0.15-0.102-0.313-0.151-0.489
		c-0.047,0.179-0.095,0.344-0.145,0.496s-0.097,0.283-0.14,0.395L27.529,8.874z"/>
</g>
<g>
	<path class="st2" d="M43.487,9.18v2.135h-1.482V4.928h2.253c0.45,0,0.836,0.054,1.159,0.16s0.589,0.253,0.798,0.44
		s0.363,0.408,0.462,0.662c0.099,0.254,0.149,0.529,0.149,0.824c0,0.319-0.051,0.611-0.153,0.877
		c-0.103,0.266-0.259,0.494-0.469,0.684s-0.477,0.338-0.8,0.445c-0.323,0.107-0.705,0.16-1.146,0.16H43.487z M43.487,8.062h0.771
		c0.386,0,0.663-0.092,0.833-0.276s0.254-0.441,0.254-0.771c0-0.146-0.022-0.279-0.066-0.399c-0.044-0.12-0.11-0.223-0.199-0.309
		c-0.089-0.086-0.202-0.153-0.337-0.2c-0.136-0.047-0.298-0.07-0.484-0.07h-0.771V8.062z"/>
	<path class="st2" d="M49.08,8.952v2.363h-1.482V4.928h2.078c0.462,0,0.855,0.048,1.182,0.143c0.326,0.095,0.592,0.227,0.798,0.396
		c0.206,0.17,0.355,0.37,0.449,0.601c0.093,0.231,0.14,0.482,0.14,0.754c0,0.208-0.028,0.403-0.083,0.587
		c-0.056,0.184-0.138,0.354-0.248,0.511c-0.109,0.156-0.244,0.296-0.403,0.418c-0.159,0.123-0.342,0.224-0.55,0.303
		c0.099,0.05,0.192,0.111,0.278,0.184c0.086,0.073,0.161,0.162,0.226,0.268l1.359,2.222h-1.341c-0.249,0-0.427-0.093-0.535-0.281
		L49.886,9.18c-0.046-0.082-0.102-0.14-0.164-0.175c-0.063-0.035-0.151-0.053-0.265-0.053H49.08z M49.08,7.931h0.596
		c0.202,0,0.374-0.026,0.515-0.077c0.142-0.051,0.258-0.122,0.349-0.213c0.09-0.09,0.156-0.196,0.197-0.318
		c0.041-0.121,0.062-0.252,0.062-0.392c0-0.281-0.092-0.5-0.274-0.658c-0.183-0.158-0.466-0.237-0.849-0.237H49.08V7.931z"/>
	<path class="st2" d="M59.512,8.12c0,0.461-0.08,0.891-0.239,1.289s-0.383,0.743-0.673,1.037c-0.289,0.294-0.638,0.524-1.045,0.69
		s-0.86,0.25-1.356,0.25c-0.497,0-0.95-0.083-1.359-0.25s-0.759-0.396-1.05-0.69c-0.291-0.293-0.516-0.639-0.675-1.037
		s-0.239-0.827-0.239-1.289c0-0.462,0.08-0.892,0.239-1.289c0.159-0.397,0.384-0.742,0.675-1.034
		c0.291-0.292,0.641-0.522,1.05-0.688s0.862-0.25,1.359-0.25c0.497,0,0.949,0.084,1.356,0.252s0.756,0.398,1.045,0.69
		c0.29,0.292,0.514,0.637,0.673,1.034S59.512,7.661,59.512,8.12z M57.995,8.12c0-0.316-0.041-0.6-0.123-0.853
		C57.791,7.014,57.673,6.8,57.52,6.625c-0.153-0.175-0.341-0.31-0.563-0.403c-0.222-0.094-0.475-0.141-0.758-0.141
		c-0.287,0-0.542,0.047-0.765,0.141c-0.224,0.093-0.412,0.228-0.565,0.403c-0.153,0.176-0.271,0.39-0.353,0.643
		c-0.082,0.252-0.123,0.537-0.123,0.853c0,0.318,0.041,0.604,0.123,0.857c0.082,0.252,0.2,0.467,0.353,0.642
		s0.342,0.309,0.565,0.401c0.224,0.092,0.479,0.138,0.765,0.138c0.283,0,0.536-0.046,0.758-0.138
		c0.222-0.092,0.41-0.226,0.563-0.401c0.154-0.175,0.271-0.39,0.353-0.642C57.954,8.724,57.995,8.438,57.995,8.12z"/>
	<path class="st2" d="M64.597,4.928v1.175h-1.797v5.212h-1.481V6.103h-1.797V4.928H64.597z"/>
	<path class="st2" d="M69.322,4.928v1.14h-2.621v1.491h2.007v1.096h-2.007v1.521h2.621v1.14H65.21V4.928H69.322z"/>
	<path class="st2" d="M74.455,9.663c0.035,0,0.07,0.006,0.105,0.02c0.035,0.013,0.069,0.036,0.101,0.068l0.587,0.618
		c-0.257,0.336-0.58,0.589-0.967,0.76c-0.387,0.171-0.845,0.257-1.374,0.257c-0.485,0-0.92-0.083-1.304-0.248
		c-0.384-0.165-0.71-0.393-0.978-0.684c-0.267-0.291-0.473-0.636-0.616-1.035s-0.215-0.832-0.215-1.299
		c0-0.477,0.082-0.914,0.246-1.313s0.392-0.743,0.686-1.032c0.293-0.29,0.645-0.514,1.054-0.675c0.409-0.161,0.86-0.241,1.354-0.241
		c0.239,0,0.465,0.021,0.677,0.063s0.41,0.101,0.594,0.175c0.184,0.074,0.354,0.164,0.509,0.267
		c0.155,0.104,0.292,0.219,0.412,0.344l-0.5,0.671c-0.032,0.041-0.07,0.078-0.114,0.112c-0.044,0.033-0.105,0.05-0.184,0.05
		c-0.053,0-0.103-0.012-0.149-0.035c-0.046-0.023-0.096-0.052-0.149-0.085s-0.11-0.07-0.173-0.109
		c-0.062-0.04-0.137-0.076-0.223-0.11c-0.086-0.034-0.187-0.062-0.303-0.085c-0.115-0.023-0.25-0.035-0.405-0.035
		c-0.269,0-0.515,0.048-0.736,0.143c-0.222,0.095-0.413,0.231-0.572,0.408s-0.283,0.391-0.373,0.642s-0.134,0.533-0.134,0.846
		c0,0.327,0.044,0.618,0.134,0.872s0.21,0.468,0.364,0.642s0.333,0.306,0.537,0.397c0.205,0.09,0.424,0.136,0.657,0.136
		c0.135,0,0.257-0.006,0.369-0.02c0.111-0.013,0.214-0.036,0.309-0.068c0.095-0.032,0.186-0.074,0.272-0.125
		c0.086-0.051,0.173-0.115,0.261-0.191c0.035-0.029,0.073-0.053,0.114-0.072C74.369,9.672,74.411,9.663,74.455,9.663z"/>
	<path class="st2" d="M80.561,4.928v1.175h-1.797v5.212h-1.481V6.103h-1.797V4.928H80.561z"/>
	<path class="st2" d="M85.286,4.928v1.14h-2.621v1.491h2.007v1.096h-2.007v1.521h2.621v1.14h-4.112V4.928H85.286z"/>
	<path class="st2" d="M91.922,8.12c0,0.461-0.08,0.888-0.239,1.277c-0.159,0.39-0.384,0.728-0.673,1.013
		c-0.29,0.285-0.638,0.507-1.045,0.667s-0.86,0.239-1.357,0.239h-2.481V4.928h2.481c0.497,0,0.949,0.081,1.357,0.241
		s0.756,0.383,1.045,0.667c0.289,0.283,0.514,0.62,0.673,1.01S91.922,7.661,91.922,8.12z M90.406,8.12
		c0-0.316-0.041-0.601-0.123-0.855c-0.082-0.254-0.2-0.47-0.353-0.646s-0.341-0.312-0.563-0.408
		c-0.222-0.095-0.475-0.143-0.758-0.143h-0.99v4.107h0.99c0.284,0,0.537-0.047,0.758-0.143c0.222-0.095,0.41-0.231,0.563-0.408
		s0.271-0.392,0.353-0.646C90.365,8.724,90.406,8.438,90.406,8.12z"/>
</g>
</svg>
