<?xml version="1.0" encoding="utf-8"?>
<!-- Generator: Adobe Illustrator 19.2.0, SVG Export Plug-In . SVG Version: 6.00 Build 0)  -->
<svg version="1.1" id="layer" xmlns="http://www.w3.org/2000/svg" xmlns:xlink="http://www.w3.org/1999/xlink" x="0px" y="0px"
	 viewBox="0 0 274 171" style="enable-background:new 0 0 274 171;" xml:space="preserve">
<style type="text/css">
	.st0{fill:#FFFFFF;}
	.st1{fill:#162667;}
</style>
<g>
	<path class="st0" d="M98.3,27.6c0-4.4,3.6-8,8-8h61.5c4.5,0,8.1,3.6,8.1,8v115.8c0,4.4-3.6,8-8.1,8h-61.5c-4.4,0-8-3.6-8-8V27.6"/>
	<path class="st1" d="M101.6,41.3V27.6c0-2.6,2.1-4.7,4.7-4.7h61.5c2.6,0,4.7,2.1,4.7,4.7v13.7H101.6"/>
	<rect x="101.6" y="44.6" class="st1" width="70.9" height="81.8"/>
	<path class="st0" d="M157.5,34.6c0.3,0.4,0.9,0.9,1.3,1.1c1.2,0.6,2.2,0.8,3.2,0.8c1.7,0,2.7-0.7,2.7-1.8c0-1.3-1.3-1.5-3.2-1.8
		c-2.5-0.3-3.9-1.5-3.9-3.5c0.1-2,2-3.6,4.7-3.6c1.9,0,3.2,0.4,4,0.8v2.6c-0.3-0.5-0.9-0.8-1.5-1.1c-0.8-0.3-1.6-0.4-2.5-0.4
		c-1.4,0-2.2,0.5-2.2,1.2c0,1.1,1.1,1.3,3.4,1.8c2.4,0.5,3.8,1.5,3.7,3.6c-0.1,2.4-2,4.1-5.3,4.1c-1.5,0-3.4-0.3-4.5-0.9V34.6"/>
	<path class="st0" d="M115.5,29.7c0,1.2-1,1.7-2.6,1.7h-2.8v-3.4h2.8C114.5,27.9,115.5,28.4,115.5,29.7 M117.3,35.1
		c-0.6-1.1-1.1-2-2-2.4c1.9-0.4,2.8-1.5,2.8-3.1c0-1.6-0.7-2.8-2-3.2c-0.8-0.3-1.8-0.3-3.4-0.3h-6.2c0.6,0.4,0.9,1.6,0.9,2.7v6.8
		c0,1-0.3,2.3-0.9,2.6h4.5c-0.6-0.3-0.9-1.6-0.9-2.6v-2.2h1.9c0.9,0,1.5,0.3,1.9,1.1c0.7,1.1,1.2,2.6,2,3.7h3.6
		C118.4,37.4,117.8,36.3,117.3,35.1"/>
	<path class="st0" d="M126.8,38.5c1.7,0,3.1-0.5,4.2-1.4c1.3-1.1,2.2-2.7,2.2-5c0-2.2-0.9-3.9-2.2-5c-1.1-0.9-2.5-1.4-4.2-1.4
		c-1.7,0-3.1,0.5-4.2,1.4c-1.3,1.1-2.2,2.8-2.2,5c0,2.3,0.9,3.9,2.2,5C123.6,38,125.1,38.5,126.8,38.5 M124.2,35.3
		c-0.7-0.7-1.1-1.8-1.1-3.2c0-1.4,0.3-2.5,1.1-3.2c0.6-0.6,1.5-1,2.6-1c1.1,0,2,0.4,2.6,1c0.7,0.7,1.2,1.8,1.2,3.2
		c0,1.5-0.4,2.6-1.2,3.2c-0.6,0.6-1.5,1-2.6,1C125.7,36.3,124.8,35.9,124.2,35.3"/>
	<path class="st0" d="M144.3,35c-0.7,0.9-2.1,1.1-3.7,1.1h-2.4v-7.5c0-1,0.3-2.3,0.9-2.7h-4.4c0.6,0.4,0.9,1.7,0.9,2.7v6.8
		c0,1.1-0.3,2.2-0.9,2.6h9.1L144.3,35"/>
	<path class="st0" d="M155.4,35c-0.7,0.9-2.1,1.2-3.7,1.1h-2.4v-7.5c0-1,0.3-2.3,0.9-2.7h-4.4c0.6,0.4,0.9,1.7,0.9,2.7v6.8
		c0,1.1-0.3,2.3-0.9,2.7h9.1L155.4,35"/>
	<path class="st1" d="M179.8,27.6c0-6.7-5.4-12.1-12.1-12.1h-61.5c-6.7,0-12.1,5.4-12.1,12.1v115.8c0,6.7,5.4,12.1,12.1,12.1h61.5
		c6.7,0,12.1-5.4,12.1-12.1V27.6 M98.3,27.6c0-4.4,3.6-8,8-8h61.5c4.5,0,8.1,3.6,8.1,8v115.8c0,4.4-3.6,8-8.1,8h-61.5
		c-4.4,0-8-3.6-8-8V27.6z"/>
	<path class="st1" d="M101.6,129.7v13.7c0,2.6,2.1,4.7,4.7,4.7h61.5c2.6,0,4.7-2.1,4.7-4.7v-13.7H101.6"/>
	<path class="st0" d="M132,113.4V95.2c1.8-0.1,3.4-0.1,5.1-0.3c-0.6-1.4-1.2-2.8-2-4.2c-1,0.1-2.1,0.1-3.2,0.2v-3.8
		c-2.4,0.5-4.9,0.9-7.6,1.2v25c0,5.5-2.6,7-4.1,8h15.8C134.6,120.4,132,118.9,132,113.4"/>
	<path class="st0" d="M168.8,121.3c-1.3-1.2-2.9-3.1-3.7-6.8c-1.5-6.8-4.6-16.6-11.2-23.9c6.4-3.5,10.3-9.1,10.3-15.9
		c0.1-4.9-2.4-10-6.9-13.1c-1.9-1.2-4.1-2.1-6.8-2.6c0.9,2,1.6,4.2,1.7,6.4c2.8,2.2,4.3,5.5,4.3,9.5c0,5.1-2.6,11-11.6,14.1
		c0.7,1.4,1.5,2.9,2.1,4.3c0.5-0.1,0.9-0.3,1.4-0.4c4.2,4.9,7.6,12.5,8.6,19.6c0.7,5.1-1.1,7.7-2.3,8.9H168.8"/>
	<path class="st0" d="M118.2,82.7V54.3H129c3.9,0.1,6.8,0.9,9.1,2.5c3,2.2,4.7,5.6,4.7,9.7C142.8,73.5,138,82.4,118.2,82.7
		 M153,113.2c-1.4-1.2-3-3.1-3.7-6.8c-1.5-6.8-4.5-16.4-10.4-23.3c0.3-0.1,0.5-0.2,0.7-0.3c6.8-3.4,10.9-9.2,10.9-16.2
		c0.1-4.9-2.4-10-6.9-13c-3.5-2.4-8.3-3.3-14.3-3.3h-22.8c1.6,1,4.1,2.5,4.1,8v46.9c0,5.6-2.6,7-4.1,8h15.8c-1.5-1-4.1-2.4-4.1-8
		V86.9c5.5,0,10.8-0.7,15.1-1.8c4,4.8,7,12.2,7.9,19.1c0.7,5.1-1.1,7.8-2.3,9H153z"/>
	<path class="st0" d="M132,78.7v-16h8.5c-0.6-1.8-1.7-3.2-3.2-4.3h-17c1.6,1,4.1,2.4,4.1,8v14.1C127.2,80.2,129.8,79.6,132,78.7"/>
	<path class="st0" d="M147.4,138.9c0,2.3,1.4,4.1,3.7,4.1c1.7,0,3.2-0.5,3.9-1.3l-0.4,2.6c-0.6,0.3-1.7,0.6-3.4,0.6
		c-3.8,0-6.4-2.2-6.4-6c0-2,0.8-3.6,2-4.6c1.1-0.9,2.6-1.5,4.4-1.5c1.8,0,2.8,0.3,3.4,0.7v2.5c-0.7-0.8-1.8-1.2-3.5-1.2
		C148.8,134.8,147.4,136.6,147.4,138.9"/>
	<path class="st0" d="M115.1,136.6c0,1.2-0.9,1.6-2.4,1.6H110V135h2.7C114.2,135,115.1,135.4,115.1,136.6 M116.8,141.8
		c-0.5-1.1-1-2-1.8-2.3c1.8-0.3,2.6-1.4,2.7-2.9c0-1.6-0.7-2.7-1.9-3.2c-0.7-0.3-1.8-0.3-3.2-0.3h-5.9c0.5,0.3,0.9,1.5,0.9,2.6v6.5
		c0,0.9-0.3,2.2-0.9,2.6h4.2c-0.5-0.4-0.9-1.6-0.9-2.6v-2.1h1.8c0.9,0,1.5,0.4,1.9,1.1c0.6,1,1.1,2.4,1.8,3.5l3.4,0.1
		C117.8,143.9,117.4,142.9,116.8,141.8"/>
	<path class="st0" d="M125.8,145c1.6,0,3-0.5,4-1.4c1.2-1,2.1-2.6,2.1-4.7c0-2.2-0.9-3.7-2.1-4.8c-1-0.8-2.4-1.3-4-1.3
		c-1.6,0-2.9,0.5-3.9,1.3c-1.2,1.1-2.1,2.6-2.1,4.8c0,2.2,0.9,3.7,2.1,4.7C122.9,144.5,124.2,145,125.8,145 M123.4,142
		c-0.7-0.6-1-1.6-1-3c0-1.4,0.3-2.4,1-3.1c0.6-0.6,1.4-1,2.5-1c1,0,1.8,0.3,2.4,1c0.7,0.7,1,1.7,1,3.1c0,1.4-0.3,2.4-1,3
		c-0.6,0.6-1.4,1-2.4,1C124.8,143,124,142.6,123.4,142"/>
	<path class="st0" d="M141,133.1c0.3,0.2,0.4,0.4,0.3,0.7c0,0.3-0.1,0.7-0.4,1.1l-2.3,3.3l-2.3-3.4c-0.3-0.4-0.5-0.8-0.5-1.1
		c0.1-0.2,0.1-0.4,0.4-0.5h-4.7c0.8,0.3,1.2,0.9,1.8,1.8l3.8,5.3v1.9c0,0.9-0.3,2.2-0.9,2.5h4.2c-0.5-0.3-0.9-1.6-0.9-2.5v-1.9
		l3.4-4.9c0.5-0.7,1.3-1.9,2.1-2.3H141"/>
	<path class="st0" d="M163.4,142.9h-3v-3.2h4.5l0.3-1.8h-4.7V135h2.6c1.5,0,2.7,0.1,3.3,0.7v-2.6h-9.3c0.5,0.4,0.9,1.6,0.9,2.6v6.5
		c0,1-0.3,2.2-0.9,2.6h9.3l0.4-2.8C166.2,142.8,164.9,142.9,163.4,142.9"/>
</g>
</svg>
