<?xml version="1.0" encoding="utf-8"?>
<!-- Generator: Adobe Illustrator 19.2.0, SVG Export Plug-In . SVG Version: 6.00 Build 0)  -->
<svg version="1.1" id="Layer_1" xmlns="http://www.w3.org/2000/svg" xmlns:xlink="http://www.w3.org/1999/xlink" x="0px" y="0px"
	 viewBox="0 0 839.1 839.1" style="enable-background:new 0 0 839.1 839.1;" xml:space="preserve">
<style type="text/css">
	.st0{fill:#6E787C;}
	.st1{fill:#25343E;}
	.st2{fill:#FFFFFF;stroke:#25343E;stroke-width:4;stroke-miterlimit:10;}
	.st3{fill:#FDFDFD;}
	.st4{fill:#FF3D2E;}
	.st5{fill:none;stroke:#25343E;stroke-width:3;stroke-miterlimit:10;}
	.st6{enable-background:new    ;}
	.st7{fill:#15303D;}
</style>
<g id="g58">
</g>
<g id="g90">
</g>
<g>
	<polygon class="st0" points="416.8,0 32.9,209.8 32.9,627.4 416.8,839.1 800.6,627.4 800.6,209.8 	"/>
	<rect x="32.9" y="299.7" class="st1" width="767.7" height="243.2"/>
	<polygon class="st2" points="761.5,231.2 416.8,42.8 72.1,231.2 72.1,327.4 761.5,327.4 	"/>
	<g>
		<g>
			<rect x="324" y="367.8" class="st3" width="17.7" height="110.3"/>
		</g>
		<g>
			<path class="st3" d="M403.8,443c0,16.6-14.3,18.2-18.2,18.2c-10.4,0-12.7-10-12.7-16.2v-41.7h-17.7v42c0,10.4,3.4,18.8,8.9,25.1
				c5,5,12.7,7.8,21.2,7.8c6.2,0,14.3-1.6,18.2-6.2v6.2h17.7v-74.8h-17.7v39.7h0.2V443H403.8z"/>
		</g>
		<g>
			<polygon class="st3" points="456.4,376.6 438.6,376.6 438.6,403.2 425.4,403.2 425.4,421 438.6,421 438.6,478.1 456.4,478.1 
				456.4,421 469.4,421 469.4,403.2 456.4,403.2 			"/>
		</g>
		<g>
			<path class="st3" d="M525,455.7c-3.9,3.4-8.9,5.4-14.3,5.4c-12.3,0-21.2-8.9-21.2-21.6s8.9-21.2,21.2-21.2
				c5.4,0,10.4,1.6,14.3,5.4l2.7,2.3l11.5-11.5l-2.7-2.7c-7.3-6.2-16.2-10-25.8-10c-22-0.3-38.1,15.4-38.1,37.8
				c0,21.6,16.6,38.1,38.1,38.1c10,0,19.3-3.4,26.6-10l2.7-2.7l-12.3-12.3L525,455.7z"/>
		</g>
		<g>
			<path class="st3" d="M602.8,409.8c-5-5-11.2-7.8-19.3-7.8c-6.2,0-12.7,1.6-17.4,6.2v-40.5h-17.7V478h17.7v-41.7
				c0-16.6,12.3-18.2,16.2-18.2c10.4,0,10.4,10,10.4,16.2V478h17.7v-44C610.9,424.5,608.7,415.6,602.8,409.8z"/>
		</g>
		<circle class="st4" cx="509.9" cy="439.9" r="12.7"/>
		<g>
			<path class="st3" d="M299.8,450.3c-6.5,6.5-16.2,10.4-25.5,10.4c-20.1,0-34.4-15.4-34.4-36.6s14.3-36.6,33.9-36.6
				c9.2,0,18.2,3.9,25.5,10.4l2.7,2.7l11.5-11.5l-2.7-2.7c-10-10-23.2-15.4-37-15.4c-29.3,0.3-50.9,23.2-50.9,53.5
				c0,30.5,21.6,53.2,50.9,53.2c14.3,0,27.7-5.4,37-15.4l2.7-2.7L302,447.3L299.8,450.3z"/>
		</g>
	</g>
	<polygon class="st2" points="72.1,606.2 416.8,796.3 761.5,606.2 761.5,515.4 72.1,515.4 	"/>
	<line class="st5" x1="709" y1="299.7" x2="124.6" y2="299.7"/>
	<line class="st5" x1="709" y1="542.8" x2="124.6" y2="542.8"/>
	<g class="st6">
		<path class="st7" d="M355.4,160.3v-4.1h29.5v4.1h-12.3V193h-4.9v-32.7H355.4z"/>
		<path class="st7" d="M393.2,167.4c0.7-2.3,1.8-4.4,3.3-6.2s3.3-3.2,5.5-4.3s4.8-1.6,7.7-1.6c2.9,0,5.5,0.5,7.7,1.6s4,2.5,5.5,4.3
			s2.6,3.8,3.3,6.2s1.1,4.7,1.1,7.2s-0.4,4.9-1.1,7.2s-1.8,4.4-3.3,6.2s-3.3,3.2-5.5,4.3c-2.2,1-4.8,1.6-7.7,1.6
			c-2.9,0-5.5-0.5-7.7-1.6c-2.2-1-4-2.5-5.5-4.3s-2.6-3.8-3.3-6.2c-0.7-2.3-1.1-4.7-1.1-7.2C392.1,172.1,392.4,169.7,393.2,167.4z
			 M397.7,180.1c0.5,1.8,1.2,3.4,2.3,4.9c1,1.4,2.4,2.6,4,3.5s3.5,1.3,5.8,1.3c2.2,0,4.2-0.4,5.8-1.3c1.6-0.9,2.9-2,4-3.5
			s1.8-3.1,2.3-4.9c0.5-1.8,0.7-3.6,0.7-5.5s-0.2-3.7-0.7-5.5s-1.2-3.4-2.3-4.9s-2.4-2.6-4-3.5s-3.5-1.3-5.8-1.3
			c-2.2,0-4.2,0.4-5.8,1.3c-1.6,0.9-2.9,2-4,3.5c-1,1.4-1.8,3.1-2.3,4.9c-0.5,1.8-0.7,3.6-0.7,5.5S397.2,178.3,397.7,180.1z"/>
		<path class="st7" d="M454.6,156.2c3.7,0,6.5,1,8.4,2.9s2.9,4.6,2.9,8s-1,6.1-2.9,8s-4.7,2.9-8.4,2.8h-11.2V193h-4.9v-36.8H454.6z
			 M453,173.8c2.8,0,4.8-0.5,6.1-1.7c1.3-1.2,1.9-2.9,1.9-5.1c0-2.2-0.6-3.9-1.9-5c-1.3-1.2-3.3-1.7-6.1-1.7h-9.6v13.5H453z"/>
	</g>
	<g>
		<path class="st7" d="M173.5,230.3l7.3,31.5l8.8-31.5h5.7l8.8,31.6l7.3-31.6h5.8L207,269.1h-5.5l-9-32.2l-9,32.2H178l-10.2-38.8
			H173.5z"/>
		<path class="st7" d="M222.6,230.3h28.2v4.8h-23.1v11.8H249v4.5h-21.3v13.2h23.4v4.6h-28.6V230.3z"/>
		<path class="st7" d="M258,230.3h16.8c4.6,0,7.8,1.4,9.8,4.1c1.1,1.6,1.7,3.5,1.7,5.6c0,2.5-0.7,4.5-2.1,6
			c-0.7,0.8-1.8,1.6-3.1,2.3c2,0.8,3.5,1.6,4.5,2.6c1.7,1.7,2.6,4,2.6,7c0,2.5-0.8,4.8-2.4,6.8c-2.4,3-6.1,4.5-11.3,4.5H258V230.3z
			 M272.9,246.7c2.2,0,4-0.3,5.2-0.9c2-1,2.9-2.7,2.9-5.2c0-2.5-1-4.2-3.1-5.1c-1.2-0.5-2.9-0.7-5.2-0.7h-9.5v12H272.9z
			 M274.6,264.6c3.3,0,5.6-0.9,7-2.8c0.9-1.2,1.3-2.6,1.3-4.3c0-2.8-1.3-4.7-3.8-5.8c-1.4-0.5-3.1-0.8-5.4-0.8h-10.5v13.7H274.6z"/>
		<path class="st7" d="M309.6,230.3h15.5c5.3,0,9.4,1.9,12.3,5.7c2.6,3.4,3.9,7.8,3.9,13.1c0,4.1-0.8,7.9-2.3,11.2
			c-2.7,5.9-7.3,8.8-13.9,8.8h-15.5V230.3z M324,264.6c1.7,0,3.2-0.2,4.3-0.6c2-0.7,3.6-2,4.9-4c1-1.6,1.7-3.6,2.2-6
			c0.3-1.5,0.4-2.8,0.4-4.1c0-4.8-0.9-8.5-2.8-11.2s-4.9-4-9-4h-9.1v29.8H324z"/>
		<path class="st7" d="M348.9,230.3h28.2v4.8H354v11.8h21.3v4.5H354v13.2h23.4v4.6h-28.6V230.3z"/>
		<path class="st7" d="M387.6,230.3l11.2,33.1l11-33.1h5.9l-14.2,38.8h-5.6l-14.1-38.8H387.6z"/>
		<path class="st7" d="M421.1,230.3h28.2v4.8h-23.1v11.8h21.3v4.5h-21.3v13.2h23.4v4.6h-28.6V230.3z"/>
		<path class="st7" d="M456.7,230.3h5.3v34.2h19.5v4.6h-24.7V230.3z"/>
		<path class="st7" d="M518.8,235.9c2.6,3.4,3.9,7.8,3.9,13.2c0,5.8-1.5,10.6-4.4,14.5c-3.5,4.5-8.4,6.8-14.8,6.8
			c-6,0-10.7-2-14.1-5.9c-3-3.8-4.6-8.6-4.6-14.4c0-5.3,1.3-9.7,3.9-13.5c3.3-4.8,8.3-7.2,14.9-7.2
			C510.5,229.2,515.5,231.4,518.8,235.9z M514.2,260.6c2.1-3.3,3.1-7.1,3.1-11.5c0-4.6-1.2-8.2-3.6-11c-2.4-2.8-5.7-4.2-9.8-4.2
			c-4,0-7.3,1.4-9.8,4.1c-2.5,2.8-3.8,6.8-3.8,12.2c0,4.3,1.1,7.9,3.3,10.9c2.2,3,5.7,4.4,10.6,4.4
			C508.8,265.6,512.1,263.9,514.2,260.6z"/>
		<path class="st7" d="M529.5,230.3h17.4c3.4,0,6.2,1,8.3,2.9c2.1,1.9,3.2,4.7,3.2,8.2c0,3-0.9,5.7-2.8,7.9
			c-1.9,2.2-4.8,3.4-8.7,3.4h-12.1v16.4h-5.3V230.3z M549.9,235.6c-1.2-0.5-2.7-0.8-4.8-0.8h-10.4v13.5h10.4c2.3,0,4.2-0.5,5.7-1.5
			c1.5-1,2.2-2.8,2.2-5.3C553,238.6,552,236.7,549.9,235.6z"/>
		<path class="st7" d="M565.6,230.3h28.2v4.8h-23.1v11.8H592v4.5h-21.3v13.2h23.4v4.6h-28.6V230.3z"/>
		<path class="st7" d="M601.8,230.3h17.7c2.9,0,5.3,0.4,7.2,1.3c3.6,1.7,5.4,4.7,5.4,9.2c0,2.3-0.5,4.2-1.4,5.7
			c-1,1.5-2.3,2.7-4,3.6c1.5,0.6,2.7,1.4,3.4,2.4c0.8,1,1.2,2.6,1.3,4.9l0.2,5.2c0.1,1.5,0.2,2.6,0.4,3.3c0.3,1.2,0.9,2,1.7,2.4v0.9
			h-6.5c-0.2-0.3-0.3-0.8-0.4-1.3c-0.1-0.5-0.2-1.6-0.3-3.1l-0.3-6.5c-0.1-2.5-1-4.2-2.7-5.1c-1-0.5-2.5-0.7-4.6-0.7h-11.6v16.7
			h-5.3V230.3z M618.9,248.1c2.4,0,4.3-0.5,5.7-1.5c1.4-1,2.1-2.8,2.1-5.3c0-2.8-1-4.7-2.9-5.7c-1-0.5-2.4-0.8-4.2-0.8h-12.5v13.3
			H618.9z"/>
		<path class="st7" d="M643.7,256.6c0.1,2.2,0.6,4,1.5,5.4c1.7,2.6,4.6,3.9,8.9,3.9c1.9,0,3.6-0.3,5.2-0.8c3-1.1,4.5-3,4.5-5.9
			c0-2.1-0.6-3.6-1.9-4.5c-1.3-0.9-3.3-1.6-6.1-2.3l-5.1-1.2c-3.3-0.8-5.7-1.6-7.1-2.6c-2.4-1.6-3.6-4-3.6-7.3
			c0-3.5,1.2-6.4,3.5-8.6c2.3-2.2,5.7-3.4,10-3.4c4,0,7.3,1,10.1,2.9c2.8,2,4.2,5.1,4.2,9.4h-4.9c-0.3-2.1-0.8-3.7-1.6-4.8
			c-1.5-2-4.1-3-7.8-3c-3,0-5.1,0.7-6.4,2c-1.3,1.3-2,2.8-2,4.5c0,1.9,0.8,3.3,2.3,4.2c1,0.6,3.3,1.3,6.8,2.1l5.3,1.2
			c2.5,0.6,4.5,1.4,5.9,2.5c2.4,1.8,3.6,4.5,3.6,7.9c0,4.3-1.5,7.4-4.6,9.2c-3.1,1.9-6.6,2.8-10.6,2.8c-4.7,0-8.4-1.2-11.1-3.7
			c-2.7-2.4-4-5.8-3.9-10H643.7z"/>
	</g>
	<g>
		<path class="st7" d="M363,629.4c1.2-2.4,3.5-4.6,6.9-6.6l5.1-2.9c2.3-1.3,3.9-2.5,4.8-3.4c1.4-1.5,2.2-3.1,2.2-5
			c0-2.2-0.7-4-2-5.3s-3.1-1.9-5.3-1.9c-3.3,0-5.5,1.2-6.8,3.7c-0.7,1.3-1,3.2-1.1,5.5h-4.8c0.1-3.3,0.7-6,1.8-8.1
			c2.1-3.7,5.7-5.5,10.9-5.5c4.3,0,7.5,1.2,9.5,3.5c2,2.3,3,5,3,7.8c0,3-1.1,5.6-3.2,7.8c-1.2,1.3-3.4,2.8-6.6,4.5l-3.6,2
			c-1.7,1-3.1,1.9-4.1,2.7c-1.8,1.5-2.9,3.2-3.3,5.1H387v4.5h-26C361.2,634.6,361.9,631.8,363,629.4z"/>
		<path class="st7" d="M414.7,606.1c1.7,3.1,2.5,7.4,2.5,12.8c0,5.1-0.8,9.4-2.3,12.8c-2.2,4.8-5.9,7.2-10.9,7.2
			c-4.5,0-7.9-2-10.2-5.9c-1.9-3.3-2.8-7.7-2.8-13.3c0-4.3,0.6-8,1.7-11.1c2.1-5.7,5.8-8.6,11.3-8.6
			C409,600,412.5,602.1,414.7,606.1z M409.9,631.3c1.5-2.2,2.2-6.3,2.2-12.2c0-4.3-0.5-7.8-1.6-10.6c-1.1-2.8-3.1-4.2-6.2-4.2
			c-2.8,0-4.9,1.3-6.2,4c-1.3,2.6-1.9,6.5-1.9,11.6c0,3.9,0.4,7,1.2,9.3c1.3,3.6,3.4,5.4,6.5,5.4
			C406.5,634.6,408.5,633.5,409.9,631.3z"/>
		<path class="st7" d="M423.3,629.4c1.2-2.4,3.5-4.6,6.9-6.6l5.1-2.9c2.3-1.3,3.9-2.5,4.8-3.4c1.4-1.5,2.2-3.1,2.2-5
			c0-2.2-0.7-4-2-5.3c-1.3-1.3-3.1-1.9-5.3-1.9c-3.3,0-5.5,1.2-6.8,3.7c-0.7,1.3-1,3.2-1.1,5.5h-4.8c0.1-3.3,0.7-6,1.8-8.1
			c2.1-3.7,5.7-5.5,10.9-5.5c4.3,0,7.5,1.2,9.5,3.5c2,2.3,3,5,3,7.8c0,3-1.1,5.6-3.2,7.8c-1.2,1.3-3.4,2.8-6.6,4.5l-3.6,2
			c-1.7,1-3.1,1.9-4.1,2.7c-1.8,1.5-2.9,3.2-3.3,5.1h20.7v4.5h-26C421.4,634.6,422.1,631.8,423.3,629.4z"/>
		<path class="st7" d="M474.9,606.1c1.7,3.1,2.5,7.4,2.5,12.8c0,5.1-0.8,9.4-2.3,12.8c-2.2,4.8-5.9,7.2-10.9,7.2
			c-4.5,0-7.9-2-10.2-5.9c-1.8-3.3-2.8-7.7-2.8-13.3c0-4.3,0.6-8,1.7-11.1c2.1-5.7,5.8-8.6,11.3-8.6
			C469.2,600,472.7,602.1,474.9,606.1z M470.1,631.3c1.5-2.2,2.2-6.3,2.2-12.2c0-4.3-0.5-7.8-1.6-10.6c-1.1-2.8-3.1-4.2-6.2-4.2
			c-2.8,0-4.9,1.3-6.2,4c-1.3,2.6-1.9,6.5-1.9,11.6c0,3.9,0.4,7,1.2,9.3c1.3,3.6,3.4,5.4,6.5,5.4
			C466.7,634.6,468.7,633.5,470.1,631.3z"/>
	</g>
</g>
</svg>
