<?xml version="1.0" encoding="utf-8"?>
<!-- Generator: Adobe Illustrator 19.2.0, SVG Export Plug-In . SVG Version: 6.00 Build 0)  -->
<svg version="1.1" id="Capa_1" xmlns="http://www.w3.org/2000/svg" xmlns:xlink="http://www.w3.org/1999/xlink" x="0px" y="0px"
	 viewBox="0 0 839.1 839.1" style="enable-background:new 0 0 839.1 839.1;" xml:space="preserve">
<style type="text/css">
	.st0{fill:none;}
	.st1{fill:#FFFEFE;}
	.st2{fill:#D4AF37;}
	.st3{fill:#D3262A;}
</style>
<rect x="95.4" y="0" class="st0" width="648.4" height="839.1"/>
<g>
	<g>
		<path class="st1" d="M95.6,0.7c216.4,0,432.8,0,649.3,0c0,279.8,0,559.5,0,839.3c-216.4,0-432.8,0-649.3,0
			C95.6,560.2,95.6,280.5,95.6,0.7z M744.2,420.1c0-138.4,0-276.9,0-415.3c0-4.1,0.5-3.6-3.4-3.6c-213.5,0-427.1,0-640.6,0
			c-3.9,0-3.4-0.5-3.4,3.3c0,277,0,554.1,0,831.1c0,3.8-0.4,3.3,3.4,3.3c213.5,0,427.1,0,640.6,0c4,0,3.4,0.5,3.4-3.6
			C744.2,697,744.2,558.5,744.2,420.1z"/>
		<path class="st2" d="M744.2,420.1c0,138.4,0,276.9,0,415.3c0,4.1,0.5,3.6-3.4,3.6c-213.5,0-427.1,0-640.6,0
			c-3.9,0-3.4,0.5-3.4-3.3c0-277,0-554.1,0-831.1c0-3.8-0.4-3.3,3.4-3.3c213.5,0,427.1,0,640.6,0c4,0,3.4-0.5,3.4,3.6
			C744.2,143.2,744.2,281.7,744.2,420.1z M115.9,419.9c0,132,0,264,0,396c0,4.5-0.6,3.9,3.9,3.9c200.6,0,401.2,0,601.7,0
			c4.2,0,3.6,0.5,3.6-3.6c0-264.2,0-528.3,0-792.5c0-4,0.5-3.5-3.5-3.5c-200.8,0-401.5,0-602.3,0c-4,0-3.5-0.5-3.5,3.5
			C115.9,155.7,115.9,287.8,115.9,419.9z"/>
		<path class="st1" d="M115.9,419.9c0-132.1,0-264.2,0-396.3c0-4-0.5-3.5,3.5-3.5c200.8,0,401.5,0,602.3,0c4,0,3.5-0.5,3.5,3.5
			c0,264.2,0,528.3,0,792.5c0,4.2,0.5,3.6-3.6,3.6c-200.6,0-401.2,0-601.7,0c-4.5,0-3.9,0.6-3.9-3.9
			C115.9,683.9,115.9,551.9,115.9,419.9z M706.1,610.4c0-0.9,0.1-1.9,0.1-2.8c0-188.4,0-376.8,0-565.2c0-3.5,0.5-3.1-3.1-3.1
			c-188.4,0-376.8,0-565.2,0c-3.5,0-3.1-0.4-3.1,3.1c0,188.4,0,376.8,0,565.2c0,0.9,0.1,1.9,0.1,2.8c0,0.9-0.1,1.9-0.1,2.8
			c0,61.5,0,123.1,0,184.6c0,3.5-0.3,3.1,3.1,3.1c188.4,0,376.7,0,565.1,0c3.5,0,3.1,0.4,3.1-3.1c0-61.5,0-123.1,0-184.6
			C706.2,612.2,706.1,611.3,706.1,610.4z"/>
		<path class="st3" d="M135,610.4c0-0.9-0.1-1.9-0.1-2.8c0-188.4,0-376.8,0-565.2c0-3.5-0.4-3.1,3.1-3.1c188.4,0,376.8,0,565.2,0
			c3.6,0,3.1-0.4,3.1,3.1c0,188.4,0,376.8,0,565.2c0,0.9-0.1,1.9-0.1,2.8c-1.1,0-2.2,0-3.3,0c-29,0-58.1,0-87.1,0
			c-1.4,0-2.9,0-4.3,0c0.4-0.5,0.8-1,1.3-1.5c4.7-5.5,8.2-11.5,10-18.6c1.5-6,2-12,2.2-18.1c0.2-6.8-0.2-13.5-1.9-20.2
			c-4-15.6-13.2-26.4-28.8-31.4c-8-2.6-16.3-2.8-24.6-1.7c-18.5,2.3-32.3,14.1-37.1,32.1c-3,11.2-3,22.6-1.2,34
			c1.2,7.3,3.8,14,8.1,20.1c1.3,1.8,2.8,3.6,4.2,5.3c-10.1,0-20.2,0-30.3,0c0-0.3-0.1-0.7,0-1c1.5-6.3,2.5-12.8,3.8-19.1
			c0.2-0.9,0.4-1.8,0.2-2.8c-4.4,0-8.6,0-12.8,0c-1.9,0-1.9,0-2.3,1.9c-0.4,2.2-0.8,4.3-1.7,6.4c-1.1,2.4-2.7,4-5.6,4.1
			c-1.7,0.1-3.4,0.3-5.1,0.3c-8.2,0-16.4,0-24.6,0c-0.5,0-1,0.2-1.5-0.3c0.5-0.7,1.3-1,2-1.4c9.7-5.6,19.3-11.2,28.6-17.5
			c3.9-2.7,7.6-5.7,10.9-9.1c2.8-2.9,5.3-6.2,7-9.9c6.1-12.6,2.9-25.7-8.2-34.2c-3.6-2.7-7.6-4.8-11.8-6.3
			c-9.8-3.5-19.9-3.9-30.1-2.3c-8.3,1.3-16,4.4-22.7,9.5c-10.1,7.7-13.6,18.2-11.9,30.5c0.3,1.9,0.4,2,2.2,1.8
			c4.1-0.3,8.3-0.7,12.4-1c1.2-0.1,1.4-0.6,1.3-1.6c-0.3-1.8-0.5-3.5-0.2-5.3c1.3-7.9,6-12.9,13.4-15.4c5.9-2,12-2,18-0.4
			c3.5,0.9,6.6,2.7,9.1,5.3c2.3,2.5,3.6,5.5,3.6,9c0,5.2-1.9,9.6-5,13.5c-3.1,4-6.7,7.4-10.7,10.5c-13.1,10.4-26.4,20.4-40.6,29.2
			c-2.2,1.4-3.6,2.8-3.3,5.5c-8.7,0-17.3,0-26-0.1c0.5-0.6,0.9-1.2,1.4-1.7c5-5.7,8.5-12.2,10.1-19.6c0.7-3.1,1.2-6.2,1.4-9.3
			c0.7-9.1,0.9-18.3-1.3-27.3c-4-16.4-13.8-27.4-30.2-32.2c-7.7-2.2-15.5-2.4-23.4-1.4c-18.9,2.4-32.9,14.9-37.3,33.5
			c-2.1,8.9-2.4,17.9-1.6,27c1,11.6,4.8,22.1,12.9,30.8c-0.8,0.5-1.6,0.3-2.5,0.3c-9.2,0-18.4,0-27.6,0c0.3-3.4,1.2-6.7,1.8-10
			c0.8-4.2,1.6-8.5,2.4-12.6c-0.6-0.5-1.1-0.4-1.6-0.4c-3.8,0-7.6,0-11.4,0c-1.9,0-1.9,0-2.3,1.9c-0.4,2-0.7,4-1.5,5.9
			c-1.1,2.8-2.9,4.5-6,4.6c-1.7,0.1-3.4,0.3-5.1,0.3c-8,0-16.1,0-24.1,0c-0.5,0-1.2,0.3-1.8-0.5c0.8-0.5,1.6-1,2.4-1.4
			c8.7-5,17.4-10.2,25.8-15.7c3.6-2.4,7.1-4.9,10.4-7.8c4.1-3.6,7.7-7.7,10-12.7c6.2-13.2,3.1-25.8-8.1-34.4
			c-3.6-2.8-7.6-4.8-11.8-6.3c-10.8-3.8-21.7-4.1-32.8-1.7c-8.2,1.7-15.8,5.1-22.1,10.8c-8.7,7.8-11.3,17.7-9.7,29
			c0.2,1.1,0.6,1.8,2,1.6c4.3-0.4,8.6-0.7,12.9-1.1c1.1-0.1,1.2-0.6,1-1.5c-0.4-2.1-0.5-4.2,0-6.3c1.6-7.4,6.2-12.1,13.2-14.4
			c5.9-2,12-2,18-0.5c2.9,0.7,5.5,2.1,7.8,4.1c4,3.5,5.5,7.8,4.7,13c-0.7,4.5-2.8,8.3-5.6,11.7c-2.8,3.4-6,6.5-9.4,9.2
			c-13.2,10.5-26.7,20.6-41,29.5c-2.2,1.4-3.7,2.8-3.3,5.5c-27.4,0-54.8,0-82.2,0C135.8,610.4,135.4,610.4,135,610.4z M494.8,199.7
			c-0.6-0.3-1-0.5-1.5-0.7c-5.6-1.9-11.2-3.9-16.8-5.8c-1.9-0.6-1.9-0.6-2.6,1.3c-2,5.4-4.5,10.6-7.8,15.4
			c-9.2,13.5-21.8,20.9-38.1,22c-7.9,0.6-15.7,0.3-23.6,0.3c-1,0-2-0.2-3-0.4c-2.4-0.5-3.4-1.5-3.6-3.9c-0.1-1.5-0.2-3-0.2-4.6
			c0-11.3,0-22.5,0-33.8c0-0.3,0-0.7,0-1c-0.1-1,0.4-1.3,1.4-1.3c5,0,10-0.1,15,0.5c4.5,0.5,7.2,3.1,8.2,7.5c0.3,1.3,0.5,2.7,0.6,4
			c0.1,2.5,0.1,5.1,0.1,7.6c0,2.4,0,2.4,2.3,2.4c4.9,0,9.8,0,14.7,0c3,0,2.7,0.1,2.7-2.8c0-20,0-40,0-59.9c0-0.3,0-0.5,0-0.8
			c0-1.9,0-1.9-2-1.9c-5.2,0-10.5,0-15.7,0c-2,0-2,0-2,2.2c0,3.6,0.1,7.1-0.3,10.7c-0.7,6.1-4.4,8-9,8.6c-4.7,0.6-9.5,0.4-14.2,0.5
			c-1.4,0-1.7-0.5-1.7-1.8c0-11.7,0-23.4,0-35.1c0-1.7,0.1-1.7,1.9-1.8c6.3,0,12.5,0,18.8,0c4.1,0,8.1,0.1,12.2,0.5
			c12,1,21.6,6.2,28.7,16.1c2.9,4,5.3,8.3,7.3,12.8c0.9,2.1,1,2.1,3.2,1.3c5.3-1.9,10.5-3.8,15.8-5.7c2-0.7,2.1-0.8,1.3-2.8
			c-3-8.3-6-16.6-8.9-24.8c-2.4-6.7-4.8-13.4-7.3-20c-0.7-2-0.7-2-2.9-2c-0.3,0-0.7,0-1,0c-40.8,0-81.6,0-122.4,0c-0.5,0-1,0-1.5,0
			c-1.8,0-1.9,0.1-1.9,1.8c0,5.9,0,11.9,0,17.8c0,1.8,0,1.8,1.8,1.9c3.2,0,6.4-0.1,9.6,0.3c4.2,0.4,6.4,2.5,6.8,6.8
			c0.2,2.1,0.3,4.2,0.3,6.3c0,27.9,0,55.7,0,83.6c0,2.6-0.1,5.3-0.2,7.9c-0.2,3.2-2.1,5.4-5.1,6.2c-1.3,0.3-2.6,0.6-4,0.6
			c-2.5,0-4.9,0.1-7.4,0.2c-1.8,0-1.8,0.1-1.9,1.8c0,5.6,0,11.2,0,16.8c0,3.1-0.3,2.9,2.9,2.9c42.7,0,85.3,0,128,0
			c3.3,0,2.7,0.3,3.7-2.6c4.9-13.8,9.8-27.6,14.6-41.4C491.7,208.7,493.3,204.2,494.8,199.7z M669.3,179.6c0-5.8-0.4-11.8-1.6-17.7
			c-5-24.8-19.1-42.8-41.7-54c-9.7-4.8-20.1-7-30.8-7.8c-12-0.9-23.9-0.2-35.4,3.2c-25.4,7.5-43.1,23.6-51.9,48.7
			c-4.9,13.7-5.3,28-3.3,42.4c4.1,29.3,24.3,53,52.7,61.3c19.8,5.8,39.8,5.6,59.6-0.4c20.5-6.2,35.4-19.4,44.7-38.7
			C667.1,205,669.4,192.6,669.3,179.6z M215.1,174.6c0.1-3.2,0.3-7.2,0.9-11.1c1.4-9.2,4.7-17.6,10.5-25
			c11.3-14.1,30.5-18.1,46.5-9.7c6.7,3.5,12.1,8.6,16.7,14.6c4.5,6,8.3,12.4,11.7,19c0.6,1.1,1.2,1.6,2.6,1.2c5.7-1.7,11.4-3.3,17-5
			c1.9-0.6,1.9-0.6,1.3-2.7c-2.7-9.9-5.4-19.7-8.1-29.6c-2-7.3-3.9-14.5-5.9-21.8c-0.6-2.1-0.6-2.1-2.7-2.1c-4,0-8,0-11.9,0
			c-1.1,0-1.9,0.3-2.4,1.4c-0.5,1.1-1.1,2.1-1.7,3.1c-1.4,2.5-1,2.3-3.3,1.1c-2.3-1.2-4.7-2.3-7.2-3.2c-13.6-5-27.5-6.1-41.7-4.1
			c-17.5,2.5-32.4,10.2-44.3,23.2c-11.9,12.9-18.6,28.3-20.3,45.8c-1.9,18.7,1.6,36.2,11.3,52.4c10.2,17,24.6,28.7,43.6,34.4
			c13.3,4,26.9,4.2,40.4,1.5c13.4-2.6,25.6-8.1,36.2-16.8c9.1-7.5,16.4-16.6,23.5-25.9c0.8-1,0.5-1.5-0.4-2.2
			c-4.9-3.5-9.7-7.1-14.5-10.7c-1-0.7-1.6-1-2.4,0.3c-0.8,1.4-1.9,2.6-2.9,3.8c-6.7,8.4-14.5,15.4-23.8,20.7c-8.7,5-18,7.2-28,6
			c-11.9-1.3-21-7.5-28-17C218.8,204,215.2,190.2,215.1,174.6z M407,433.6c-0.7,1-0.7,2-0.9,2.9c-0.8,3.4-1.9,6.7-3.1,9.9
			c-2.6,6.7-5.9,12.9-10.7,18.3c-4.9,5.5-11.1,8.7-18.5,9.6c-5.8,0.7-11.7,0.4-17.5,0.3c-3,0-3.6-0.8-3.8-3.9c0-0.9-0.1-1.9-0.1-2.8
			c0-11.6,0-23.2,0-34.8c0-0.3,0-0.7,0-1c0-0.8,0.3-1.2,1.2-1.2c3,0.1,6.1-0.1,9.1,0.4c2.2,0.3,3.5,1.5,4.4,3.4
			c0.8,1.9,1.2,3.9,1.3,5.9c0.1,3.6,0.1,7.3,0.2,10.9c0,1.8,0.1,1.8,1.8,1.8c4.1,0,8.1,0,12.2,0c2.9,0,2.7,0.4,2.7-2.8
			c0-21.3,0-42.5,0-63.8c0-0.5,0-1,0-1.5c0-0.9-0.3-1.4-1.3-1.4c-4.7,0-9.3,0-14,0c-1.2,0-1.4,0.5-1.4,1.6c0,2.5,0,4.9,0,7.4
			c-0.1,2.5,0,5.1-0.5,7.6c-0.7,3.6-2.5,5.3-6.2,5.7c-2.4,0.3-4.7,0.3-7.1,0.3c-2.3,0-2.3,0-2.3-2.4c0-10.8,0-21.5,0-32.3
			c0-0.3,0-0.7,0-1c-0.1-1,0.3-1.5,1.4-1.5c6.8,0.1,13.6-0.3,20.3,0.4c7.2,0.7,13,3.9,17.3,9.9c2.3,3.3,4.2,6.7,5.8,10.4
			c1.5,3.3,2.7,6.8,3.8,10.2c0.5,1.8,0.6,1.8,2.2,1c4.4-2.2,8.8-4.4,13.1-6.6c1.9-1,1.9-1,1.4-3c-4-15.7-8-31.3-12.1-47
			c-0.8-3.2-0.1-2.8-3.6-2.9c-30.2,0-60.5,0-90.7,0c-0.4,0-0.9,0-1.3,0c-1.2-0.1-1.8,0.3-1.8,1.7c0.1,6.9,0,13.9,0,20.8
			c0,1.7,0.1,1.8,1.9,1.8c2.1,0,4.2,0,6.3,0.1c3.2,0.2,4.5,1.4,5,4.6c0.2,1.7,0.4,3.4,0.4,5.1c0,31,0,62,0,93c0,1.4-0.1,2.9-0.3,4.3
			c-0.4,3.1-1.7,4.5-4.8,4.9c-2.2,0.3-4.4,0.3-6.6,0.4c-1.9,0-1.9,0-1.9,2c0,6.7,0,13.4,0,20.1c0,2.1,0,2.1,2.3,2.1
			c31.8,0,63.7,0,95.5,0c2.2,0,2.2,0,2.7-2.1c1.5-5.8,2.9-11.7,4.4-17.5c3.3-13,6.6-26.1,9.9-39.1c0.3-1,0.8-2-0.8-2.7
			C417.3,438.6,412.3,436.1,407,433.6z M461,492.5c0.9-0.1,1.2,0.4,1.6,0.7c2.3,2,4.7,3.8,7.3,5.4c12.1,7.4,24.8,8.6,38,3.8
			c11.4-4.2,19.2-12.4,24.5-23.1c6.1-12.4,7.1-25.5,4.3-38.9c-2.1-10.3-7.1-19.1-15.4-25.8c-4.7-3.8-9.9-6.7-15.5-9.1
			c-8.1-3.4-16.3-6.7-24.4-10c-2.9-1.2-5.7-2.6-8.2-4.4c-2.7-2-4.7-4.6-6-7.7c-2.1-5.5-0.7-10.7,3.7-14.2c2.2-1.7,4.7-2.5,7.5-2.7
			c8-0.5,14.7,2.6,20.5,7.8c4.5,4,7.9,8.8,10.8,14c2.5,4.3,4.6,8.9,6.4,13.5c0.5,1.2,1,1.5,2.3,1c4.7-1.9,9.4-3.8,14.1-5.6
			c1.1-0.4,1.5-0.9,1.1-2.1c-0.2-0.6-0.2-1.2-0.3-1.7c-1.8-9.9-3.6-19.8-5.4-29.7c-1.2-6.7-2.4-13.3-3.7-20
			c-0.5-2.5-0.2-2.1-2.5-2.1c-3.2,0-6.4,0-9.7,0c-1.2,0-1.8,0.4-2.2,1.5c-0.7,1.8-1.2,3.7-2.3,5.3c-1-0.3-1.6-1.1-2.4-1.6
			c-8.7-6.5-18.5-9-29.2-7.5c-13.3,1.9-23.6,8.7-30.4,20.2c-8.1,13.7-9.2,28.5-4.9,43.7c2.4,8.8,6.9,16.3,14.4,21.8
			c5.5,4,11.2,7.5,17.6,10.1c6,2.4,11.9,4.8,17.9,7.3c3.8,1.6,7.6,3.3,11.1,5.5c2.2,1.4,4.3,3,5.9,5.1c6,7.7,3.2,20.7-7.5,23.6
			c-1.6,0.4-3.1,0.7-4.8,0.7c-8,0.4-14.8-2.4-20.7-7.4c-5.1-4.3-9.2-9.5-12.6-15.2c-3.8-6.2-6.4-12.8-8.5-19.8
			c-0.5-1.7-0.6-1.8-2.3-1.2c-4.5,1.5-9,3-13.5,4.5c-2,0.7-2,0.7-1.7,2.9c1.3,10,2.6,20,3.9,30c1.3,9.7,2.5,19.5,3.8,29.2
			c0.3,2.1,0.3,2.1,2.3,2.1c3.4,0,6.8,0,10.2,0c1.3,0,2-0.3,2.3-1.7C459.2,498,460.1,495.2,461,492.5z M622.5,420.6
			C622.5,420.6,622.5,420.6,622.5,420.6c0-15.7,0-31.5,0-47.2c0-1.3,0-2.5,0.1-3.8c0.3-2.7,1-3.1,3.7-2.6c1.4,0.2,2.6,0.8,3.7,1.5
			c1.4,0.8,2.6,1.9,3.7,3c4.4,4.3,7.6,9.5,9.9,15.2c1.8,4.4,3.4,8.8,5.1,13.2c0.8,2,0.8,2.1,2.8,1.1c4.4-2.1,8.8-4.3,13.2-6.5
			c1.9-0.9,1.9-0.7,1.3-2.8c-2.5-9.8-5-19.7-7.5-29.5c-2-8-4.1-16.1-6.1-24.1c-0.2-1-0.3-2-1.8-1.9c-3.3,0.1-6.6,0.1-9.9,0
			c-1.1,0-1.5,0.5-1.7,1.4c-0.1,0.4-0.2,0.8-0.3,1.2c-0.8,3.3-0.5,2.7-3.4,2.7c-18.4,0-36.7,0-55.1,0c-1.3,0-3,0.6-3.9-0.3
			c-0.7-0.7-0.6-2.2-0.9-3.3c0-0.1-0.1-0.2-0.1-0.2c-0.1-1.2-0.8-1.5-1.9-1.5c-3,0.1-6.1,0.1-9.1,0c-1.3,0-2,0.4-2.3,1.7
			c-0.6,2.6-1.3,5.3-1.9,7.9c-3.8,15.2-7.6,30.3-11.4,45.5c-0.6,2.3-0.6,2.3,1.6,3.4c4,2,8,4,12,6c3,1.5,2.5,1.5,3.6-1.3
			c1.7-4.5,3.4-9,5.1-13.5c1.7-4.2,4-8,6.8-11.5c2-2.4,4.4-4.5,7.1-6.1c1.4-0.8,2.9-1.4,4.6-1.4c1.8-0.1,2.3,0.3,2.4,2.1
			c0.1,1.5,0.1,3,0.1,4.6c0,30.2,0,60.4,0,90.7c0,2.5-0.2,4.9-0.2,7.4c0,1.1-0.2,2.2-0.6,3.2c-0.6,1.8-1.7,3-3.8,3.2
			c-2.5,0.3-4.9,0.3-7.3,0.3c-1.2,0-1.7,0.3-1.6,1.6c0.1,1.2,0,2.4,0,3.6c0,5.7,0,11.3,0,17c0,2,0,2,2.1,2.1c0.3,0,0.5,0,0.8,0
			c17.3,0,34.5,0,51.8,0c0.5,0,1,0,1.5,0c1,0.1,1.3-0.4,1.3-1.4c0-7.1,0-14.2,0-21.3c0-1.3-0.6-1.5-1.7-1.5c-2.4,0-4.7-0.1-7.1-0.3
			c-2.9-0.2-4-1.3-4.5-4.2c-0.4-2.4-0.4-4.9-0.4-7.3C622.5,451.1,622.5,435.8,622.5,420.6z M268.8,417.1c0.6-0.4,1.2-0.8,1.8-1.2
			c4.7-2.9,8.5-6.8,11.2-11.6c8.2-14.9,8.5-30.1,0.5-45.1c-4.6-8.7-12-14-21.7-16.2c-4.4-1-8.8-1.5-13.3-1.5c-21.4,0-42.8,0-64.2,0
			c-0.3,0-0.7,0-1,0c-1.1-0.1-1.5,0.4-1.4,1.5c0,7.1,0,14.2,0,21.3c0,1.1,0.4,1.5,1.5,1.5c2.2,0,4.4,0,6.6,0.1
			c3.2,0.2,4.8,1.7,5.1,4.9c0.2,1.9,0.3,3.7,0.3,5.6c0,30.5,0,60.9,0,91.4c0,1.9-0.1,3.7-0.3,5.6c-0.3,2.8-1.6,4-4.3,4.5
			c-2.3,0.4-4.6,0.2-6.8,0.3c-1.9,0-1.9,0-1.9,2c0,6.4,0,12.9,0,19.3c0,3-0.5,2.9,2.8,2.9c18.9,0,37.8,0,56.6,0
			c5.8,0,11.5-0.3,17.2-1.2c12.7-2.1,22.4-8.5,28.5-19.8c7.5-13.8,8.3-28.2,3.3-43c-3.2-9.3-9.2-16.3-18.5-20.1
			C270,418,269.4,417.9,268.8,417.1z M497.9,283.8c-2.3,0-4.7,0.1-7,0c-1.3,0-1.9,0.4-2.2,1.8c-1.5,7.9-3.2,15.8-4.5,23.7
			c-0.2,1.1-0.4,2.1-0.6,3.1c-0.9-3.3-1.4-6.6-2-9.8c-1-5.7-2.1-11.3-3.2-17c-0.2-1.3-0.7-1.9-2.1-1.8c-1.9,0.1-3.9,0-5.8,0
			c-2,0-2,0-2.4,2.1c-1.3,6.1-2.5,12.3-3.8,18.4c-0.6,2.7-1.1,5.5-1.6,8.4c-0.7-0.6-0.7-1.2-0.8-1.8c-0.7-4.1-1.4-8.2-2.1-12.3
			c-0.8-4.4-1.6-8.8-2.5-13.2c-0.1-0.8-0.2-1.6-1.3-1.5c-2.8,0-5.5,0-8.1,0c-0.4,0.6-0.3,0.9-0.3,1.2c0.6,2.7,1.3,5.4,2,8.1
			c2.2,9.5,4.5,18.9,6.7,28.4c0.5,2,0.5,2,2.5,2c1.9,0,3.9,0,5.8,0c2,0,2.1,0,2.5-2c1.6-7.8,3.6-15.5,5-23.3
			c0.1-0.8,0.1-1.6,0.6-2.4c0.6,1,0.6,1.9,0.7,2.8c1.2,7.8,2.9,15.5,4.3,23.2c0.2,1.2,0.7,1.7,2,1.7c1.9-0.1,3.7,0,5.6,0
			c2.5,0,2.5,0,3.2-2.5c3-11.5,5.9-22.9,8.9-34.4C497.7,285.9,498.2,285,497.9,283.8z M225.4,295.2c0.8,4.7,1.5,8.9,2.3,13
			c0.8,4.5,1.7,9,2.6,13.4c0.4,1.9,0.4,2,2.5,2c1.7,0,3.4,0,5.1,0c2.4,0,2.5,0.5,3.2-2.4c2.9-11.5,6-23.1,8.9-34.6
			c0.1-0.6,0.3-1.1,0.4-1.7c0.2-0.8-0.2-1.1-0.9-1.1c-2.1,0-4.2,0.1-6.3,0c-1.3,0-1.7,0.4-2,1.7c-0.9,4.9-2,9.8-2.9,14.7
			c-0.8,4.1-1.5,8.2-2.2,12.3c-0.4-0.7-0.6-1.4-0.8-2.2c-0.5-3.3-1-6.5-1.6-9.8c-0.9-4.9-1.8-9.8-2.8-14.7c-0.4-1.9-0.4-1.9-2.4-2
			c-1.9,0-3.7,0-5.6,0c-1.9,0-1.9,0-2.3,1.9c-1.4,6.9-2.8,13.7-4.2,20.6c-0.4,2.1-0.8,4.1-1.2,6.3c-0.7-0.4-0.7-0.8-0.7-1.2
			c-1.3-8.6-3-17.1-4.6-25.7c-0.2-1.3-0.7-1.9-2.1-1.8c-2,0.1-4.1,0-6.1,0c-1.7,0-1.8,0.1-1.4,1.8c0.6,2.6,1.3,5.3,1.9,7.9
			c2.2,9.4,4.4,18.7,6.7,28.1c0.5,2,0.5,2,2.5,2c2,0,4.1,0,6.1,0c1.3,0,1.9-0.3,2.2-1.7c0.9-4.5,2-8.9,2.9-13.4
			C223.5,304.3,224.4,300,225.4,295.2z M573.3,304c0,5.8,0,11.7,0,17.5c0,1.9,0,2,2,2.2c5.6,0.4,11.2,0.7,16.7-0.4
			c8.3-1.6,14-6.1,15.9-14.6c0.4-1.6,0.6-3.3,0.7-5c0.4-10.9-5.2-17.9-16-19.6c-5.7-0.9-11.5-0.6-17.2,0.1c-2,0.2-2,0.3-2,2.3
			C573.3,292.3,573.3,298.2,573.3,304z M362.3,303.8c0,5.8,0,11.7,0,17.5c0,2.1,0,2.2,2,2.4c5.6,0.4,11.2,0.6,16.7-0.4
			c9.2-1.7,14.7-7.3,16.1-16.2c0.3-1.7,0.3-3.4,0.3-5.1c-0.2-9.8-5.8-16.3-15.4-17.8c-5.9-0.9-11.8-0.7-17.7,0c-2,0.2-2,0.2-2,2.3
			C362.3,292.3,362.3,298,362.3,303.8z M291.3,304c0-2.5-0.1-4.5-0.6-6.5c-1.9-8-7.7-13.3-15.9-14.3c-8.2-1-15.8,3-19.4,10.2
			c-2,4-2.6,8.2-2.3,12.6c0.7,9.9,6.7,16.8,16.2,18c8,1.1,18.1-2,21.2-13.9C291.1,308,291.3,305.8,291.3,304z M560.1,304.9
			c0.8-0.5,1.4-0.8,2-1.2c2.2-1.4,3.8-3.4,4.5-6c1.7-6.2-1.7-11.8-8.4-13.3c-6.2-1.4-12.5-0.8-18.7-0.1c-0.9,0.1-1.1,0.6-1.1,1.4
			c0,0.5,0,1,0,1.5c0,11.3,0,22.5,0,33.8c0,0.5,0,1,0,1.5c0,0.9,0.4,1.2,1.2,1.2c1.4,0,2.7,0,4.1,0c3.6,0,3.6,0,3.6-3.6
			c0-3.5,0-6.9,0-10.4c0-0.5-0.2-1.2,0.6-1.5c2.5-1,6.2,0.4,7.5,2.8c0.8,1.4,1,3,1.4,4.6c0.6,2.2,1.2,4.4,1.8,6.6
			c0.2,0.7,0.4,1.5,1.4,1.5c2.7,0,5.3,0.2,8.1-0.2c-1-3.8-2-7.4-2.9-10.9C564.5,309.4,563.1,306.6,560.1,304.9z M327.1,323.6
			c-1-3.7-1.9-7-2.8-10.4c-0.8-3.4-2.1-6.4-5.4-8.4c0.7-0.4,1.3-0.8,1.9-1.1c4.1-2.7,5.9-7.1,4.6-11.9c-1.2-4.5-4.6-6.5-8.7-7.6
			c-2.1-0.6-4.3-0.7-6.5-0.7c-3.7,0-7.4,0.1-11.1,0.5c-1.4,0.2-2,0.7-1.8,2.1c0.1,0.4,0,0.8,0,1.3c0,11,0,22,0,33c0,0.5,0,1,0,1.5
			c-0.1,1.2,0.3,1.7,1.6,1.7c1.9-0.1,3.9-0.1,5.8,0c1.3,0,1.6-0.6,1.5-1.7c0-3.3,0-6.6,0-9.9c0-1,0-2,0-3c0-0.4,0.1-0.8,0.6-1
			c2.7-1,6.4,0.5,7.5,3.2c0.6,1.3,0.9,2.7,1.2,4.1c0.6,2.3,1.3,4.6,1.9,6.8c0.2,0.9,0.7,1.5,1.7,1.5
			C321.7,323.6,324.3,323.6,327.1,323.6z M448.3,323.6c0.4-0.8,0.1-1.3-0.1-1.7c-1.5-4.9-3-9.8-4.6-14.8c-2.2-7.1-4.4-14.2-6.6-21.3
			c-0.6-2-0.6-2-2.8-2c-2.4,0-4.7,0-7.1,0c-2.8,0-2.4-0.3-3.2,2.5c-3.6,11.5-7.1,23.1-10.6,34.7c-0.2,0.8-0.8,1.5-0.4,2.7
			c2.2,0,4.4,0,6.7,0c2.2,0,2.2,0,2.8-2c0.6-2.2,1.3-4.4,1.8-6.6c0.3-1.2,0.9-1.6,2.1-1.6c2.6,0.1,5.2,0.1,7.9,0
			c1.4-0.1,2.1,0.5,2.5,1.9c0.6,2.4,1.4,4.7,2.1,7c0.2,0.6,0.4,1.3,1.3,1.3C442.7,323.6,445.6,323.6,448.3,323.6z M533.1,323.6
			c-1.3-4.2-2.4-7.9-3.6-11.6c-2.7-8.7-5.4-17.4-8.2-26.1c-0.8-2.6-0.7-2.1-3-2.1c-2.5,0-4.9,0-7.4,0c-2.1,0-2.1,0-2.7,2.1
			c-3.6,11.9-7.2,23.8-10.8,35.6c-0.2,0.6-0.7,1.2-0.1,2.1c2.3,0,4.8-0.1,7.2,0c1.1,0,1.7-0.4,1.9-1.5c0.6-2.3,1.3-4.6,1.8-6.9
			c0.3-1.3,0.8-2,2.4-2c2.6,0.1,5.2,0.1,7.9,0c1.4,0,2,0.5,2.3,1.8c0.6,2.4,1.4,4.7,2.1,7c0.2,0.7,0.4,1.5,1.5,1.5
			C527.2,323.6,529.9,323.6,533.1,323.6z M636.5,292.3c0.6-2,1.1-3.9,1.7-5.7c0.3-1,0.1-1.6-1-1.9c-5.8-1.9-11.7-2.3-17.3,0.4
			c-8.2,4-8.9,14-1.3,19.1c2,1.3,4.2,2.2,6.4,3.1c1.6,0.6,3.2,1.2,4.5,2.3c2.4,2,2,5.3-0.9,6.6c-0.9,0.4-1.9,0.6-2.9,0.7
			c-3.4,0.2-6.6-0.5-9.6-1.8c-0.9-0.4-1.4-0.3-1.6,0.7c-0.3,1.6-0.7,3.1-1.1,4.7c-0.3,1.1,0,1.7,1.1,2.1c2.5,1,5,1.5,7.6,1.7
			c4.3,0.4,8.5-0.1,12.3-2.3c7.5-4.3,7.9-14.5,0.7-19.4c-2-1.3-4.2-2.2-6.4-3.1c-1.6-0.6-3.2-1.2-4.5-2.3c-2.5-1.9-2.1-4.8,0.7-6
			c1.5-0.7,3.1-0.8,4.7-0.6C631.9,290.7,634.2,291.3,636.5,292.3z M332.3,303.6c0,6,0,12,0,18c0,1.9,0,2,1.9,2c5.7,0,11.5,0,17.2,0
			c1.8,0,4,0.8,5.2-0.3c1.3-1.2,0.4-3.5,0.4-5.3c0.1-1.8,0-1.9-2-1.9c-3.9,0-7.8,0-11.7,0c-2,0-2.1,0-2.1-2.1c0-5.7,0-11.5,0-17.2
			c0-3.6,0-7.1,0-10.7c0-2.2,0-2.2-2.3-2.2c-1.3,0-2.5,0-3.8,0c-3.1,0-2.9-0.3-2.9,2.8C332.3,292.3,332.3,297.9,332.3,303.6z
			 M655.8,106.4c1.3,0,2.5,0,3.8-0.3c9.1-1.8,15.3-9.3,15.1-18.4c-0.1-8.9-6.5-16.1-15.6-17.6c-10.8-1.8-20.9,5.9-21.8,16.5
			C636.4,97.3,644.9,106.4,655.8,106.4z"/>
		<path class="st2" d="M135,610.4c0.4,0,0.8,0.1,1.3,0.1c27.4,0,54.8,0,82.2,0c0,2.5,0.1,5.1,0.1,7.6c0,3.3-0.3,3,3,3
			c22,0,44,0,65.9,0c2.2,0,2.3,0,2.9,2.1c0.3,1.1,0.8,1.5,1.9,1.5c2-0.1,4.1,0,6.1,0c2.6,0,2.6,0,3.1-2.5c0.8-3.9,1.3-7.8,2.4-11.7
			c9.2,0,18.4,0,27.6,0c0.8,0,1.7,0.2,2.5-0.3c5.6,5.6,12.2,9.3,19.9,11.1c7.7,1.8,15.4,1.9,23.2,0.9c7.3-0.9,14.1-3.4,20.1-7.9
			c1.6-1.2,3.1-2.6,4.7-3.8c8.7,0,17.3,0,26,0.1c0,2.4,0.1,4.9,0.1,7.3c0,3.6-0.3,3.2,3.3,3.2c21.9,0,43.8,0,65.7,0
			c2.2,0,2.3,0,2.9,2.1c0.3,1.1,0.9,1.5,2,1.5c2.2-0.1,4.4,0,6.6,0c2,0,2,0,2.4-2c0.8-4.1,1.6-8.1,2.4-12.2c10.1,0,20.2,0,30.3,0
			c0.3,0.3,0.7,0.5,1,0.8c4.5,4.4,9.8,7.4,15.8,9.3c7.8,2.4,15.8,2.7,23.9,1.9c6-0.5,11.8-2.1,17.2-4.9c3.6-1.9,6.8-4.4,9.8-7.1
			c1.4,0,2.9,0,4.3,0c29,0,58.1,0,87.1,0c1.1,0,2.2,0,3.3,0c0,0.9,0.1,1.9,0.1,2.8c0,61.5,0,123.1,0,184.6c0,3.5,0.4,3.1-3.1,3.1
			c-188.4,0-376.7,0-565.1,0c-3.5,0-3.1,0.4-3.1-3.1c0-61.5,0-123.1,0-184.6C134.8,612.2,134.9,611.3,135,610.4z M434,767.3
			c0.1,0.3,0.1,0.3,0.2,0.1C434.1,767.4,434,767.4,434,767.3c0.2-0.7-0.1-1.4-0.3-2.2c-1-3.4-2-6.8-3-10.2c-0.7-2.4-0.7-2.4,1.4-4
			c3-2.3,5.9-4.5,8.8-6.8c0.4-0.3,1.1-0.5,0.9-1.3c-0.8-0.4-1.7-0.3-2.5-0.3c-3.6-0.1-7.3-0.2-10.9-0.2c-1.3,0-2-0.5-2.4-1.7
			c-1.3-3.8-2.7-7.6-4.1-11.5c-0.2-0.5-0.1-1.3-1.1-1.3c-1.5,4.1-3,8.2-4.5,12.3c-0.7,2-0.7,2-2.9,2.1c-3.9,0.1-7.8,0.1-11.7,0.3
			c-0.5,0-1.2-0.3-1.6,0.6c0.3,0.2,0.6,0.5,0.9,0.8c3.1,2.4,6.2,4.7,9.2,7.1c1.9,1.5,1.9,1.5,1.2,3.7c-0.6,2.1-1.3,4.2-1.9,6.3
			c-0.5,2.1-1.4,4.1-1.7,6.6c0.9-0.5,1.5-0.9,2.1-1.3c2.9-2,5.9-4,8.8-6c2.1-1.5,2.1-1.4,4.3,0.1c2.9,2,5.9,4,8.8,6
			C432.7,766.8,433.2,767.4,434,767.3z M308.1,671c-5.8,0-11.5,0-17.3,0c-2.1,0-2.1,0-2.1,2.1c0,4.7,0,9.3,0,14c0,2,0,2,2,2
			c3.7,0,7.4,0,11.2,0c2,0,2.1,0.3,2,2.2c-0.1,1-0.7,1.5-1.4,1.9c-3.4,1.7-7.1,2.9-10.9,3c-8.3,0.2-13.9-3.3-15.3-12.2
			c-0.6-3.8-0.6-7.6-0.2-11.4c0.4-3.2,1.2-6.3,3.5-8.8c3.4-3.8,7.7-4.6,12.5-4.2c4.3,0.3,7.4,2.3,8.9,6.4c0.5,1.3,1.1,1.6,2.4,1.3
			c7.3-1.3,14.7-2.4,22-3.7c1.6-0.3,1.7-0.4,1.2-2c-3.1-10.5-9.7-17.4-20.6-19.8c-3.3-0.7-6.7-0.9-10.1-1.1
			c-6.6-0.4-13.2-0.2-19.7,1.3c-11.2,2.7-19.5,9.2-23.9,20c-3.3,7.9-3.7,16.2-2.1,24.4c2.7,13.3,10.2,22.6,23.4,26.4
			c9.9,2.9,19.9,2.6,29.9,0.8c8.3-1.5,15.6-5.4,22.7-9.8c1.2-0.7,1.4-1.7,1.4-3c0-9.2,0-18.5,0-27.7c0-2.3,0-2.3-2.5-2.3
			C319.4,670.9,313.8,671,308.1,671z M442.3,677.6c0,11.1,0,22.2,0,33.3c0,3.3,0,3,3.1,3c18.5,0,37.1,0,55.6,0c0.5,0,1,0,1.5,0
			c1.1,0.1,1.5-0.4,1.5-1.5c0-5.9,0-11.8,0-17.8c0-0.9-0.3-1.4-1.3-1.4c-0.6,0-1.2,0-1.8,0c-9.6,0-19.3,0-28.9,0
			c-3.4,0-3.1,0.3-3.1-3.2c0-15.2,0-30.5,0-45.7c0-2.5,0-2.5-2.5-2.5c-7.2,0-14.4,0-21.6,0c-0.3,0-0.7,0-1,0
			c-1.1-0.1-1.5,0.5-1.4,1.5c0,0.6,0,1.2,0,1.8C442.3,655.9,442.3,666.8,442.3,677.6z M520.9,677.8c0,11,0,22,0,33
			c0,0.6,0,1.2,0,1.8c0,0.8,0.4,1.2,1.2,1.2c0.6,0,1.2,0,1.8,0c10,0,20,0,29.9,0c4.8,0,9.5-0.4,14.1-1.4c12.5-2.8,20.2-10.6,22.9-23
			c2-8.9,1.7-17.8-1-26.6c-3-9.4-9.1-15.9-18.5-19.1c-4.4-1.5-8.9-1.9-13.5-1.9c-11.5,0-23,0-34.5,0c-0.4,0-0.8,0-1.3,0
			c-0.8,0-1.2,0.4-1.2,1.2c0,0.7,0,1.4,0,2C520.9,656,520.9,666.9,520.9,677.8z M423.8,678.5c0-3.8-0.1-6.7-0.6-9.5
			c-2.1-11.7-8.3-20.3-19.4-24.8c-12.1-4.9-24.5-5-36.8-0.9c-11.6,3.9-18.9,12.2-21.6,24.2c-1.4,6.3-1.5,12.6-0.3,18.9
			c2.5,13,9.8,22.2,22.7,26.2c10.7,3.3,21.7,3.5,32.5,0.2c11.5-3.5,19.1-11.3,22.2-23.1C423.6,685.7,423.9,681.7,423.8,678.5z
			 M469.5,727.7c-0.8,0.8-0.9,1.4-1.1,1.9c-1.3,3.6-2.6,7.2-3.9,10.7c-0.7,2-0.7,2-2.9,2.1c-3.9,0.1-7.8,0.1-11.7,0.3
			c-0.5,0-1.2-0.3-1.6,0.6c0.4,0.3,0.7,0.6,1.1,0.9c3.1,2.4,6.3,4.9,9.5,7.2c1.1,0.8,1.4,1.6,1,3c-1.2,3.7-2.2,7.5-3.3,11.2
			c-0.2,0.6-0.6,1.2-0.2,1.9c0.9-0.2,1.5-0.8,2.2-1.3c3-2,6.1-4,9-6.2c1.3-0.9,2.1-0.8,3.3,0c2.9,2.1,5.8,4,8.8,6
			c0.7,0.5,1.3,1.1,2.2,1.2c0.5-0.9-0.1-1.6-0.3-2.4c-1-3.5-2-7-3.1-10.5c-0.4-1.3-0.2-2.2,1-3c1.8-1.2,3.5-2.6,5.3-4
			c1.8-1.4,3.7-2.6,5.3-4.3c-0.8-0.7-1.7-0.5-2.5-0.5c-3.7-0.1-7.4-0.2-11.2-0.2c-1.3,0-2-0.5-2.4-1.7c-1-3-2.1-6.1-3.2-9.1
			C470.5,730.3,470,729.1,469.5,727.7z M310.4,767.4c1.3-0.2,2-0.8,2.6-1.3c3-2,6-4,9-6.2c1.1-0.8,1.8-0.8,2.9,0
			c3.2,2.3,6.4,4.4,9.6,6.6c0.5,0.3,1,0.9,1.7,0.7c0.3-0.9-0.2-1.6-0.4-2.3c-1-3.3-2-6.6-2.9-10c-0.7-2.3-0.7-2.4,1.2-3.8
			c3-2.3,6-4.6,9.1-7c0.4-0.3,1.1-0.5,1-1.2c-0.4-0.4-0.8-0.3-1.3-0.3c-4-0.1-8-0.2-11.9-0.2c-1.5,0-2.3-0.4-2.8-1.9
			c-0.6-2.1-1.4-4.2-2.2-6.2c-0.8-2.2-1.5-4.5-2.5-6.6c-0.6,0.6-0.7,1.2-0.9,1.9c-1.2,3.3-2.3,6.5-3.5,9.8c-1.2,3.4-0.7,3-4.4,3.1
			c-3.4,0.1-6.8,0.1-10.2,0.2c-0.6,0-1.4-0.2-1.9,0.4c0.2,0.7,0.9,1,1.4,1.4c3.1,2.4,6.3,4.9,9.5,7.3c0.9,0.7,1.1,1.3,0.7,2.4
			c-0.6,1.6-1,3.2-1.4,4.9C312,761.6,311.2,764.4,310.4,767.4z M497.4,742.7c0,0.2-0.1,0.3-0.1,0.5c0.2,0.2,0.5,0.5,0.7,0.7
			c3.3,2.5,6.5,5.1,9.8,7.6c1.2,0.8,1.4,1.6,0.9,3c-1.2,3.7-2.2,7.5-3.3,11.2c-0.2,0.6-0.6,1.2-0.1,2c0.6-0.4,1.3-0.8,1.9-1.2
			c2.8-1.9,5.6-3.8,8.4-5.7c2.8-1.9,1.9-2,4.8-0.1c2.8,1.9,5.6,3.8,8.4,5.7c0.6,0.4,1.1,1,2,1c0.4-0.9-0.1-1.6-0.3-2.4
			c-1-3.4-1.9-6.8-3-10.2c-0.5-1.5-0.1-2.5,1.2-3.4c1.8-1.2,3.5-2.6,5.3-4c1.7-1.4,3.6-2.5,5.1-4.1c-0.4-0.7-1-0.5-1.5-0.5
			c-4-0.1-7.9-0.2-11.9-0.2c-1.5,0-2.3-0.6-2.7-2c-1-3-2-5.9-3.1-8.8c-0.5-1.3-0.8-2.7-1.7-4.1c-0.3,0.7-0.5,1.3-0.7,1.8
			c-1.3,3.7-2.7,7.5-4,11.2c-0.4,1.3-1.1,1.9-2.6,1.9c-1.3-0.1-2.7,0-4.1,0.1C503.6,742.5,500.5,742.6,497.4,742.7z M359.2,767.3
			c0.1,0.1,0.3,0.2,0.4,0.3c3.7-2.5,7.4-5,11.1-7.6c1.2-0.8,2-0.8,3.1,0c3.2,2.3,6.4,4.4,9.6,6.6c0.4,0.3,0.8,0.9,1.6,0.5
			c0.1-0.8-0.2-1.5-0.4-2.2c-0.9-3.3-1.9-6.7-2.8-10c-0.7-2.4-0.7-2.4,1.4-4c2.9-2.3,5.9-4.6,8.8-6.9c0.4-0.3,1-0.5,1-1.2
			c-0.9-0.4-1.8-0.3-2.6-0.3c-3.5-0.1-6.9-0.1-10.4-0.2c-2.2-0.1-2.2-0.1-3-2.2c-1.2-3.3-2.4-6.7-3.6-10c-0.3-0.8-0.3-1.7-1.1-2.2
			c-0.6,0.5-0.7,1.2-0.9,1.8c-1.3,3.6-2.7,7.1-3.9,10.7c-0.5,1.5-1.2,2-2.7,2c-3.6,0-7.3,0.1-10.9,0.2c-0.8,0-1.7-0.1-2.8,0.4
			c1,0.8,1.9,1.5,2.7,2.2c2.6,2,5.3,4,7.9,6c1.8,1.4,1.8,1.4,1.2,3.5c-0.3,0.9-0.5,1.8-0.8,2.7C361.1,760.7,360.2,764,359.2,767.3z"
			/>
		<path class="st1" d="M494.8,199.7c-1.6,4.6-3.2,9-4.7,13.5c-4.9,13.8-9.7,27.6-14.6,41.4c-1,2.9-0.4,2.6-3.7,2.6
			c-42.7,0-85.3,0-128,0c-3.1,0-2.9,0.3-2.9-2.9c0-5.6,0-11.2,0-16.8c0-1.8,0.1-1.8,1.9-1.8c2.5-0.1,4.9-0.1,7.4-0.2
			c1.4,0,2.7-0.3,4-0.6c3.1-0.8,4.9-3,5.1-6.2c0.2-2.6,0.2-5.2,0.2-7.9c0-27.9,0-55.7,0-83.6c0-2.1-0.1-4.2-0.3-6.3
			c-0.4-4.3-2.6-6.4-6.8-6.8c-3.2-0.3-6.4-0.2-9.6-0.3c-1.8,0-1.8-0.1-1.8-1.9c0-5.9,0-11.9,0-17.8c0-1.7,0.1-1.7,1.9-1.8
			c0.5,0,1,0,1.5,0c40.8,0,81.6,0,122.4,0c0.3,0,0.7,0,1,0c2.1,0,2.2,0,2.9,2c2.4,6.7,4.8,13.4,7.3,20c3,8.3,6,16.6,8.9,24.8
			c0.7,2.1,0.7,2.1-1.3,2.8c-5.3,1.9-10.5,3.8-15.8,5.7c-2.2,0.8-2.2,0.8-3.2-1.3c-2-4.5-4.5-8.7-7.3-12.8
			c-7-9.9-16.6-15.1-28.7-16.1c-4.1-0.3-8.1-0.5-12.2-0.5c-6.3,0-12.5,0-18.8,0c-1.9,0-1.9,0-1.9,1.8c0,11.7,0,23.4,0,35.1
			c0,1.2,0.3,1.8,1.7,1.8c4.7-0.1,9.5,0.1,14.2-0.5c4.6-0.6,8.3-2.5,9-8.6c0.4-3.5,0.3-7.1,0.3-10.7c0-2.2,0-2.2,2-2.2
			c5.2,0,10.5,0,15.7,0c1.9,0,1.9,0,2,1.9c0,0.3,0,0.5,0,0.8c0,20,0,40,0,59.9c0,2.9,0.4,2.8-2.7,2.8c-4.9,0-9.8,0-14.7,0
			c-2.3,0-2.3,0-2.3-2.4c0-2.5,0-5.1-0.1-7.6c-0.1-1.3-0.3-2.7-0.6-4c-1-4.4-3.7-7-8.2-7.5c-5-0.6-10-0.5-15-0.5
			c-1,0-1.4,0.4-1.4,1.3c0,0.3,0,0.7,0,1c0,11.3,0,22.5,0,33.8c0,1.5,0,3.1,0.2,4.6c0.2,2.4,1.2,3.4,3.6,3.9c1,0.2,2,0.4,3,0.4
			c7.9,0,15.7,0.3,23.6-0.3c16.3-1.2,28.9-8.6,38.1-22c3.3-4.8,5.8-9.9,7.8-15.4c0.7-2,0.7-2,2.6-1.3c5.6,1.9,11.2,3.8,16.8,5.8
			C493.8,199.2,494.3,199.4,494.8,199.7z"/>
		<path class="st1" d="M669.3,179.6c0.1,13.1-2.2,25.5-7.8,37.1c-9.3,19.3-24.2,32.4-44.7,38.7c-19.7,6-39.7,6.2-59.6,0.4
			c-28.4-8.3-48.6-32.1-52.7-61.3c-2-14.4-1.5-28.6,3.3-42.4c8.9-25.1,26.5-41.2,51.9-48.7c11.6-3.4,23.4-4.1,35.4-3.2
			c10.7,0.8,21.1,3,30.8,7.8c22.6,11.2,36.6,29.1,41.7,54C668.9,167.8,669.4,173.7,669.3,179.6z M546.3,180.9
			c0.1,4,0.3,8.4,0.9,12.8c1.3,9.3,4.1,18.1,9.5,25.9c4.4,6.4,10.1,11.1,17.5,13.6c4.9,1.7,9.9,2,15,1.7
			c10.1-0.6,18.4-4.8,24.7-12.8c4.8-6.1,8-12.9,9.9-20.4c3.4-13.5,3.4-27.1,0.8-40.8c-1.5-8-4.4-15.4-9.3-22
			c-6.7-9.1-15.7-14.2-27.1-14.5c-12.6-0.4-22.7,4.5-30.1,14.8c-2.3,3.2-4.3,6.7-5.9,10.3C547.9,159.5,546.5,169.9,546.3,180.9z"/>
		<path class="st1" d="M215.1,174.6c0.1,15.6,3.7,29.4,12.6,41.5c7,9.5,16,15.6,28,17c10,1.1,19.3-1.1,28-6
			c9.3-5.3,17.2-12.3,23.8-20.7c1-1.3,2.1-2.5,2.9-3.8c0.8-1.2,1.4-1,2.4-0.3c4.8,3.6,9.6,7.2,14.5,10.7c0.9,0.7,1.2,1.2,0.4,2.2
			c-7,9.3-14.4,18.4-23.5,25.9c-10.6,8.8-22.8,14.2-36.2,16.8c-13.6,2.7-27.1,2.5-40.4-1.5c-19-5.7-33.4-17.4-43.6-34.4
			c-9.7-16.2-13.2-33.7-11.3-52.4c1.7-17.5,8.4-32.9,20.3-45.8c12-13,26.9-20.6,44.3-23.2c14.2-2.1,28.2-0.9,41.7,4.1
			c2.5,0.9,4.9,2,7.2,3.2c2.3,1.2,1.9,1.4,3.3-1.1c0.6-1,1.2-2.1,1.7-3.1c0.5-1.1,1.3-1.4,2.4-1.4c4,0.1,8,0,11.9,0
			c2.1,0,2.1,0,2.7,2.1c2,7.3,4,14.5,5.9,21.8c2.7,9.9,5.4,19.7,8.1,29.6c0.6,2.1,0.6,2.1-1.3,2.7c-5.7,1.7-11.4,3.2-17,5
			c-1.4,0.4-2,0-2.6-1.2c-3.4-6.6-7.3-13-11.7-19c-4.5-6-10-11.1-16.7-14.6c-15.9-8.4-35.2-4.4-46.5,9.7c-5.9,7.3-9.1,15.8-10.5,25
			C215.4,167.4,215.1,171.4,215.1,174.6z"/>
		<path class="st1" d="M401.8,610.4c-1.6,1.3-3.1,2.6-4.7,3.8c-6,4.4-12.8,6.9-20.1,7.9c-7.8,1-15.5,0.9-23.2-0.9
			c-7.7-1.8-14.3-5.5-19.9-11.1c-8.1-8.7-11.9-19.1-12.9-30.8c-0.8-9.1-0.6-18.1,1.6-27c4.4-18.6,18.4-31.1,37.3-33.5
			c7.9-1,15.7-0.9,23.4,1.4c16.3,4.8,26.2,15.9,30.2,32.2c2.2,9,2,18.1,1.3,27.3c-0.2,3.1-0.8,6.2-1.4,9.3
			c-1.7,7.4-5.1,13.9-10.1,19.6C402.8,609.2,402.3,609.8,401.8,610.4z M388.3,570.7c0-1.5,0-3,0-4.6c-0.2-6.3-0.9-12.5-3.1-18.4
			c-1.3-3.5-3-6.6-5.7-9.2c-6-5.7-16.6-6.9-23.5,0.4c-3.4,3.6-5.4,7.9-6.4,12.7c-2.5,12-2.4,24-0.4,36.1c0.9,5.3,2.8,10.3,6.7,14.2
			c6.8,6.9,16.9,7,23.8,0.2c3.3-3.2,5.2-7.2,6.4-11.6C388,584,388.4,577.4,388.3,570.7z"/>
		<path class="st1" d="M611.3,610.4c-3.1,2.7-6.2,5.2-9.8,7.1c-5.4,2.8-11.2,4.4-17.2,4.9c-8,0.7-16.1,0.5-23.9-1.9
			c-6-1.9-11.3-4.9-15.8-9.3c-0.3-0.3-0.7-0.5-1-0.8c-1.4-1.8-2.9-3.5-4.2-5.3c-4.3-6-6.9-12.8-8.1-20.1c-1.9-11.4-1.8-22.8,1.2-34
			c4.8-18,18.5-29.8,37.1-32.1c8.3-1,16.6-0.8,24.6,1.7c15.5,5,24.8,15.8,28.8,31.4c1.7,6.6,2.1,13.4,1.9,20.2
			c-0.2,6.1-0.7,12.1-2.2,18.1c-1.8,7.1-5.3,13.1-10,18.6C612.2,609.3,611.7,609.8,611.3,610.4z M598,570.8
			c0.1-3.5-0.2-6.9-0.5-10.4c-0.4-4.6-1.3-9-2.9-13.3c-1.3-3.4-3.2-6.5-6-9c-6.7-5.9-16.4-5.7-22.7,0.6c-2.8,2.7-4.6,6-5.8,9.7
			c-1.3,4-2,8.1-2.3,12.2c-0.7,9.5-0.8,18.9,1.3,28.3c1.1,5,3,9.7,6.8,13.4c6.7,6.6,16.5,6.6,23.3,0.1c3.7-3.6,5.8-8,7-13
			C597.5,583.3,597.8,577,598,570.8z"/>
		<path class="st1" d="M303.9,610.4c-1,3.8-1.5,7.8-2.4,11.7c-0.5,2.5-0.5,2.5-3.1,2.5c-2,0-4.1-0.1-6.1,0c-1.2,0-1.6-0.4-1.9-1.5
			c-0.6-2.1-0.7-2.1-2.9-2.1c-22,0-44,0-65.9,0c-3.3,0-3,0.3-3-3c0-2.5-0.1-5.1-0.1-7.6c-0.4-2.7,1.1-4.1,3.3-5.5
			c14.3-9,27.8-19,41-29.5c3.5-2.7,6.6-5.8,9.4-9.2c2.9-3.4,5-7.2,5.6-11.7c0.8-5.2-0.7-9.5-4.7-13c-2.3-2-4.9-3.4-7.8-4.1
			c-6-1.5-12.1-1.5-18,0.5c-7,2.4-11.7,7-13.2,14.4c-0.4,2.1-0.3,4.2,0,6.3c0.2,0.9,0.1,1.4-1,1.5c-4.3,0.3-8.6,0.6-12.9,1.1
			c-1.4,0.1-1.8-0.5-2-1.6c-1.6-11.3,1-21.2,9.7-29c6.3-5.7,13.9-9,22.1-10.8c11.1-2.3,22-2.1,32.8,1.7c4.3,1.5,8.3,3.5,11.8,6.3
			c11.2,8.6,14.3,21.2,8.1,34.4c-2.3,5-5.9,9-10,12.7c-3.2,2.9-6.7,5.4-10.4,7.8c-8.4,5.5-17.1,10.7-25.8,15.7
			c-0.8,0.4-1.5,0.9-2.4,1.4c0.7,0.7,1.3,0.5,1.8,0.5c8,0,16.1,0,24.1,0c1.7,0,3.4-0.2,5.1-0.3c3.1-0.1,5-1.9,6-4.6
			c0.7-1.9,1.1-3.9,1.5-5.9c0.3-1.8,0.4-1.9,2.3-1.9c3.8,0,7.6,0,11.4,0c0.5,0,1-0.1,1.6,0.4c-0.8,4.1-1.6,8.4-2.4,12.6
			C305.1,603.7,304.2,607,303.9,610.4z"/>
		<path class="st1" d="M513.3,610.4c-0.8,4.1-1.6,8.1-2.4,12.2c-0.4,2-0.4,2-2.4,2c-2.2,0-4.4,0-6.6,0c-1.1,0-1.6-0.4-2-1.5
			c-0.6-2.1-0.7-2.1-2.9-2.1c-21.9,0-43.8,0-65.7,0c-3.6,0-3.3,0.4-3.3-3.2c0-2.4-0.1-4.9-0.1-7.3c-0.3-2.7,1.1-4.1,3.3-5.5
			c14.2-8.9,27.5-18.9,40.6-29.2c3.9-3.1,7.6-6.5,10.7-10.5c3.1-4,5-8.4,5-13.5c0-3.5-1.2-6.4-3.6-9c-2.5-2.7-5.6-4.4-9.1-5.3
			c-6-1.6-12.1-1.6-18,0.4c-7.4,2.5-12.2,7.4-13.4,15.4c-0.3,1.8-0.1,3.6,0.2,5.3c0.2,1.1-0.1,1.5-1.3,1.6c-4.1,0.3-8.3,0.7-12.4,1
			c-1.9,0.1-2,0.1-2.2-1.8c-1.7-12.4,1.8-22.8,11.9-30.5c6.7-5.1,14.4-8.2,22.7-9.5c10.2-1.6,20.2-1.2,30.1,2.3
			c4.3,1.5,8.2,3.6,11.8,6.3c11.1,8.5,14.3,21.6,8.2,34.2c-1.8,3.7-4.2,6.9-7,9.9c-3.3,3.4-7,6.4-10.9,9.1
			c-9.2,6.3-18.9,11.9-28.6,17.5c-0.7,0.4-1.5,0.6-2,1.4c0.5,0.5,1,0.3,1.5,0.3c8.2,0,16.4,0,24.6,0c1.7,0,3.4-0.2,5.1-0.3
			c2.8-0.1,4.5-1.7,5.6-4.1c0.9-2,1.3-4.2,1.7-6.4c0.3-1.8,0.4-1.9,2.3-1.9c4.2,0,8.4,0,12.8,0c0.2,1,0,1.9-0.2,2.8
			c-1.3,6.4-2.3,12.8-3.8,19.1C513.2,609.7,513.3,610,513.3,610.4z"/>
		<path class="st1" d="M407,433.6c5.3,2.6,10.3,5.1,15.5,7.4c1.5,0.7,1,1.7,0.8,2.7c-3.3,13-6.6,26.1-9.9,39.1
			c-1.5,5.8-2.9,11.7-4.4,17.5c-0.5,2.1-0.5,2.1-2.7,2.1c-31.8,0-63.7,0-95.5,0c-2.3,0-2.3,0-2.3-2.1c0-6.7,0-13.4,0-20.1
			c0-1.9,0-2,1.9-2c2.2,0,4.4,0,6.6-0.4c3.1-0.4,4.5-1.8,4.8-4.9c0.2-1.4,0.3-2.9,0.3-4.3c0-31,0-62,0-93c0-1.7-0.2-3.4-0.4-5.1
			c-0.4-3.2-1.8-4.5-5-4.6c-2.1-0.1-4.2-0.1-6.3-0.1c-1.8,0-1.9,0-1.9-1.8c0-6.9,0-13.9,0-20.8c0-1.4,0.5-1.8,1.8-1.7
			c0.4,0,0.8,0,1.3,0c30.2,0,60.5,0,90.7,0c3.5,0,2.8-0.4,3.6,2.9c4.1,15.6,8.1,31.3,12.1,47c0.5,2.1,0.5,2.1-1.4,3
			c-4.4,2.2-8.8,4.4-13.1,6.6c-1.6,0.8-1.7,0.8-2.2-1c-1.1-3.5-2.3-6.9-3.8-10.2c-1.6-3.7-3.5-7.1-5.8-10.4
			c-4.2-6-10.1-9.1-17.3-9.9c-6.8-0.7-13.5-0.2-20.3-0.4c-1.1,0-1.5,0.5-1.4,1.5c0,0.3,0,0.7,0,1c0,10.8,0,21.5,0,32.3
			c0,2.4,0,2.4,2.3,2.4c2.4,0,4.7,0,7.1-0.3c3.6-0.4,5.4-2.1,6.2-5.7c0.5-2.5,0.5-5.1,0.5-7.6c0.1-2.5,0.1-4.9,0-7.4
			c0-1,0.3-1.6,1.4-1.6c4.7,0,9.3,0,14,0c1,0,1.4,0.5,1.3,1.4c0,0.5,0,1,0,1.5c0,21.3,0,42.5,0,63.8c0,3.2,0.2,2.8-2.7,2.8
			c-4.1,0-8.1,0-12.2,0c-1.8,0-1.8,0-1.8-1.8c-0.1-3.6-0.1-7.3-0.2-10.9c-0.1-2-0.4-4-1.3-5.9c-0.8-1.9-2.2-3.1-4.4-3.4
			c-3-0.4-6.1-0.3-9.1-0.4c-0.9,0-1.2,0.4-1.2,1.2c0,0.3,0,0.7,0,1c0,11.6,0,23.2,0,34.8c0,0.9,0,1.9,0.1,2.8
			c0.1,3.1,0.8,3.9,3.8,3.9c5.8,0,11.7,0.4,17.5-0.3c7.4-0.9,13.5-4.1,18.5-9.6c4.8-5.4,8.1-11.6,10.7-18.3c1.2-3.2,2.3-6.6,3.1-9.9
			C406.3,435.5,406.4,434.6,407,433.6z M403.2,398.5c3.6-1.8,7.1-3.6,10.7-5.4c1.8-0.9,1.8-0.9,1.3-2.8c-2.3-8.8-4.6-17.7-6.8-26.5
			c-1.5-5.9-3-11.8-4.6-17.7c-0.5-2.1-0.6-2.1-2.7-2.1c-0.3,0-0.7,0-1,0c-28.6,0-57.2,0-85.9,0c-0.5,0-1,0-1.5,0
			c-1.3-0.1-1.8,0.4-1.8,1.7c0.1,5.4,0,10.8,0,16.3c0,1.3,0.5,1.6,1.7,1.6c2.1,0,4.2-0.1,6.3,0.4c1.9,0.4,3.2,1.5,4.1,3.1
			c0.7,1.3,1.1,2.7,1.2,4.1c0.2,2.4,0.3,4.9,0.3,7.4c0,29.1,0,58.3,0,87.4c0,2.4-0.1,4.7-0.3,7.1c-0.3,4-2.4,6.3-6.3,7.2
			c-1.7,0.4-3.4,0.2-5.1,0.3c-1.9,0.1-1.9,0.1-2,2c0,5.2,0,10.3,0,15.5c0,2.2,0,2.2,2.3,2.2c30.4,0,60.8,0,91.2,0
			c2.2,0,2.2,0,2.8-2.3c2.5-9.8,5-19.7,7.5-29.5c2-7.8,3.9-15.6,5.9-23.4c0.5-1.9,0.5-2-1.4-2.9c-2.6-1.3-5.2-2.6-7.8-3.8
			c-3.3-1.6-2.9-1.8-3.9,1.7c-2.4,8.5-5.9,16.6-11.3,23.7c-5.5,7.2-12.6,11.7-21.6,13c-5.6,0.8-11.3,0.5-17,0.5
			c-5.9-0.1-7.4-1.6-7.4-7.5c-0.1-13,0-25.9,0-38.9c0-0.3,0-0.7,0-1c0-0.9,0.5-1.2,1.3-1.2c4.1,0,8.1-0.2,12.2,0.5
			c2.4,0.4,4.2,1.7,5.3,3.9c1.4,2.7,1.8,5.6,2,8.6c0.1,2.5,0.1,5.1,0.1,7.6c0,1.2,0.3,1.9,1.7,1.8c3-0.1,5.9-0.1,8.9,0
			c1.2,0,1.7-0.5,1.6-1.7c0-0.5,0-1,0-1.5c0-19.5,0-38.9,0-58.4c0-0.5,0-1,0-1.5c0.1-1.2-0.4-1.6-1.6-1.6c-2.5,0.1-5.1,0-7.6,0
			c-3.3,0-2.9-0.3-2.9,3.1c0,3.8,0.1,7.6-0.6,11.4c-0.7,4.1-3.1,6.7-7.2,7.5c-3.9,0.8-7.9,0.3-11.9,0.4c-1.3,0-1.1-1-1.1-1.8
			c0-12.7,0-25.4,0-38.1c0-1.8,0.1-1.8,1.9-1.8c6.6,0,13.2,0,19.8,0.1c1.5,0,3,0.3,4.5,0.5c6.8,1.1,12.4,4.3,16.5,9.9
			c2.6,3.5,4.7,7.2,6.4,11.2C400.7,391.8,401.9,395.1,403.2,398.5z"/>
		<path class="st1" d="M461,492.5c-0.9,2.8-1.8,5.5-2.6,8.3c-0.4,1.3-1,1.7-2.3,1.7c-3.4-0.1-6.8,0-10.2,0c-2,0-2,0-2.3-2.1
			c-1.3-9.7-2.5-19.5-3.8-29.2c-1.3-10-2.6-20-3.9-30c-0.3-2.2-0.3-2.2,1.7-2.9c4.5-1.5,9-3,13.5-4.5c1.7-0.6,1.7-0.5,2.3,1.2
			c2.1,6.9,4.8,13.6,8.5,19.8c3.4,5.7,7.5,10.9,12.6,15.2c6,5,12.8,7.8,20.7,7.4c1.6-0.1,3.2-0.3,4.8-0.7
			c10.7-2.9,13.5-15.9,7.5-23.6c-1.6-2.1-3.7-3.7-5.9-5.1c-3.5-2.3-7.3-4-11.1-5.5c-5.9-2.4-11.9-4.9-17.9-7.3
			c-6.3-2.5-12.1-6.1-17.6-10.1c-7.5-5.5-12-13-14.4-21.8c-4.2-15.2-3.2-29.9,4.9-43.7c6.8-11.5,17.2-18.3,30.4-20.2
			c10.7-1.5,20.5,1,29.2,7.5c0.7,0.5,1.4,1.3,2.4,1.6c1.1-1.6,1.6-3.5,2.3-5.3c0.4-1.1,1-1.6,2.2-1.5c3.2,0.1,6.4,0,9.7,0
			c2.3,0,2.1-0.4,2.5,2.1c1.3,6.6,2.4,13.3,3.7,20c1.8,9.9,3.6,19.8,5.4,29.7c0.1,0.6,0.1,1.2,0.3,1.7c0.4,1.1,0,1.6-1.1,2.1
			c-4.7,1.8-9.4,3.7-14.1,5.6c-1.2,0.5-1.8,0.2-2.3-1c-1.8-4.7-3.9-9.2-6.4-13.5c-3-5.2-6.4-10-10.8-14c-5.8-5.2-12.5-8.3-20.5-7.8
			c-2.8,0.2-5.3,1-7.5,2.7c-4.4,3.5-5.8,8.7-3.7,14.2c1.2,3.2,3.2,5.7,6,7.7c2.5,1.8,5.3,3.2,8.2,4.4c8.1,3.3,16.3,6.6,24.4,10
			c5.6,2.3,10.8,5.3,15.5,9.1c8.4,6.7,13.3,15.5,15.4,25.8c2.8,13.4,1.9,26.5-4.3,38.9c-5.3,10.7-13.2,19-24.5,23.1
			c-13.2,4.8-25.9,3.6-38-3.8c-2.6-1.6-5-3.5-7.3-5.4C462.2,492.9,461.9,492.4,461,492.5z M460.1,488.1c1.2,0.6,2,1.7,3,2.4
			c1.1,0.9,2.1,1.7,3.1,2.6c10.7,8.7,22.8,11.6,36.2,8.5c12.1-2.7,20.6-10.4,26.6-20.8c7.4-12.9,8.4-26.8,5.2-41.1
			c-2.2-9.7-7.1-17.9-15.1-24c-4.4-3.4-9.2-6-14.3-8.2c-8.2-3.4-16.4-6.7-24.7-10.1c-3-1.2-5.8-2.7-8.5-4.6c-3.2-2.3-5.4-5.3-6.8-9
			c-2.3-6-0.9-11.6,3.8-16c3-2.8,6.7-3.8,10.7-3.9c7.3-0.1,13.5,2.5,19.2,7c5.7,4.5,9.8,10.2,13.3,16.5c2,3.6,3.8,7.4,5.4,11.2
			c0.4,0.9,0.7,1.8,2,1.3c3.6-1.5,7.2-2.9,10.8-4.3c0.8-0.3,1-0.8,0.9-1.6c-0.1-0.5-0.1-1-0.2-1.5c-2-10.7-3.9-21.5-5.9-32.2
			c-0.9-4.8-1.7-9.7-2.6-14.5c-0.3-1.8-0.4-1.9-2.3-1.9c-1.7,0-3.4,0-5.1,0c-3,0-2.7-0.3-3.9,2.5c-0.8,1.9-1.4,4-2.5,5.8
			c-1.1-0.3-1.6-1.1-2.3-1.7c-8.4-7.1-18-10.5-29.1-9.1c-13.1,1.6-23.1,8.1-29.7,19.4c-7.4,12.6-8.5,26.2-5,40.2
			c2.6,10.5,8.3,18.7,17.6,24.5c5.6,3.5,11.5,6.5,17.6,8.9c5.9,2.3,11.8,4.7,17.6,7.2c4.7,2.1,9.3,4.5,12.9,8.3
			c8.7,9.1,5.3,25.9-8.5,28.9c-3,0.6-6,0.8-9.1,0.5c-7.6-0.9-14-4.4-19.5-9.6c-5.2-4.9-9.3-10.5-12.7-16.7
			c-2.7-4.9-4.8-10.1-6.6-15.4c-0.6-1.7-0.6-1.7-2.3-1.2c-3.2,1.1-6.4,2.2-9.6,3.2c-1.3,0.4-1.7,1.1-1.5,2.4
			c0.3,1.9,0.5,3.9,0.7,5.8c1.6,12.4,3.3,24.8,4.9,37.2c0.5,4.2,1.1,8.4,1.6,12.6c0.3,2.1,0.3,2.1,2.6,2.1c1.9,0,3.9,0,5.8,0
			c2.1,0,2,0.3,2.7-2.1c0.6-1.9,1.2-3.9,1.8-5.8C459.1,490.8,459.3,489.4,460.1,488.1z"/>
		<path class="st1" d="M622.5,420.6c0,15.2,0,30.5,0,45.7c0,2.5,0,4.9,0.4,7.3c0.5,2.9,1.6,4,4.5,4.2c2.4,0.2,4.7,0.3,7.1,0.3
			c1.1,0,1.7,0.2,1.7,1.5c-0.1,7.1,0,14.2,0,21.3c0,0.9-0.3,1.4-1.3,1.4c-0.5,0-1,0-1.5,0c-17.3,0-34.5,0-51.8,0c-0.3,0-0.5,0-0.8,0
			c-2.1,0-2.1,0-2.1-2.1c0-5.7,0-11.3,0-17c0-1.2,0.1-2.4,0-3.6c-0.1-1.2,0.4-1.6,1.6-1.6c2.5,0.1,4.9,0,7.3-0.3
			c2.1-0.2,3.2-1.3,3.8-3.2c0.3-1,0.5-2.1,0.6-3.2c0.1-2.5,0.2-4.9,0.2-7.4c0-30.2,0-60.4,0-90.7c0-1.5,0-3-0.1-4.6
			c-0.2-1.8-0.6-2.2-2.4-2.1c-1.6,0.1-3.1,0.6-4.6,1.4c-2.8,1.6-5.1,3.6-7.1,6.1c-2.9,3.5-5.2,7.3-6.8,11.5c-1.8,4.5-3.4,9-5.1,13.5
			c-1.1,2.8-0.6,2.9-3.6,1.3c-4-2-8-4-12-6c-2.2-1.1-2.2-1.1-1.6-3.4c3.8-15.2,7.6-30.3,11.4-45.5c0.7-2.6,1.4-5.2,1.9-7.9
			c0.3-1.3,0.9-1.8,2.3-1.7c3,0.1,6.1,0.1,9.1,0c1.1,0,1.8,0.3,1.9,1.5c0,0.1,0,0.2,0.1,0.2c0.3,1.1,0.2,2.7,0.9,3.3
			c1,0.9,2.6,0.3,3.9,0.3c18.4,0,36.7,0,55.1,0c3,0,2.6,0.6,3.4-2.7c0.1-0.4,0.2-0.8,0.3-1.2c0.2-1,0.6-1.5,1.7-1.4
			c3.3,0,6.6,0.1,9.9,0c1.5,0,1.6,0.9,1.8,1.9c2,8,4.1,16.1,6.1,24.1c2.5,9.8,4.9,19.7,7.5,29.5c0.5,2.2,0.5,1.9-1.3,2.8
			c-4.4,2.2-8.8,4.3-13.2,6.5c-2,1-2,1-2.8-1.1c-1.7-4.4-3.3-8.9-5.1-13.2c-2.3-5.7-5.5-10.9-9.9-15.2c-1.2-1.1-2.4-2.2-3.7-3
			c-1.2-0.7-2.4-1.3-3.7-1.5c-2.7-0.4-3.4,0-3.7,2.6c-0.2,1.3-0.1,2.5-0.1,3.8C622.4,389.1,622.5,404.9,622.5,420.6
			C622.5,420.6,622.5,420.6,622.5,420.6z M563.7,398.7c0.5-1.2,0.9-2.2,1.3-3.2c1.1-2.9,2.1-5.7,3.2-8.6c1.6-4.3,3.7-8.3,6.4-12.1
			c2.7-3.7,5.9-6.8,9.9-8.9c1.8-1,3.7-1.6,5.8-1.5c2.5,0.1,3.7,1.2,4,3.7c0.2,1.7,0.1,3.4,0.1,5.1c0,29.1,0,58.2,0,87.4
			c0,3,0,5.9-0.1,8.9c0,1.7-0.2,3.4-0.6,5c-0.8,3.7-2.9,5.5-6.7,5.8c-1.4,0.1-2.9,0.1-4.3,0.1c-1.9,0.1-2,0.1-2,2c0,5,0,10,0,15
			c0,2.9-0.1,2.7,2.8,2.7c15.7,0,31.5,0,47.2,0c0.5,0,1,0,1.5,0c1,0.1,1.3-0.4,1.3-1.4c0-5.6,0-11.2,0-16.8c0-1.2-0.5-1.6-1.7-1.6
			c-1.7,0-3.4,0-5.1-0.1c-3.4-0.3-5.2-1.8-6.2-5.1c-0.2-0.8-0.4-1.7-0.4-2.5c-0.1-3.1-0.3-6.3-0.3-9.4c0-29.5,0-59.1,0-88.6
			c0-1.9,0.1-3.9,0.3-5.8c0.3-3.2,1.8-4.5,5-4.3c2.9,0.1,5.4,1.4,7.6,3.2c5.9,4.7,9.8,10.9,12.7,17.8c1.6,3.9,3.1,7.9,4.6,11.8
			c0.4,1.2,0.9,1.4,2,0.8c3.1-1.6,6.2-3.1,9.3-4.6c2.3-1.1,2.3-1.1,1.7-3.7c-3.2-12.6-6.4-25.2-9.6-37.9c-1-3.9-2-7.7-2.9-11.6
			c-0.3-1.4-0.9-2-2.4-1.8c-1.2,0.1-2.4,0-3.6,0c-3.4,0-3.4,0-4.3,3.2c-0.6,2.2-0.6,2.2-2.9,2.2c-20.3,0-40.6,0-60.9,0
			c-2.2,0-2.5-0.1-2.7-2.1c-0.1-0.7-0.3-1.3-0.4-2c-0.2-1-0.7-1.4-1.8-1.3c-1.7,0.1-3.4,0-5.1,0c-2.3,0-2.3,0-2.8,2.2
			c-3.7,14.7-7.4,29.4-11.1,44c-0.5,2-1,4.1-1.5,6.2c-0.2,0.8-0.2,1.5,0.7,1.9C555.8,394.8,559.7,396.7,563.7,398.7z"/>
		<path class="st1" d="M268.8,417.1c0.6,0.8,1.2,0.9,1.7,1.1c9.3,3.8,15.3,10.8,18.5,20.1c5,14.7,4.2,29.2-3.3,43
			c-6.1,11.3-15.8,17.7-28.5,19.8c-5.7,0.9-11.4,1.2-17.2,1.2c-18.9,0-37.8,0-56.6,0c-3.4,0-2.8,0.1-2.8-2.9c0-6.4,0-12.9,0-19.3
			c0-1.9,0-1.9,1.9-2c2.3-0.1,4.6,0.1,6.8-0.3c2.7-0.5,4-1.7,4.3-4.5c0.2-1.8,0.3-3.7,0.3-5.6c0-30.5,0-60.9,0-91.4
			c0-1.9-0.1-3.7-0.3-5.6c-0.3-3.2-1.8-4.7-5.1-4.9c-2.2-0.1-4.4-0.1-6.6-0.1c-1.1,0-1.5-0.4-1.5-1.5c0-7.1,0-14.2,0-21.3
			c0-1.1,0.3-1.6,1.4-1.5c0.3,0,0.7,0,1,0c21.4,0,42.8,0,64.2,0c4.5,0,8.9,0.5,13.3,1.5c9.6,2.2,17.1,7.5,21.7,16.2
			c8,15,7.7,30.2-0.5,45.1c-2.6,4.8-6.5,8.7-11.2,11.6C270,416.3,269.4,416.7,268.8,417.1z M262.7,417.6c1.4-0.7,2.4-1.2,3.4-1.7
			c6.3-3.2,11.3-7.8,14.5-14.1c6.5-12.8,6.9-25.9,1-38.9c-4.5-9.8-12.2-15.8-22.9-17.8c-4.6-0.9-9.2-1.1-13.9-1.1
			c-19.6,0-39.3,0-58.9,0c-0.4,0-0.8,0-1.3,0c-1.2-0.1-1.7,0.3-1.7,1.6c0,5.5,0,11,0,16.5c0,1.1,0.4,1.5,1.5,1.5
			c1.9,0,3.7-0.1,5.6,0.3c3.3,0.6,5.2,2.6,5.9,5.8c0.4,1.8,0.4,3.7,0.4,5.6c0,18.7,0,37.4,0,56.1c0,12.5,0,25.1,0,37.6
			c0,1.9,0,3.7-0.4,5.6c-0.8,3.6-3,5.5-6.7,5.8c-1.6,0.1-3.2,0.1-4.8,0.1c-0.9,0-1.4,0.4-1.4,1.3c0,5.7,0,11.3,0,17
			c0,1,0.3,1.4,1.3,1.4c0.4,0,0.8,0,1.3,0c19,0,37.9,0,56.9,0c5.2,0,10.5-0.5,15.6-1.5c10.9-2,19.3-7.6,24.9-17.2
			c7.7-13.3,8.7-27.4,4-41.9c-3.2-9.7-9.6-16.4-19.1-20C266.2,419,264.7,418.4,262.7,417.6z"/>
		<path class="st1" d="M497.9,283.8c0.3,1.2-0.2,2.1-0.4,2.9c-2.9,11.5-5.9,22.9-8.9,34.4c-0.6,2.5-0.6,2.5-3.2,2.5
			c-1.9,0-3.7-0.1-5.6,0c-1.3,0.1-1.8-0.5-2-1.7c-1.4-7.7-3.2-15.4-4.3-23.2c-0.1-0.9-0.1-1.9-0.7-2.8c-0.5,0.8-0.5,1.6-0.6,2.4
			c-1.4,7.8-3.3,15.5-5,23.3c-0.4,2-0.5,2-2.5,2c-1.9,0-3.9,0-5.8,0c-2,0-2,0-2.5-2c-2.3-9.5-4.5-18.9-6.7-28.4
			c-0.6-2.7-1.3-5.4-2-8.1c-0.1-0.3-0.1-0.7,0.3-1.2c2.6,0,5.3,0,8.1,0c1.1,0,1.1,0.8,1.3,1.5c0.8,4.4,1.7,8.8,2.5,13.2
			c0.7,4.1,1.4,8.2,2.1,12.3c0.1,0.6,0.1,1.2,0.8,1.8c0.6-2.9,1.1-5.6,1.6-8.4c1.2-6.1,2.5-12.3,3.8-18.4c0.4-2,0.4-2,2.4-2.1
			c1.9,0,3.9,0.1,5.8,0c1.4-0.1,1.9,0.5,2.1,1.8c1,5.7,2.1,11.3,3.2,17c0.6,3.2,1.1,6.5,2,9.8c0.2-1,0.4-2.1,0.6-3.1
			c1.3-7.9,2.9-15.8,4.5-23.7c0.3-1.4,0.8-1.8,2.2-1.8C493.2,283.9,495.6,283.8,497.9,283.8z"/>
		<path class="st1" d="M225.4,295.2c-1,4.8-1.9,9.1-2.8,13.4c-1,4.5-2,8.9-2.9,13.4c-0.3,1.4-0.9,1.8-2.2,1.7c-2-0.1-4.1,0-6.1,0
			c-2,0-2,0-2.5-2c-2.2-9.4-4.4-18.7-6.7-28.1c-0.6-2.6-1.3-5.3-1.9-7.9c-0.4-1.6-0.3-1.7,1.4-1.8c2,0,4.1,0.1,6.1,0
			c1.4-0.1,1.9,0.5,2.1,1.8c1.5,8.6,3.2,17.1,4.6,25.7c0.1,0.4,0,0.8,0.7,1.2c0.4-2.1,0.8-4.2,1.2-6.3c1.4-6.9,2.8-13.8,4.2-20.6
			c0.4-1.8,0.4-1.9,2.3-1.9c1.9,0,3.7,0,5.6,0c2,0,2.1,0,2.4,2c1,4.9,1.9,9.8,2.8,14.7c0.6,3.2,1.1,6.5,1.6,9.8
			c0.1,0.7,0.3,1.5,0.8,2.2c0.7-4.1,1.4-8.2,2.2-12.3c0.9-4.9,2-9.8,2.9-14.7c0.2-1.3,0.7-1.7,2-1.7c2.1,0.1,4.2,0,6.3,0
			c0.8,0,1.1,0.3,0.9,1.1c-0.1,0.6-0.3,1.1-0.4,1.7c-3,11.5-6,23.1-8.9,34.6c-0.7,2.9-0.8,2.4-3.2,2.4c-1.7,0-3.4,0-5.1,0
			c-2.1,0-2.1,0-2.5-2c-0.9-4.5-1.8-9-2.6-13.4C226.9,304.1,226.2,299.9,225.4,295.2z"/>
		<path class="st1" d="M573.3,304c0-5.8,0-11.7,0-17.5c0-2.1,0-2.1,2-2.3c5.7-0.7,11.5-1,17.2-0.1c10.8,1.7,16.4,8.7,16,19.6
			c-0.1,1.7-0.3,3.4-0.7,5c-1.9,8.5-7.6,13-15.9,14.6c-5.5,1.1-11.1,0.8-16.7,0.4c-1.9-0.1-1.9-0.2-2-2.2
			C573.3,315.7,573.3,309.8,573.3,304z M582.3,303.5c0,3.9,0,7.8,0,11.7c0,1.2,0.4,1.7,1.6,1.7c1.9,0,3.7,0.1,5.6-0.3
			c4.4-1,7.4-3.5,8.8-7.9c0.9-2.8,1-5.7,0.6-8.5c-0.6-3.8-2.4-6.9-6-8.5c-2.9-1.3-5.9-1.5-9-1.1c-1.2,0.1-1.5,0.6-1.5,1.8
			C582.4,296.1,582.3,299.8,582.3,303.5z"/>
		<path class="st1" d="M362.3,303.8c0-5.8,0-11.5,0-17.3c0-2.1,0-2.1,2-2.3c5.9-0.7,11.8-1,17.7,0c9.6,1.5,15.2,8,15.4,17.8
			c0,1.7,0,3.4-0.3,5.1c-1.4,8.9-7,14.5-16.1,16.2c-5.5,1-11.1,0.8-16.7,0.4c-2-0.1-2-0.2-2-2.4
			C362.3,315.5,362.3,309.6,362.3,303.8z M388,303c-0.1-1.1-0.1-2.2-0.3-3.3c-0.7-3.9-2.7-6.9-6.5-8.4c-2.6-1-5.2-1.2-8-0.9
			c-1.4,0.1-1.8,0.7-1.8,2.1c0.1,7.1,0,14.2,0,21.3c0,0.5,0,1,0,1.5c-0.1,1.1,0.4,1.6,1.4,1.5c1.3,0,2.7,0,4-0.1
			c5.9-0.6,9.9-4.3,10.8-10.2C387.9,305.4,387.9,304.2,388,303z"/>
		<path class="st1" d="M291.3,304c0.1,1.8-0.2,4-0.8,6.1c-3.1,11.9-13.2,15-21.2,13.9c-9.4-1.2-15.5-8.1-16.2-18
			c-0.3-4.4,0.3-8.6,2.3-12.6c3.6-7.2,11.1-11.2,19.4-10.2c8.2,1,14,6.2,15.9,14.3C291.1,299.6,291.3,301.6,291.3,304z M281.7,304
			c0.1-3.1-0.4-6-1.8-8.7c-1.6-3.1-4-5-7.6-5c-3.6,0-6.2,1.8-7.7,4.9c-2.8,5.6-2.8,11.4,0,17.1c1.5,3.1,4.2,4.9,7.7,4.8
			c3.5-0.1,6-1.9,7.6-5C281.2,309.5,281.7,306.8,281.7,304z"/>
		<path class="st1" d="M560.1,304.9c3.1,1.7,4.4,4.5,5.2,7.6c0.9,3.6,1.9,7.2,2.9,10.9c-2.8,0.4-5.5,0.1-8.1,0.2
			c-1,0-1.2-0.8-1.4-1.5c-0.6-2.2-1.2-4.4-1.8-6.6c-0.4-1.5-0.7-3.1-1.4-4.6c-1.3-2.4-5-3.8-7.5-2.8c-0.8,0.3-0.6,1-0.6,1.5
			c0,3.5,0,6.9,0,10.4c0,3.6,0,3.6-3.6,3.6c-1.4,0-2.7,0-4.1,0c-0.8,0-1.3-0.3-1.2-1.2c0-0.5,0-1,0-1.5c0-11.3,0-22.5,0-33.8
			c0-0.5,0-1,0-1.5c0-0.8,0.3-1.3,1.1-1.4c6.2-0.7,12.5-1.3,18.7,0.1c6.7,1.5,10.1,7.1,8.4,13.3c-0.7,2.6-2.2,4.5-4.5,6
			C561.5,304,560.9,304.4,560.1,304.9z M550.8,290.3c-0.8,0-1.5,0-2.3,0c-0.8,0-1.3,0.3-1.3,1.2c0,3,0,5.9,0,8.9c0,0.6,0.2,1,0.8,1
			c2.3,0,4.6,0.2,6.7-0.8c2.2-1.1,3.3-3,3.1-5.6c-0.2-2.3-1.5-3.7-3.8-4.5C553,290.3,551.9,290.3,550.8,290.3z"/>
		<path class="st1" d="M327.1,323.6c-2.8,0-5.4,0-7.9,0c-1.1,0-1.5-0.6-1.7-1.5c-0.6-2.3-1.3-4.6-1.9-6.8c-0.4-1.4-0.7-2.8-1.2-4.1
			c-1.2-2.7-4.8-4.2-7.5-3.2c-0.5,0.2-0.6,0.5-0.6,1c0,1,0,2,0,3c0,3.3,0,6.6,0,9.9c0,1.1-0.3,1.7-1.5,1.7c-1.9-0.1-3.9-0.1-5.8,0
			c-1.3,0-1.7-0.5-1.6-1.7c0-0.5,0-1,0-1.5c0-11,0-22,0-33c0-0.4,0-0.9,0-1.3c-0.2-1.4,0.4-1.9,1.8-2.1c3.7-0.5,7.4-0.5,11.1-0.5
			c2.2,0,4.4,0.1,6.5,0.7c4.1,1.1,7.5,3.1,8.7,7.6c1.3,4.7-0.4,9.2-4.6,11.9c-0.6,0.4-1.1,0.7-1.9,1.1c3.3,1.9,4.5,5,5.4,8.4
			C325.1,316.6,326.1,319.9,327.1,323.6z M306.1,295.9C306.1,295.9,306.1,295.9,306.1,295.9c0,1.4,0,2.9,0,4.3c0,0.6,0,1.2,0.9,1.2
			c2.4,0,4.7,0.2,6.9-0.9c2.1-1.1,3-2.9,2.8-5.5c-0.2-2.3-1.5-3.7-3.6-4.4c-2-0.6-4-0.4-6-0.3c-0.7,0-1,0.6-1,1.2
			C306.1,293,306.1,294.5,306.1,295.9z"/>
		<path class="st1" d="M448.3,323.6c-2.7,0-5.5,0-8.4,0c-0.9,0-1.1-0.7-1.3-1.3c-0.7-2.3-1.5-4.7-2.1-7c-0.4-1.4-1-1.9-2.5-1.9
			c-2.6,0.1-5.2,0.1-7.9,0c-1.2,0-1.8,0.4-2.1,1.6c-0.5,2.2-1.2,4.4-1.8,6.6c-0.6,2-0.6,2-2.8,2c-2.3,0-4.5,0-6.7,0
			c-0.4-1.2,0.1-1.9,0.4-2.7c3.5-11.6,7-23.1,10.6-34.7c0.8-2.7,0.4-2.4,3.2-2.5c2.4,0,4.7,0,7.1,0c2.2,0,2.2,0,2.8,2
			c2.2,7.1,4.4,14.2,6.6,21.3c1.5,4.9,3.1,9.8,4.6,14.8C448.3,322.3,448.7,322.8,448.3,323.6z M430.3,291.3
			c-1.5,5.1-2.9,10.1-4.4,15.2c2.9,0,5.7,0,8.6,0C433,301.3,431.6,296.3,430.3,291.3z"/>
		<path class="st1" d="M533.1,323.6c-3.1,0-5.9,0-8.7,0c-1,0-1.2-0.7-1.5-1.5c-0.7-2.3-1.5-4.7-2.1-7c-0.3-1.3-0.9-1.8-2.3-1.8
			c-2.6,0.1-5.2,0.1-7.9,0c-1.5-0.1-2.1,0.6-2.4,2c-0.5,2.3-1.2,4.6-1.8,6.9c-0.3,1.1-0.8,1.5-1.9,1.5c-2.4-0.1-4.9,0-7.2,0
			c-0.6-0.9-0.1-1.5,0.1-2.1c3.6-11.9,7.2-23.8,10.8-35.6c0.6-2.1,0.6-2.1,2.7-2.1c2.5,0,4.9,0,7.4,0c2.3,0,2.2-0.5,3,2.1
			c2.7,8.7,5.4,17.4,8.2,26.1C530.6,315.8,531.8,319.5,533.1,323.6z M514.4,290.5c-1.2,5.7-2.7,10.8-4.2,15.9c3,0,5.7,0,8.6,0
			C517.4,301.2,516,296.2,514.4,290.5z"/>
		<path class="st1" d="M636.5,292.3c-2.4-1-4.6-1.6-7-1.7c-1.6-0.1-3.2,0-4.7,0.6c-2.8,1.3-3.2,4.2-0.7,6c1.4,1,3,1.6,4.5,2.3
			c2.2,0.9,4.4,1.7,6.4,3.1c7.2,4.9,6.8,15.1-0.7,19.4c-3.8,2.2-8,2.6-12.3,2.3c-2.6-0.2-5.2-0.7-7.6-1.7c-1.1-0.4-1.4-1-1.1-2.1
			c0.4-1.5,0.8-3.1,1.1-4.7c0.2-1,0.7-1.1,1.6-0.7c3.1,1.3,6.3,2,9.6,1.8c1-0.1,2-0.2,2.9-0.7c2.8-1.3,3.3-4.6,0.9-6.6
			c-1.3-1.1-2.9-1.7-4.5-2.3c-2.2-0.8-4.4-1.7-6.4-3.1c-7.5-5.1-6.9-15.1,1.3-19.1c5.7-2.7,11.5-2.3,17.3-0.4c1.1,0.3,1.3,0.9,1,1.9
			C637.6,288.4,637.1,290.3,636.5,292.3z"/>
		<path class="st1" d="M332.3,303.6c0-5.7,0-11.3,0-17c0-3.1-0.2-2.8,2.9-2.8c1.3,0,2.5,0,3.8,0c2.2,0,2.3,0,2.3,2.2
			c0,3.6,0,7.1,0,10.7c0,5.8,0,11.5,0,17.2c0,2.1,0,2.1,2.1,2.1c3.9,0,7.8,0,11.7,0c2,0,2.1,0,2,1.9c-0.1,1.8,0.8,4.1-0.4,5.3
			c-1.2,1.1-3.4,0.3-5.2,0.3c-5.7,0-11.5,0-17.2,0c-1.9,0-1.9,0-1.9-2C332.3,315.6,332.3,309.6,332.3,303.6z"/>
		<path class="st1" d="M655.8,106.4c-10.9-0.1-19.4-9.1-18.5-19.8c0.9-10.7,11-18.3,21.8-16.5c9.1,1.6,15.5,8.7,15.6,17.6
			c0.1,9-6,16.5-15.1,18.4C658.3,106.4,657,106.4,655.8,106.4z M656.2,102.7c7.7,0,13.9-6.6,13.8-14.6c-0.1-8.2-6.4-14.6-14.2-14.5
			c-7.7,0.1-13.9,6.5-14,14.5C641.8,96.2,648.2,102.8,656.2,102.7z"/>
		<path class="st1" d="M308.1,671c5.7,0,11.3,0,17,0c2.4,0,2.5,0,2.5,2.3c0,9.2,0,18.5,0,27.7c0,1.3-0.2,2.2-1.4,3
			c-7.1,4.4-14.4,8.3-22.7,9.8c-10,1.8-20.1,2-29.9-0.8c-13.2-3.9-20.7-13.2-23.4-26.4c-1.7-8.3-1.2-16.5,2.1-24.4
			c4.5-10.8,12.7-17.3,23.9-20c6.5-1.6,13.1-1.7,19.7-1.3c3.4,0.2,6.7,0.4,10.1,1.1c10.9,2.4,17.5,9.3,20.6,19.8
			c0.5,1.6,0.3,1.8-1.2,2c-7.3,1.2-14.7,2.4-22,3.7c-1.3,0.2-2,0-2.4-1.3c-1.4-4.2-4.6-6.1-8.9-6.4c-4.8-0.4-9.1,0.4-12.5,4.2
			c-2.2,2.5-3.1,5.6-3.5,8.8c-0.4,3.8-0.4,7.6,0.2,11.4c1.4,8.9,7,12.4,15.3,12.2c3.9-0.1,7.5-1.3,10.9-3c0.8-0.4,1.4-0.8,1.4-1.9
			c0.1-1.9-0.1-2.2-2-2.2c-3.7,0-7.4,0-11.2,0c-1.9,0-2,0-2-2c0-4.7,0-9.3,0-14c0-2.1,0-2.1,2.1-2.1
			C296.6,670.9,302.3,671,308.1,671z M308.3,674.9c-4.5,0-9,0-13.5,0c-2.2,0-2.2,0-2.2,2.3c0,1.9,0,3.7,0,5.6c0,2.4,0,2.4,2.3,2.4
			c3.6,0,7.3,0,10.9,0c1.8,0,1.8,0.1,1.9,1.9c0,2,0,4.1,0,6.1c0,1.1-0.3,1.7-1.3,2.2c-5.7,3.2-11.7,5.1-18.4,4.5
			c-7.6-0.7-13.2-5.2-15.1-12.6c-1.6-6.2-1.7-12.4-0.1-18.6c1.8-7.1,6.2-11.6,13.5-12.8c6.8-1.1,13.1-0.1,17.1,6.4
			c0.5,0.8,1.1,0.9,1.9,0.7c4.8-0.8,9.7-1.6,14.5-2.4c2-0.3,2.1-0.5,1.2-2.5c-3-6.4-7.8-10.7-14.7-12.2c-9.9-2.2-20-2.4-29.9,0
			c-10.7,2.6-18.1,9.2-21.5,19.8c-2.5,7.8-2.5,15.7-0.2,23.5c3.3,10.7,10.3,17.7,21.3,20.3c8.3,2,16.6,1.8,25,0.6
			c7.8-1.1,14.6-4.5,21.3-8.5c1-0.6,1.3-1.4,1.3-2.5c0-7.4,0-14.9,0-22.3c0-2,0-2-2.2-2C317.1,674.9,312.7,674.9,308.3,674.9z"/>
		<path class="st1" d="M442.3,677.6c0-10.8,0-21.7,0-32.5c0-0.6,0-1.2,0-1.8c-0.1-1,0.3-1.6,1.4-1.5c0.3,0,0.7,0,1,0
			c7.2,0,14.4,0,21.6,0c2.5,0,2.5,0,2.5,2.5c0,15.2,0,30.5,0,45.7c0,3.5-0.3,3.2,3.1,3.2c9.6,0,19.3,0,28.9,0c0.6,0,1.2,0,1.8,0
			c1,0,1.3,0.5,1.3,1.4c0,5.9,0,11.8,0,17.8c0,1.1-0.4,1.6-1.5,1.5c-0.5,0-1,0-1.5,0c-18.5,0-37.1,0-55.6,0c-3.1,0-3.1,0.3-3.1-3
			C442.4,699.8,442.3,688.7,442.3,677.6z M446.2,677.7c0,10.1,0,20.1,0,30.2c0,2,0,2,1.9,2c0.5,0,1,0,1.5,0c14.3,0,28.6,0,42.9,0
			c1.9,0,3.7,0,5.6,0c1.8,0,1.9-0.1,1.9-1.8c0-2.5,0-5.1,0-7.6c0-3.8,0.4-3.5-3.3-3.5c-9.8,0-19.6,0-29.5,0c-2.3,0-2.3,0-2.3-2.2
			c0-0.5,0-1,0-1.5c0-14.7,0-29.5,0-44.2c0-0.4,0-0.8,0-1.3c0-2.3,0-2.3-2.2-2.3c-1.2,0-2.4,0-3.6,0c-3.5,0-6.9,0-10.4,0
			c-2.6,0-2.6,0-2.6,2.7c0,0.3,0,0.7,0,1C446.2,658.7,446.2,668.2,446.2,677.7z"/>
		<path class="st1" d="M520.9,677.8c0-10.9,0-21.8,0-32.7c0-0.7,0-1.4,0-2c0-0.8,0.4-1.3,1.2-1.2c0.4,0,0.8,0,1.3,0
			c11.5,0,23,0,34.5,0c4.6,0,9.1,0.4,13.5,1.9c9.4,3.2,15.5,9.7,18.5,19.1c2.8,8.7,3,17.7,1,26.6c-2.7,12.4-10.4,20.2-22.9,23
			c-4.6,1-9.3,1.4-14.1,1.4c-10,0-20,0-29.9,0c-0.6,0-1.2,0-1.8,0c-0.8,0-1.2-0.4-1.2-1.2c0-0.6,0-1.2,0-1.8
			C520.9,699.8,520.9,688.8,520.9,677.8z M524.8,677.8c0,9.6,0,19.3,0,28.9c0,0.7,0,1.4,0,2c0,0.9,0.4,1.2,1.2,1.2
			c0.6,0,1.2,0,1.8,0c8.9,0,17.8,0,26.7,0c3.8,0,7.6-0.4,11.3-1c11.5-2.1,18.7-8.8,21.2-20.1c1.7-7.6,1.6-15.3-0.4-22.9
			c-2.9-11-9.9-17.8-21.4-19.6c-3-0.5-6.1-0.7-9.1-0.7c-9.6,0-19.1,0-28.7,0c-0.5,0-1,0-1.5,0c-0.9,0-1.2,0.5-1.2,1.3
			c0,0.6,0,1.2,0,1.8C524.8,658.3,524.8,668,524.8,677.8z"/>
		<path class="st1" d="M423.8,678.5c0.1,3.1-0.3,7.2-1.3,11.1c-3.1,11.8-10.7,19.5-22.2,23.1c-10.8,3.3-21.8,3.2-32.5-0.2
			c-12.8-4-20.2-13.1-22.7-26.2c-1.2-6.3-1.1-12.6,0.3-18.9c2.7-12,9.9-20.3,21.6-24.2c12.3-4.1,24.7-4,36.8,0.9
			c11.1,4.5,17.3,13.1,19.4,24.8C423.8,671.9,423.8,674.7,423.8,678.5z M420.1,677.4c-0.1-1.5-0.1-3.6-0.4-5.7
			c-1.5-11.8-7.4-20.5-18.8-24.5c-11-3.9-22.3-4-33.3,0c-9.3,3.3-15.4,10-17.9,19.6c-1.9,7.3-2,14.8,0,22.1
			c2.6,9.6,8.6,16.5,18.1,19.7c10.4,3.5,21.2,3.8,31.7,0.5c10.3-3.2,16.9-10.2,19.4-20.9C419.7,684.8,419.8,681.4,420.1,677.4z"/>
		<path class="st1" d="M469.5,727.7c0.5,1.4,1,2.7,1.5,3.9c1.1,3,2.2,6,3.2,9.1c0.4,1.2,1.1,1.7,2.4,1.7c3.7,0,7.4,0.1,11.2,0.2
			c0.8,0,1.7-0.3,2.5,0.5c-1.6,1.6-3.5,2.9-5.3,4.3c-1.7,1.4-3.4,2.7-5.3,4c-1.2,0.8-1.4,1.7-1,3c1.1,3.5,2.1,7,3.1,10.5
			c0.2,0.8,0.8,1.5,0.3,2.4c-0.9,0-1.5-0.7-2.2-1.2c-2.9-2-5.9-3.9-8.8-6c-1.2-0.9-2.1-1-3.3,0c-2.9,2.1-6,4.1-9,6.2
			c-0.7,0.5-1.3,1.1-2.2,1.3c-0.4-0.7,0-1.3,0.2-1.9c1.1-3.7,2.1-7.5,3.3-11.2c0.5-1.4,0.1-2.1-1-3c-3.2-2.3-6.3-4.8-9.5-7.2
			c-0.4-0.3-0.8-0.6-1.1-0.9c0.4-0.9,1.1-0.6,1.6-0.6c3.9-0.1,7.8-0.2,11.7-0.3c2.1-0.1,2.2-0.1,2.9-2.1c1.3-3.6,2.6-7.2,3.9-10.7
			C468.6,729,468.7,728.4,469.5,727.7z"/>
		<path class="st1" d="M434,767.3c-0.8,0.1-1.2-0.5-1.8-0.8c-2.9-2-5.9-4-8.8-6c-2.2-1.5-2.2-1.5-4.3-0.1c-2.9,2-5.9,4-8.8,6
			c-0.6,0.4-1.3,0.8-2.1,1.3c0.3-2.4,1.2-4.5,1.7-6.6c0.6-2.1,1.2-4.2,1.9-6.3c0.7-2.2,0.7-2.2-1.2-3.7c-3.1-2.4-6.2-4.7-9.2-7.1
			c-0.3-0.3-0.6-0.5-0.9-0.8c0.4-0.9,1.1-0.6,1.6-0.6c3.9-0.1,7.8-0.2,11.7-0.3c2.1-0.1,2.2-0.1,2.9-2.1c1.5-4.1,3-8.2,4.5-12.3
			c1,0,0.9,0.8,1.1,1.3c1.4,3.8,2.8,7.6,4.1,11.5c0.4,1.3,1.1,1.7,2.4,1.7c3.6,0,7.3,0.1,10.9,0.2c0.8,0,1.7-0.1,2.5,0.3
			c0.2,0.8-0.5,1-0.9,1.3c-2.9,2.3-5.9,4.5-8.8,6.8c-2,1.6-2.1,1.6-1.4,4c1,3.4,2,6.8,3,10.2C433.8,765.9,434.2,766.6,434,767.3
			L434,767.3z"/>
		<path class="st1" d="M310.4,767.4c0.9-3,1.7-5.8,2.4-8.5c0.5-1.6,0.9-3.3,1.4-4.9c0.4-1.1,0.1-1.7-0.7-2.4
			c-3.2-2.4-6.3-4.8-9.5-7.3c-0.5-0.4-1.2-0.6-1.4-1.4c0.5-0.6,1.3-0.4,1.9-0.4c3.4-0.1,6.8-0.1,10.2-0.2c3.8-0.1,3.2,0.3,4.4-3.1
			c1.2-3.3,2.3-6.5,3.5-9.8c0.2-0.6,0.3-1.3,0.9-1.9c1.1,2.2,1.7,4.4,2.5,6.6c0.8,2.1,1.6,4.1,2.2,6.2c0.4,1.5,1.3,1.9,2.8,1.9
			c4,0,8,0.1,11.9,0.2c0.4,0,0.8-0.1,1.3,0.3c0.1,0.7-0.6,0.9-1,1.2c-3,2.3-6,4.6-9.1,7c-1.9,1.5-1.9,1.5-1.2,3.8
			c1,3.3,2,6.6,2.9,10c0.2,0.7,0.6,1.4,0.4,2.3c-0.7,0.2-1.2-0.4-1.7-0.7c-3.2-2.2-6.5-4.3-9.6-6.6c-1.1-0.8-1.8-0.8-2.9,0
			c-3,2.1-6,4.1-9,6.2C312.3,766.6,311.7,767.2,310.4,767.4z"/>
		<path class="st1" d="M497.4,742.7c3.1-0.1,6.2-0.1,9.3-0.2c1.4,0,2.7-0.1,4.1-0.1c1.4,0.1,2.1-0.5,2.6-1.9c1.3-3.8,2.7-7.5,4-11.2
			c0.2-0.6,0.4-1.1,0.7-1.8c0.9,1.4,1.2,2.8,1.7,4.1c1.1,2.9,2.2,5.9,3.1,8.8c0.5,1.4,1.2,2,2.7,2c4,0,7.9,0.1,11.9,0.2
			c0.5,0,1-0.1,1.5,0.5c-1.5,1.5-3.4,2.7-5.1,4.1c-1.7,1.4-3.4,2.7-5.3,4c-1.3,0.9-1.6,1.9-1.2,3.4c1.1,3.4,2,6.8,3,10.2
			c0.2,0.8,0.8,1.5,0.3,2.4c-0.9,0-1.4-0.6-2-1c-2.8-1.9-5.6-3.8-8.4-5.7c-2.8-1.9-1.9-1.8-4.8,0.1c-2.8,1.9-5.6,3.8-8.4,5.7
			c-0.6,0.4-1.3,0.8-1.9,1.2c-0.5-0.8,0-1.4,0.1-2c1.1-3.7,2.1-7.5,3.3-11.2c0.4-1.4,0.2-2.1-0.9-3c-3.3-2.5-6.6-5-9.8-7.6
			c-0.3-0.2-0.5-0.4-0.7-0.7C497.3,743,497.3,742.8,497.4,742.7z"/>
		<path class="st1" d="M359.2,767.3c1-3.3,1.9-6.6,2.9-9.9c0.3-0.9,0.5-1.8,0.8-2.7c0.6-2.1,0.6-2.1-1.2-3.5c-2.6-2-5.2-4-7.9-6
			c-0.8-0.7-1.7-1.3-2.7-2.2c1.1-0.5,1.9-0.4,2.8-0.4c3.6-0.1,7.3-0.2,10.9-0.2c1.5,0,2.3-0.5,2.7-2c1.2-3.6,2.6-7.2,3.9-10.7
			c0.2-0.6,0.3-1.3,0.9-1.8c0.8,0.5,0.9,1.4,1.1,2.2c1.2,3.3,2.4,6.7,3.6,10c0.8,2.2,0.8,2.2,3,2.2c3.5,0.1,6.9,0.1,10.4,0.2
			c0.8,0,1.7-0.1,2.6,0.3c0,0.7-0.6,0.9-1,1.2c-2.9,2.3-5.9,4.6-8.8,6.9c-2,1.6-2,1.6-1.4,4c0.9,3.3,1.9,6.7,2.8,10
			c0.2,0.7,0.6,1.4,0.4,2.2c-0.8,0.4-1.1-0.2-1.6-0.5c-3.2-2.2-6.5-4.3-9.6-6.6c-1.1-0.8-2-0.8-3.1,0c-3.6,2.6-7.4,5.1-11.1,7.6
			C359.5,767.5,359.4,767.4,359.2,767.3z"/>
		<path class="st1" d="M433.9,767.4c0.1,0,0.1,0,0.2,0.1C434.1,767.6,434,767.6,433.9,767.4C434,767.3,433.9,767.4,433.9,767.4z"/>
		<path class="st3" d="M546.3,180.9c0.1-11,1.6-21.4,6-31.3c1.6-3.6,3.6-7.1,5.9-10.3c7.4-10.3,17.5-15.1,30.1-14.8
			c11.4,0.3,20.4,5.4,27.1,14.5c4.8,6.6,7.8,14,9.3,22c2.6,13.6,2.6,27.2-0.8,40.8c-1.9,7.5-5.1,14.3-9.9,20.4
			c-6.3,7.9-14.6,12.1-24.7,12.8c-5.1,0.3-10.1-0.1-15-1.7c-7.4-2.5-13.1-7.3-17.5-13.6c-5.4-7.8-8.2-16.6-9.5-25.9
			C546.6,189.3,546.4,184.9,546.3,180.9z"/>
		<path class="st3" d="M388.3,570.7c0.1,6.7-0.3,13.4-2.1,19.9c-1.2,4.4-3.1,8.4-6.4,11.6c-6.9,6.8-17,6.7-23.8-0.2
			c-3.9-4-5.8-8.9-6.7-14.2c-2-12-2.1-24.1,0.4-36.1c1-4.8,3-9.1,6.4-12.7c6.9-7.3,17.5-6.2,23.5-0.4c2.7,2.6,4.4,5.7,5.7,9.2
			c2.2,6,2.9,12.2,3.1,18.4C388.3,567.6,388.3,569.1,388.3,570.7z"/>
		<path class="st3" d="M598,570.8c-0.1,6.3-0.4,12.5-2,18.6c-1.2,4.9-3.3,9.4-7,13c-6.8,6.5-16.6,6.4-23.3-0.1
			c-3.8-3.7-5.7-8.3-6.8-13.4c-2-9.4-1.9-18.8-1.3-28.3c0.3-4.1,1-8.2,2.3-12.2c1.2-3.7,3-7,5.8-9.7c6.3-6.3,16.1-6.5,22.7-0.6
			c2.8,2.5,4.7,5.5,6,9c1.7,4.3,2.5,8.8,2.9,13.3C597.8,563.8,598,567.3,598,570.8z"/>
		<path class="st2" d="M403.2,398.5c-1.3-3.4-2.5-6.7-3.9-9.9c-1.7-4-3.8-7.7-6.4-11.2c-4.2-5.6-9.7-8.8-16.5-9.9
			c-1.5-0.2-3-0.5-4.5-0.5c-6.6-0.1-13.2-0.1-19.8-0.1c-1.8,0-1.9,0.1-1.9,1.8c0,12.7,0,25.4,0,38.1c0,0.8-0.2,1.8,1.1,1.8
			c4-0.1,8,0.4,11.9-0.4c4.1-0.8,6.5-3.4,7.2-7.5c0.7-3.8,0.5-7.6,0.6-11.4c0-3.4-0.4-3,2.9-3.1c2.5,0,5.1,0,7.6,0
			c1.2,0,1.7,0.4,1.6,1.6c-0.1,0.5,0,1,0,1.5c0,19.5,0,38.9,0,58.4c0,0.5,0,1,0,1.5c0.1,1.2-0.4,1.7-1.6,1.7c-3,0-5.9-0.1-8.9,0
			c-1.4,0-1.7-0.6-1.7-1.8c0-2.5,0-5.1-0.1-7.6c-0.1-3-0.5-5.9-2-8.6c-1.2-2.2-2.9-3.5-5.3-3.9c-4-0.7-8.1-0.5-12.2-0.5
			c-0.8,0-1.3,0.3-1.3,1.2c0,0.3,0,0.7,0,1c0,13,0,25.9,0,38.9c0,5.8,1.5,7.4,7.4,7.5c5.7,0.1,11.4,0.3,17-0.5
			c9-1.2,16.1-5.8,21.6-13c5.4-7.1,8.9-15.1,11.3-23.7c1-3.6,0.6-3.3,3.9-1.7c2.6,1.2,5.2,2.5,7.8,3.8c1.8,0.9,1.9,0.9,1.4,2.9
			c-2,7.8-3.9,15.6-5.9,23.4c-2.5,9.8-5,19.7-7.5,29.5c-0.6,2.3-0.6,2.3-2.8,2.3c-30.4,0-60.8,0-91.2,0c-2.3,0-2.3,0-2.3-2.2
			c0-5.2,0-10.3,0-15.5c0-2,0-2,2-2c1.7-0.1,3.4,0,5.1-0.3c3.9-0.8,6-3.2,6.3-7.2c0.2-2.4,0.3-4.7,0.3-7.1c0-29.1,0-58.3,0-87.4
			c0-2.5-0.2-4.9-0.3-7.4c-0.1-1.4-0.5-2.8-1.2-4.1c-0.9-1.6-2.3-2.6-4.1-3.1c-2.1-0.5-4.2-0.4-6.3-0.4c-1.2,0-1.7-0.3-1.7-1.6
			c0-5.4,0.1-10.8,0-16.3c0-1.4,0.5-1.8,1.8-1.7c0.5,0,1,0,1.5,0c28.6,0,57.2,0,85.9,0c0.3,0,0.7,0,1,0c2.2,0,2.2,0,2.7,2.1
			c1.5,5.9,3,11.8,4.6,17.7c2.3,8.8,4.6,17.7,6.8,26.5c0.5,1.9,0.5,2-1.3,2.8C410.3,394.9,406.8,396.7,403.2,398.5z"/>
		<path class="st2" d="M460.1,488.1c-0.8,1.3-1,2.8-1.5,4.1c-0.6,1.9-1.2,3.9-1.8,5.8c-0.8,2.4-0.6,2.1-2.7,2.1c-1.9,0-3.9,0-5.8,0
			c-2.2,0-2.3,0-2.6-2.1c-0.6-4.2-1.1-8.4-1.6-12.6c-1.6-12.4-3.3-24.8-4.9-37.2c-0.3-1.9-0.4-3.9-0.7-5.8c-0.2-1.3,0.1-2,1.5-2.4
			c3.2-1,6.4-2.2,9.6-3.2c1.7-0.6,1.7-0.5,2.3,1.2c1.7,5.3,3.9,10.5,6.6,15.4c3.4,6.2,7.6,11.8,12.7,16.7c5.5,5.2,11.8,8.7,19.5,9.6
			c3.1,0.4,6.1,0.2,9.1-0.5c13.8-3,17.2-19.8,8.5-28.9c-3.7-3.8-8.2-6.3-12.9-8.3c-5.8-2.5-11.7-4.9-17.6-7.2
			c-6.2-2.4-12-5.4-17.6-8.9c-9.2-5.8-15-14-17.6-24.5c-3.5-14.1-2.4-27.7,5-40.2c6.6-11.2,16.6-17.8,29.7-19.4
			c11.1-1.4,20.7,2,29.1,9.1c0.7,0.6,1.2,1.4,2.3,1.7c1.1-1.8,1.7-3.8,2.5-5.8c1.2-2.8,0.9-2.5,3.9-2.5c1.7,0,3.4,0,5.1,0
			c1.9,0,2,0.1,2.3,1.9c0.9,4.8,1.7,9.7,2.6,14.5c2,10.7,3.9,21.5,5.9,32.2c0.1,0.5,0.1,1,0.2,1.5c0.1,0.8-0.1,1.3-0.9,1.6
			c-3.6,1.4-7.2,2.9-10.8,4.3c-1.3,0.5-1.6-0.4-2-1.3c-1.6-3.8-3.4-7.6-5.4-11.2c-3.5-6.2-7.7-12-13.3-16.5
			c-5.6-4.5-11.9-7.1-19.2-7c-4,0.1-7.7,1.1-10.7,3.9c-4.7,4.3-6.1,9.9-3.8,16c1.4,3.7,3.6,6.7,6.8,9c2.6,1.9,5.5,3.4,8.5,4.6
			c8.2,3.4,16.5,6.7,24.7,10.1c5.1,2.1,9.9,4.8,14.3,8.2c8,6.1,12.9,14.3,15.1,24c3.2,14.3,2.2,28.2-5.2,41.1
			c-6,10.5-14.5,18.1-26.6,20.8c-13.4,3-25.5,0.1-36.2-8.5c-1.1-0.9-2.1-1.7-3.1-2.6C462.1,489.7,461.3,488.7,460.1,488.1z"/>
		<path class="st2" d="M563.7,398.7c-4-2-7.9-3.9-11.7-5.8c-0.9-0.4-0.9-1.1-0.7-1.9c0.5-2,1-4.1,1.5-6.2c3.7-14.7,7.4-29.4,11.1-44
			c0.6-2.2,0.6-2.2,2.8-2.2c1.7,0,3.4,0,5.1,0c1,0,1.6,0.3,1.8,1.3c0.1,0.7,0.3,1.3,0.4,2c0.2,2,0.5,2.1,2.7,2.1
			c20.3,0,40.6,0,60.9,0c2.3,0,2.3,0,2.9-2.2c0.9-3.2,0.9-3.2,4.3-3.2c1.2,0,2.4,0.1,3.6,0c1.5-0.2,2.1,0.4,2.4,1.8
			c0.9,3.9,1.9,7.7,2.9,11.6c3.2,12.6,6.4,25.2,9.6,37.9c0.6,2.5,0.6,2.5-1.7,3.7c-3.1,1.5-6.2,3-9.3,4.6c-1.1,0.6-1.6,0.4-2-0.8
			c-1.5-4-2.9-7.9-4.6-11.8c-2.9-6.9-6.8-13.1-12.7-17.8c-2.2-1.8-4.7-3.1-7.6-3.2c-3.2-0.1-4.7,1.2-5,4.3c-0.2,1.9-0.3,3.9-0.3,5.8
			c0,29.5,0,59.1,0,88.6c0,3.1,0.2,6.3,0.3,9.4c0,0.8,0.2,1.7,0.4,2.5c0.9,3.3,2.8,4.8,6.2,5.1c1.7,0.1,3.4,0.1,5.1,0.1
			c1.2,0,1.7,0.3,1.7,1.6c0,5.6,0,11.2,0,16.8c0,0.9-0.3,1.4-1.3,1.4c-0.5,0-1,0-1.5,0c-15.7,0-31.5,0-47.2,0
			c-2.9,0-2.8,0.3-2.8-2.7c0-5,0-10,0-15c0-2,0.1-2,2-2c1.4,0,2.9,0,4.3-0.1c3.8-0.3,5.9-2.1,6.7-5.8c0.4-1.6,0.6-3.3,0.6-5
			c0-3,0-5.9,0.1-8.9c0-29.1,0-58.2,0-87.4c0-1.7,0-3.4-0.1-5.1c-0.3-2.5-1.5-3.5-4-3.7c-2.1-0.1-4,0.5-5.8,1.5
			c-4.1,2.1-7.2,5.2-9.9,8.9c-2.7,3.7-4.8,7.8-6.4,12.1c-1.1,2.8-2.1,5.7-3.2,8.6C564.6,396.5,564.2,397.5,563.7,398.7z"/>
		<path class="st2" d="M262.7,417.6c2,0.8,3.6,1.4,5.1,2c9.6,3.6,16,10.3,19.1,20c4.7,14.5,3.7,28.6-4,41.9
			c-5.5,9.5-14,15.1-24.9,17.2c-5.2,1-10.4,1.4-15.6,1.5c-19,0-37.9,0-56.9,0c-0.4,0-0.8,0-1.3,0c-1,0.1-1.3-0.4-1.3-1.4
			c0-5.7,0-11.3,0-17c0-1,0.4-1.3,1.4-1.3c1.6,0,3.2,0,4.8-0.1c3.7-0.3,5.8-2.2,6.7-5.8c0.4-1.8,0.4-3.7,0.4-5.6
			c0-12.5,0-25.1,0-37.6c0-18.7,0-37.4,0-56.1c0-1.9,0-3.7-0.4-5.6c-0.7-3.2-2.5-5.2-5.9-5.8c-1.9-0.3-3.7-0.3-5.6-0.3
			c-1.1,0-1.5-0.3-1.5-1.5c0-5.5,0-11,0-16.5c0-1.3,0.5-1.7,1.7-1.6c0.4,0,0.8,0,1.3,0c19.6,0,39.3,0,58.9,0c4.7,0,9.3,0.2,13.9,1.1
			c10.7,2.1,18.4,8,22.9,17.8c5.9,13,5.5,26.1-1,38.9c-3.2,6.3-8.2,10.9-14.5,14.1C265,416.4,264.1,416.9,262.7,417.6z M233.6,429
			c-3.7,0-6.7,0-9.8,0c-1.8,0-1.8,0.1-1.8,1.9c0,13.3,0.1,26.6,0.1,39.9c0,1.2,0.2,2.4,0.6,3.5c0.5,1.4,1.5,2.3,3,2.5
			c0.8,0.1,1.5,0.3,2.3,0.3c5.5,0.1,11,0.3,16.5-0.4c7-0.8,12.2-4.3,15.2-10.7c0.5-1.1,1-2.1,1.4-3.3c1.9-5.9,2.2-12,0.9-18
			c-2-9.1-7.7-14-17-15.2C240.9,428.9,237,429.1,233.6,429z M222,387.5c0,6.3,0,12.5,0,18.8c0,1.8,0.1,1.9,1.9,1.8
			c6.3-0.1,12.7,0.3,19-0.4c7.9-0.9,13.8-4.4,16.3-12.3c1.7-5.3,1.7-10.6,0.2-16c-0.7-2.6-2-5-3.9-7.1c-3.1-3.3-7.1-4.3-11.4-4.8
			c-6.7-0.7-13.4-0.4-20-0.4c-2.1,0-2.1,0-2.1,2.1C222,375.3,222,381.4,222,387.5z"/>
		<path class="st3" d="M582.3,303.5c0-3.7,0-7.5,0-11.2c0-1.2,0.4-1.7,1.5-1.8c3.1-0.4,6.1-0.1,9,1.1c3.7,1.6,5.4,4.7,6,8.5
			c0.5,2.9,0.3,5.7-0.6,8.5c-1.4,4.4-4.4,6.9-8.8,7.9c-1.8,0.4-3.7,0.4-5.6,0.3c-1.2,0-1.6-0.5-1.6-1.7
			C582.4,311.3,582.3,307.4,582.3,303.5z"/>
		<path class="st3" d="M388,303c-0.1,1.2-0.1,2.4-0.3,3.5c-0.9,5.9-4.9,9.7-10.8,10.2c-1.3,0.1-2.7,0.1-4,0.1
			c-1.1,0-1.5-0.5-1.4-1.5c0.1-0.5,0-1,0-1.5c0-7.1,0-14.2,0-21.3c0-1.4,0.5-1.9,1.8-2.1c2.7-0.3,5.4-0.1,8,0.9
			c3.8,1.4,5.8,4.4,6.5,8.4C387.9,300.8,387.9,301.9,388,303z"/>
		<path class="st3" d="M281.7,304c0,2.8-0.4,5.5-1.7,8c-1.6,3.1-4.1,5-7.6,5c-3.6,0.1-6.2-1.7-7.7-4.8c-2.8-5.6-2.8-11.4,0-17.1
			c1.5-3.1,4.1-4.9,7.7-4.9c3.6,0,6,2,7.6,5C281.3,298,281.7,301,281.7,304z"/>
		<path class="st3" d="M550.8,290.3c1.1,0,2.2-0.1,3.3,0.3c2.4,0.8,3.6,2.2,3.8,4.5c0.2,2.6-0.9,4.5-3.1,5.6c-2.1,1-4.4,0.8-6.7,0.8
			c-0.7,0-0.8-0.5-0.8-1c0-3,0-5.9,0-8.9c0-0.9,0.5-1.2,1.3-1.2C549.3,290.3,550.1,290.3,550.8,290.3z"/>
		<path class="st3" d="M306.1,295.9c0-1.4,0-2.9,0-4.3c0-0.7,0.2-1.2,1-1.2c2-0.1,4-0.3,6,0.3c2.1,0.7,3.4,2.1,3.6,4.4
			c0.2,2.5-0.7,4.3-2.8,5.5c-2.2,1.2-4.6,1-6.9,0.9c-0.8,0-0.9-0.6-0.9-1.2C306.1,298.8,306.1,297.3,306.1,295.9
			C306.1,295.9,306.1,295.9,306.1,295.9z"/>
		<path class="st3" d="M430.3,291.3c1.4,5,2.8,10,4.2,15.2c-2.9,0-5.6,0-8.6,0C427.4,301.3,428.8,296.3,430.3,291.3z"/>
		<path class="st3" d="M514.4,290.5c1.6,5.6,3,10.7,4.4,15.9c-2.9,0-5.6,0-8.6,0C511.7,301.3,513.2,296.3,514.4,290.5z"/>
		<path class="st3" d="M656.2,102.7c-8,0.1-14.4-6.5-14.4-14.6c0-8,6.2-14.4,14-14.5c7.8-0.1,14.1,6.3,14.2,14.5
			C670.1,96.1,664,102.7,656.2,102.7z M660.4,88.6c0.8-0.4,1.2-0.7,1.6-1c2.7-2,2.6-5.6-0.1-7.5c-0.8-0.6-1.8-1-2.8-1.1
			c-2.9-0.3-5.9-0.2-8.8,0.1c-1,0.1-1.5,0.5-1.4,1.6c0.1,1.1,0,2.2,0,3.3c0,3.8,0,7.6,0,11.4c0,2.2,0,2.2,2.3,2.2c0.2,0,0.3,0,0.5,0
			c1.1,0.1,1.5-0.5,1.4-1.5c0-1.5,0-3,0-4.6c0-0.9,0.4-1.2,1.2-1.2c2.8-0.2,4,0.7,4.8,3.6c1,4,1,4,5.6,3.4
			C663.3,94.4,663.9,90.7,660.4,88.6z"/>
		<path class="st2" d="M308.3,674.9c4.4,0,8.8,0,13.2,0c2.1,0,2.2,0,2.2,2c0,7.4,0,14.9,0,22.3c0,1.1-0.3,1.9-1.3,2.5
			c-6.7,3.9-13.5,7.4-21.3,8.5c-8.4,1.2-16.7,1.4-25-0.6c-11-2.7-18-9.6-21.3-20.3c-2.4-7.8-2.4-15.7,0.2-23.5
			c3.4-10.6,10.8-17.2,21.5-19.8c9.9-2.4,20-2.2,29.9,0c6.9,1.5,11.7,5.8,14.7,12.2c0.9,1.9,0.8,2.1-1.2,2.5
			c-4.8,0.8-9.7,1.6-14.5,2.4c-0.8,0.1-1.4,0-1.9-0.7c-4.1-6.5-10.3-7.5-17.1-6.4c-7.3,1.2-11.7,5.7-13.5,12.8
			c-1.5,6.2-1.4,12.4,0.1,18.6c1.9,7.4,7.5,11.9,15.1,12.6c6.7,0.6,12.7-1.3,18.4-4.5c0.9-0.5,1.3-1.2,1.3-2.2c-0.1-2,0-4.1,0-6.1
			c0-1.8-0.1-1.9-1.9-1.9c-3.6,0-7.3,0-10.9,0c-2.3,0-2.3,0-2.3-2.4c0-1.9,0-3.7,0-5.6c0-2.2,0-2.3,2.2-2.3
			C299.3,674.9,303.8,674.9,308.3,674.9z"/>
		<path class="st2" d="M446.2,677.7c0-9.5,0-19,0-28.4c0-0.3,0-0.7,0-1c0-2.7,0-2.7,2.6-2.7c3.5,0,6.9,0,10.4,0c1.2,0,2.4,0,3.6,0
			c2.2,0,2.2,0,2.2,2.3c0,0.4,0,0.8,0,1.3c0,14.7,0,29.5,0,44.2c0,0.5,0,1,0,1.5c0,2.2,0,2.2,2.3,2.2c9.8,0,19.6,0,29.5,0
			c3.7,0,3.3-0.4,3.3,3.5c0,2.5,0,5.1,0,7.6c0,1.8-0.1,1.8-1.9,1.8c-1.9,0-3.7,0-5.6,0c-14.3,0-28.6,0-42.9,0c-0.5,0-1,0-1.5,0
			c-1.9-0.1-1.9-0.1-1.9-2C446.2,697.8,446.2,687.8,446.2,677.7z"/>
		<path class="st2" d="M524.8,677.8c0-9.7,0-19.5,0-29.2c0-0.6,0-1.2,0-1.8c0-0.8,0.3-1.3,1.2-1.3c0.5,0,1,0,1.5,0
			c9.6,0,19.1,0,28.7,0c3,0,6.1,0.2,9.1,0.7c11.5,1.9,18.5,8.6,21.4,19.6c2,7.6,2.1,15.3,0.4,22.9c-2.6,11.3-9.8,18-21.2,20.1
			c-3.8,0.7-7.5,1.1-11.3,1c-8.9-0.1-17.8,0-26.7,0c-0.6,0-1.2,0-1.8,0c-0.8,0-1.3-0.3-1.2-1.2c0-0.7,0-1.4,0-2
			C524.8,697.1,524.8,687.4,524.8,677.8z M543.6,677.7c0,6.1,0,12.2,0,18.3c0,0.1,0,0.2,0,0.3c0.1,2,0.1,2,2,2
			c2.9,0,5.8,0.1,8.6-0.1c9.6-0.4,14.3-5.1,14.9-14.7c0.1-1.4,0.3-2.9,0.3-4.3c-0.1-3.7-0.1-7.4-1.1-11.1
			c-1.6-6.2-5.7-9.5-11.9-10.6c-3.5-0.6-7.1-0.4-10.6-0.4c-2.1,0-2.2,0-2.2,2.3C543.6,665.5,543.6,671.6,543.6,677.7z"/>
		<path class="st2" d="M420.1,677.4c-0.3,4-0.4,7.3-1.2,10.7c-2.6,10.6-9.1,17.7-19.4,20.9c-10.5,3.3-21.2,3-31.7-0.5
			c-9.5-3.2-15.5-10.1-18.1-19.7c-2-7.3-1.9-14.8,0-22.1c2.5-9.6,8.6-16.3,17.9-19.6c11-3.9,22.3-3.9,33.3,0
			c11.4,4.1,17.3,12.7,18.8,24.5C420,673.8,420,675.9,420.1,677.4z M401.3,677.1c0.1-1.8-0.1-4-0.5-6.1c-0.6-3.6-1.8-6.9-4.4-9.5
			c-3.8-3.9-8.4-5.1-13.6-4.9c-6.7,0.3-12.3,4.2-14.3,10.6c-2.2,7-2.2,14-0.1,21c1.7,5.6,5.5,9,11.1,10.4c2,0.5,4,0.7,6,0.5
			c7.9-0.5,13.1-4.9,14.8-12.6C401.1,683.6,401.4,680.6,401.3,677.1z"/>
		<path class="st1" d="M233.6,429c3.4,0.1,7.3-0.1,11.3,0.4c9.3,1.2,15,6.1,17,15.2c1.3,6.1,1.1,12.1-0.9,18
			c-0.4,1.1-0.9,2.2-1.4,3.3c-3.1,6.4-8.2,9.9-15.2,10.7c-5.5,0.6-11,0.4-16.5,0.4c-0.8,0-1.5-0.2-2.3-0.3c-1.5-0.2-2.4-1.1-3-2.5
			c-0.4-1.1-0.6-2.3-0.6-3.5c0-13.3-0.1-26.6-0.1-39.9c0-1.8,0.1-1.9,1.8-1.9C226.9,429,229.9,429,233.6,429z M224.2,453.2
			c0.1,5.3-0.2,11.6,0.3,18c0.2,3,0.7,3.4,3.7,3.5c2.6,0.1,5.2,0,7.9,0c3,0,5.9-0.1,8.9-0.5c5.3-0.8,9.4-3.3,11.9-8.1
			c4.4-8.1,4.6-16.5,1.5-25c-1.7-4.5-5.2-7.4-9.9-8.7c-2.1-0.6-4.3-1-6.5-1c-5.2-0.1-10.5-0.1-15.7-0.1c-1.9,0-1.9,0-1.9,2
			C224.2,439.6,224.2,445.9,224.2,453.2z"/>
		<path class="st1" d="M222,387.5c0-6.1,0-12.2,0-18.3c0-2.1,0-2.1,2.1-2.1c6.7,0.1,13.4-0.3,20,0.4c4.3,0.5,8.3,1.4,11.4,4.8
			c1.9,2,3.1,4.4,3.9,7.1c1.5,5.3,1.5,10.7-0.2,16c-2.6,7.9-8.4,11.4-16.3,12.3c-6.3,0.7-12.7,0.3-19,0.4c-1.8,0-1.8,0-1.9-1.8
			C222,400,222,393.7,222,387.5z M224.2,387.5c0,5,0,10,0,15c0,0.5,0.1,1,0,1.5c-0.2,1.4,0.5,1.7,1.7,1.7c4-0.1,8-0.1,11.9,0
			c2.2,0,4.4-0.3,6.6-0.6c6.9-1.1,11.3-5,13-11.8c1.1-4.3,1-8.6-0.1-12.8c-1.8-6.5-5.5-9.6-12.2-10.4c-6.4-0.8-12.8-0.4-19.3-0.5
			c-1.4,0-1.7,0.5-1.7,1.8C224.3,376.7,224.2,382.1,224.2,387.5z"/>
		<path class="st1" d="M660.4,88.6c3.5,2.2,2.9,5.9,4.2,8.8c-4.6,0.6-4.6,0.6-5.6-3.4c-0.8-3-2-3.9-4.8-3.6
			c-0.8,0.1-1.2,0.4-1.2,1.2c0,1.5,0,3,0,4.6c0,1-0.3,1.6-1.4,1.5c-0.2,0-0.3,0-0.5,0c-2.2,0-2.3,0-2.3-2.2c0-3.8,0-7.6,0-11.4
			c0-1.1,0.1-2.2,0-3.3c-0.1-1.1,0.4-1.5,1.4-1.6c2.9-0.3,5.9-0.5,8.8-0.1c1,0.1,2,0.5,2.8,1.1c2.7,1.9,2.8,5.5,0.1,7.5
			C661.6,87.9,661.2,88.1,660.4,88.6z M655.6,82c-2.3,0-2.3,0-2.3,2.4c0,0.6,0,1.2,0,1.8c-0.1,1,0.5,1.3,1.4,1.2
			c0.4,0,0.8,0,1.3-0.1c2.4-0.3,3.6-1.3,3.5-2.8C659.3,82.9,657.9,82,655.6,82z"/>
		<path class="st1" d="M543.6,677.7c0-6.1,0-12.2,0-18.3c0-2.3,0-2.3,2.2-2.3c3.5,0,7.1-0.2,10.6,0.4c6.2,1.1,10.3,4.3,11.9,10.6
			c0.9,3.6,1,7.4,1.1,11.1c0,1.4-0.2,2.9-0.3,4.3c-0.6,9.6-5.4,14.3-14.9,14.7c-2.9,0.1-5.8,0.1-8.6,0.1c-1.9,0-1.9,0-2-2
			c0-0.1,0-0.2,0-0.3C543.6,689.9,543.6,683.8,543.6,677.7z M547.3,677.5c0,5,0,10,0,15c0,1.8,0.1,1.9,1.9,1.9c2.4,0,4.7,0,7.1-0.2
			c4.7-0.5,7.3-2.6,8.3-7.2c1.4-6,1.3-12.1-0.1-18.1c-0.9-3.9-3.5-6.2-7.4-7.2c-2.6-0.6-5.2-0.6-7.8-0.6c-1.9,0-2,0-2,2
			C547.3,667.9,547.3,672.7,547.3,677.5z"/>
		<path class="st1" d="M401.3,677.1c0,3.5-0.3,6.5-1,9.5c-1.8,7.7-7,12.1-14.8,12.6c-2,0.1-4.1,0-6-0.5c-5.6-1.4-9.4-4.9-11.1-10.4
			c-2.1-7-2.1-14.1,0.1-21c2-6.4,7.6-10.4,14.3-10.6c5.2-0.2,9.9,1,13.6,4.9c2.6,2.7,3.8,6,4.4,9.5
			C401.2,673.1,401.5,675.3,401.3,677.1z M397.4,677.5c0-1.2,0.1-2.4,0-3.5c-0.3-3.1-0.8-6.2-2.8-8.8c-3.1-4.1-7.4-5-12.2-4.6
			c-5,0.4-8.8,3.3-10.2,8.1c-1.8,6-1.8,12.2-0.1,18.3c1.4,4.8,4.8,7.5,9.6,8.2c1.4,0.2,2.9,0.2,4.3,0.1c5.3-0.3,9-3.3,10.4-8.4
			C397.2,683.7,397.5,680.6,397.4,677.5z"/>
		<path class="st3" d="M224.2,453.2c0-7.3,0-13.6,0-19.8c0-1.9,0-2,1.9-2c5.2,0,10.5,0,15.7,0.1c2.2,0,4.4,0.4,6.5,1
			c4.7,1.3,8.2,4.1,9.9,8.7c3.2,8.5,2.9,16.9-1.5,25c-2.6,4.7-6.6,7.3-11.9,8.1c-2.9,0.4-5.9,0.5-8.9,0.5c-2.6,0-5.2,0-7.9,0
			c-3.1-0.1-3.5-0.5-3.7-3.5C224,464.8,224.3,458.5,224.2,453.2z"/>
		<path class="st3" d="M224.2,387.5c0-5.4,0-10.8,0-16.2c0-1.3,0.3-1.8,1.7-1.8c6.4,0.2,12.9-0.3,19.3,0.5
			c6.7,0.8,10.4,3.9,12.2,10.4c1.2,4.2,1.2,8.5,0.1,12.8c-1.7,6.8-6.1,10.7-13,11.8c-2.2,0.3-4.4,0.6-6.6,0.6c-4,0-8,0-11.9,0
			c-1.3,0-1.9-0.4-1.7-1.7c0.1-0.5,0-1,0-1.5C224.2,397.5,224.2,392.5,224.2,387.5z"/>
		<path class="st3" d="M655.6,82c2.3,0,3.7,0.9,3.8,2.5c0.1,1.6-1.1,2.6-3.5,2.8c-0.4,0-0.8,0.1-1.3,0.1c-0.9,0.1-1.5-0.2-1.4-1.2
			c0-0.6,0-1.2,0-1.8C653.3,82,653.3,81.9,655.6,82z"/>
		<path class="st2" d="M547.3,677.5c0-4.8,0-9.6,0-14.5c0-1.9,0-2,2-2c2.6,0,5.2-0.1,7.8,0.6c3.9,1,6.4,3.2,7.4,7.2
			c1.4,6,1.5,12.1,0.1,18.1c-1,4.6-3.6,6.7-8.3,7.2c-2.4,0.2-4.7,0.2-7.1,0.2c-1.8,0-1.9-0.1-1.9-1.9
			C547.3,687.5,547.3,682.5,547.3,677.5z"/>
		<path class="st2" d="M397.4,677.5c0.1,3.1-0.2,6.2-1,9.3c-1.4,5.1-5.1,8.1-10.4,8.4c-1.4,0.1-2.9,0.1-4.3-0.1
			c-4.8-0.8-8.2-3.4-9.6-8.2c-1.7-6.1-1.7-12.2,0.1-18.3c1.4-4.8,5.2-7.7,10.2-8.1c4.8-0.4,9.1,0.5,12.2,4.6c2,2.6,2.5,5.7,2.8,8.8
			C397.5,675.1,397.4,676.3,397.4,677.5z"/>
	</g>
</g>
</svg>
