<?xml version="1.0" encoding="utf-8"?>
<!-- Generator: Adobe Illustrator 19.2.0, SVG Export Plug-In . SVG Version: 6.00 Build 0)  -->
<svg version="1.1" id="Layer_1" xmlns="http://www.w3.org/2000/svg" xmlns:xlink="http://www.w3.org/1999/xlink" x="0px" y="0px"
	 viewBox="0 0 839.1 839.1" style="enable-background:new 0 0 839.1 839.1;" xml:space="preserve">
<style type="text/css">
	.st0{fill:#D0D1D1;}
	.st1{fill:#FFFFFF;}
	.st2{fill:#262424;}
</style>
<g id="g58">
</g>
<g id="g90">
</g>
<rect x="41.1" y="76.1" class="st0" width="376.5" height="688.5"/>
<rect x="417.6" y="76.1" class="st1" width="376.5" height="688.5"/>
<g>
	<path d="M298.3,211.2c-4.9,0-9.2,0-13.8,0c0-8.9,0-17.4,0-26.2c25.7,0,51.2,0,77,0c0,8.6,0,17.2,0,26.3c-4.6,0-9,0-13.7,0
		c0,20.3,0,40.1,0,60.4c4.4,0,8.8,0,13.6,0c0,8.4,0,16.3,0,24.9c-1.9,0-3.8,0-5.7,0c-22.8,0-45.7,0.1-68.5-0.1c-4.3,0-6.7,1.2-9,5.1
		c-15,26.4-35.8,45.7-66.2,53c-16.5,4-33.1,2.4-49.7,1.8c-3.3-0.1-6.6,0-10.5,0c-2.4,12.5-4.8,25.2-7.2,37.4
		c7.5-4.2,14.5-9.4,22.5-12.3c24.8-8.9,49.8-8.5,73.9,2.7c25.4,11.8,37.8,36.6,33.3,64.7c-5.2,32.6-27.3,54.5-62.1,60.9
		c-19.9,3.7-39.8,3.9-59.3-2.1c-28.9-8.9-34.5-34.1-28.3-56c4-14.2,16.4-21.2,30.1-18c9.9,2.3,16.4,10,17,20.2
		c0.7,12-3.1,23-7.7,33.7c-4,9.3-1.1,15.7,8.7,19.2c10.7,3.8,20.9,0.5,28.1-9.3c6.3-8.7,9.4-18.7,11.2-29.1
		c3.4-20.2,4.6-40.4-0.5-60.5c-4.6-17.7-15.9-26.5-31.7-24.9c-9.8,1-18.3,5.3-25.1,12.3c-5.3,5.4-9.6,11.8-14.9,18.3
		c-3.1,0.1-3.7-2.1-3.1-5.7c6.9-36,13.6-71.9,20.5-107.9c1-5.2,1.9-5.5,6.4-2.9c11.1,6.3,23.4,8.5,35.7,10.3
		c20.2,3,40.2,1.8,59.9-3.6c0.3-0.1,0.7-0.1,1-0.2c16.2-4.9,16.9-5.8,16.9-22.6c0-3,0-5.9,0-9.3c7.4,0,14.2,0,21.2,0
		C298.3,251.6,298.3,231.7,298.3,211.2z"/>
	<path d="M587.8,265.2c-0.4,14-10.2,26.3-25,30.5c-16.3,4.6-32.6,4.1-48.5-2c-9.4-3.6-16.8-9.8-22.9-18.2c0,6.7,0,13.4,0,20.6
		c-20.1,0-39.6,0-59.4,0c0-8,0-15.7,0-23.9c3.5,0,6.7,0,10.5,0c0-9.8,0.3-19.3-0.2-28.7c-0.1-2.1-2.6-4.8-4.6-6
		c-8.6-5.1-20.8,0.6-21.9,10.5c-0.9,7.7-0.2,15.5-0.2,23.8c3.6,0,7,0,10.7,0c0,8.4,0,16.3,0,24.5c-20,0-39.9,0-60.2,0
		c0-8.1,0-15.9,0-24.3c3.4,0,6.7,0,10.3,0c0-12.2,0-23.9,0-36.1c-3.5-0.2-6.8-0.4-10.4-0.6c0-8.2,0-15.9,0-24c16,0,31.7,0,47.8,0
		c0,5,0,9.7,0,15.6c1.8-1.5,2.9-2.3,3.8-3.3c12.8-14.5,38.5-13.8,50.6-7.4c9.7,5.1,13.2,13.7,13.3,24c0.1,10.5,0,20.9,0,31.6
		c3.2,0,6,0,7.5,0c-0.3-8.1-1.4-16.3-0.6-24.2c1.3-12.6,8.6-21.9,19.7-27.8c17.6-9.4,36.2-10.8,55.1-4.6c14.7,4.9,24,17.6,24.2,32.2
		c-10.6,1.2-21.3,2.3-32.2,3.6c-0.5-3.1-0.9-5.8-1.5-8.5c-1.6-6.5-5.3-9.8-11.3-10.1c-6.8-0.4-11.8,2.3-13.7,8.4
		c-3.1,9.6-3,19.4,0,29c1.9,6.1,6.7,8.6,13.8,8.4c6.5-0.2,10.8-3.5,12.5-9.5c0.3-1.1,0.7-2.2,1-3.3
		C566.6,265.2,577.2,265.2,587.8,265.2z"/>
	<path d="M430.7,412.8c0-20.7,5.3-40.4,17.3-57.5c14.2-20.3,33.6-31.2,58.7-29.7c25.8,1.5,44.6,14.7,54.7,38.2
		c14,32.7,12.7,65.7-5.1,96.5c-13.7,23.9-35.6,35.9-63.5,33.1c-29.4-2.9-47.2-20.8-55.8-48C433.5,435,430.7,424.4,430.7,412.8z
		 M477.6,417.7c0.5,7.6,1,21.3,2.2,34.8c0.9,10.3,2.5,20.6,7.9,29.6c6.5,10.9,18.3,11.3,24.6,0.3c3.3-5.7,5.8-12.1,7-18.5
		c6.8-34.8,6.2-69.8,1.5-104.8c-1.1-8.2-4.2-16.5-8.3-23.7c-5.1-9.1-15.9-9-21.8-0.5c-3.2,4.7-5.6,10.2-7.1,15.8
		C478.2,370.7,478,391.2,477.6,417.7z"/>
	<path d="M284.2,412.7c0-22.1,5.8-42.9,19.5-60.7c30.5-39.8,89.5-34.5,110.5,10.9c15.1,32.6,13.5,66.1-4.4,97.4
		c-13.7,23.9-35.5,36-63.4,33.3c-30-2.9-48-21.3-56.5-49.1C286.7,434.2,284.2,423.2,284.2,412.7z M378.1,408.1c0-0.3,0-0.5,0-0.8
		c-0.9-13.7-1.4-27.3-2.7-40.9c-0.9-10.1-2.7-20.2-8-29.1c-3.8-6.4-9.9-10.1-15.1-7.7c-4.1,1.8-8.7,5.4-10.2,9.3
		c-3.7,9.2-6.7,18.8-8.1,28.6c-4,27.5-3.6,55.1-0.9,82.7c1,10,3.8,19.9,6.9,29.5c1.9,6.1,6.5,10.6,13.6,10.8c7,0.1,11-4.5,13.7-10.1
		c2.3-4.8,4.1-9.8,5.4-15C377,446.5,377.5,427.3,378.1,408.1z"/>
	<path d="M716.8,406.7c-0.3,23.6-5.2,45.7-21.1,64c-31.9,36.6-87.8,29.5-107.9-14.8c-15.1-33.3-13.3-67.2,5.8-98.6
		c14.6-24,37.2-35.1,65.4-31.1c27.4,3.8,44.4,20.9,52.6,46.6C715.4,382.6,716.8,397.6,716.8,406.7z M623.8,416.8c0,0.5,0,1,0,1.6
		c1.2,14.3,2,28.7,4,42.9c1,7.1,3.3,14.4,6.6,20.7c6,11.4,18.3,11.5,24.8,0.3c2.8-4.8,5.1-10.2,6.2-15.7
		c7.6-37.1,7.2-74.4,1.3-111.6c-1-6.6-3.5-13.3-7-19c-5.9-9.8-17-9.7-23,0.1c-3.2,5.1-5.5,11.1-7,16.9
		C624.5,374,624.4,395.4,623.8,416.8z"/>
	<path d="M586.4,283.8c0.2-7.6,6.3-13.4,13.9-13.3c7.8,0.1,13.8,6.4,13.6,14.2c-0.2,7.9-6.3,13.7-14.3,13.5
		C591.8,298,586.2,291.9,586.4,283.8z"/>
</g>
<g>
	<path class="st2" d="M314.2,599.2c0,6.2-2.2,11.1-6.7,14.6c-4.5,3.6-10.6,5.3-18.6,5.3c-7.3,0-13.8-1.4-19.4-4.1v-13.5
		c4.6,2.1,8.5,3.5,11.7,4.4c3.2,0.8,6.1,1.3,8.8,1.3c3.2,0,5.6-0.6,7.3-1.8c1.7-1.2,2.6-3,2.6-5.4c0-1.3-0.4-2.5-1.1-3.6
		c-0.7-1-1.9-2.1-3.3-3c-1.5-1-4.4-2.5-8.9-4.6c-4.2-2-7.3-3.9-9.4-5.7c-2.1-1.8-3.8-3.9-5-6.3c-1.2-2.4-1.9-5.2-1.9-8.4
		c0-6.1,2.1-10.8,6.2-14.3c4.1-3.5,9.8-5.2,17-5.2c3.6,0,7,0.4,10.2,1.3c3.2,0.8,6.6,2,10.1,3.6l-4.7,11.3c-3.7-1.5-6.7-2.5-9.1-3.1
		c-2.4-0.6-4.7-0.9-7.1-0.9c-2.7,0-4.9,0.6-6.3,1.9c-1.5,1.3-2.2,3-2.2,5c0,1.3,0.3,2.4,0.9,3.3c0.6,1,1.5,1.9,2.8,2.8
		c1.3,0.9,4.4,2.5,9.2,4.8c6.4,3.1,10.8,6.1,13.2,9.2C313,591,314.2,594.8,314.2,599.2z"/>
	<path class="st2" d="M366,618.3h-39.4v-68.5H366v11.9h-24.9v15h23.2v11.9h-23.2v17.7H366V618.3z"/>
	<path class="st2" d="M394.8,592v26.3h-14.5v-68.5h20c9.3,0,16.2,1.7,20.7,5.1c4.5,3.4,6.7,8.5,6.7,15.4c0,4-1.1,7.6-3.3,10.8
		c-2.2,3.1-5.4,5.6-9.4,7.4c10.3,15.4,17,25.3,20.1,29.8h-16.1L402.6,592H394.8z M394.8,580.2h4.7c4.6,0,8-0.8,10.2-2.3
		c2.2-1.5,3.3-3.9,3.3-7.2c0-3.2-1.1-5.6-3.3-6.9c-2.2-1.4-5.7-2.1-10.4-2.1h-4.4V580.2z"/>
	<path class="st2" d="M443.7,618.3v-68.5h14.5v68.5H443.7z"/>
	<path class="st2" d="M514.9,618.3h-39.4v-68.5h39.4v11.9h-24.9v15h23.2v11.9h-23.2v17.7h24.9V618.3z"/>
	<path class="st2" d="M569.6,599.2c0,6.2-2.2,11.1-6.7,14.6c-4.5,3.6-10.6,5.3-18.6,5.3c-7.3,0-13.8-1.4-19.4-4.1v-13.5
		c4.6,2.1,8.5,3.5,11.7,4.4c3.2,0.8,6.1,1.3,8.8,1.3c3.2,0,5.6-0.6,7.3-1.8s2.6-3,2.6-5.4c0-1.3-0.4-2.5-1.1-3.6
		c-0.8-1-1.9-2.1-3.3-3c-1.5-1-4.4-2.5-8.9-4.6c-4.2-2-7.3-3.9-9.4-5.7c-2.1-1.8-3.8-3.9-5-6.3c-1.2-2.4-1.9-5.2-1.9-8.4
		c0-6.1,2.1-10.8,6.2-14.3c4.1-3.5,9.8-5.2,17-5.2c3.6,0,7,0.4,10.2,1.3c3.2,0.8,6.6,2,10.1,3.6l-4.7,11.3c-3.7-1.5-6.7-2.5-9.1-3.1
		c-2.4-0.6-4.7-0.9-7.1-0.9c-2.7,0-4.9,0.6-6.3,1.9c-1.5,1.3-2.2,3-2.2,5c0,1.3,0.3,2.4,0.9,3.3c0.6,1,1.5,1.9,2.8,2.8
		c1.3,0.9,4.4,2.5,9.2,4.8c6.4,3.1,10.8,6.1,13.2,9.2C568.4,591,569.6,594.8,569.6,599.2z"/>
</g>
<g>
	<path class="st2" d="M384.7,694.5h-28.8v-5.7l10.3-9.8c3.1-2.9,5.1-5,6-6.1c0.9-1.1,1.6-2.2,2-3.2c0.4-1,0.6-2,0.6-3
		c0-1.6-0.5-2.7-1.4-3.5c-0.9-0.8-2.1-1.1-3.6-1.1c-1.6,0-3.1,0.3-4.6,1c-1.5,0.7-3.1,1.7-4.7,2.9l-4.7-5.3c2-1.6,3.7-2.8,5-3.4
		c1.3-0.7,2.8-1.2,4.4-1.5c1.6-0.4,3.3-0.5,5.3-0.5c2.6,0,4.8,0.4,6.8,1.3s3.5,2.1,4.6,3.7c1.1,1.6,1.6,3.4,1.6,5.4
		c0,1.8-0.3,3.5-1,5c-0.7,1.6-1.7,3.2-3.1,4.8c-1.4,1.6-3.9,4-7.4,7l-5.3,4.7v0.4h17.9V694.5z"/>
	<path class="st2" d="M417.4,675.1c0,6.8-1.2,11.8-3.5,15c-2.4,3.2-6,4.9-10.9,4.9c-4.8,0-8.3-1.7-10.7-5c-2.4-3.4-3.6-8.3-3.6-14.8
		c0-6.8,1.2-11.9,3.5-15.1c2.3-3.2,6-4.9,10.8-4.9c4.8,0,8.3,1.7,10.8,5.1S417.4,668.6,417.4,675.1z M397.3,675.1
		c0,4.7,0.4,8.1,1.3,10.2c0.9,2.1,2.3,3.1,4.4,3.1c2,0,3.5-1,4.4-3.1c0.9-2.1,1.4-5.5,1.4-10.2c0-4.7-0.5-8.2-1.4-10.2
		c-0.9-2.1-2.4-3.1-4.4-3.1c-2,0-3.5,1-4.4,3.1S397.3,670.4,397.3,675.1z"/>
	<path class="st2" d="M450.6,694.5h-28.8v-5.7l10.3-9.8c3.1-2.9,5.1-5,6-6.1c0.9-1.1,1.6-2.2,2-3.2c0.4-1,0.6-2,0.6-3
		c0-1.6-0.5-2.7-1.4-3.5c-0.9-0.8-2.1-1.1-3.6-1.1c-1.6,0-3.1,0.3-4.6,1c-1.5,0.7-3.1,1.7-4.7,2.9l-4.7-5.3c2-1.6,3.7-2.8,5-3.4
		c1.3-0.7,2.8-1.2,4.4-1.5c1.6-0.4,3.3-0.5,5.3-0.5c2.6,0,4.8,0.4,6.8,1.3s3.5,2.1,4.6,3.7c1.1,1.6,1.6,3.4,1.6,5.4
		c0,1.8-0.3,3.5-1,5c-0.7,1.6-1.7,3.2-3.1,4.8c-1.4,1.6-3.9,4-7.4,7l-5.3,4.7v0.4h17.9V694.5z"/>
	<path class="st2" d="M483.3,675.1c0,6.8-1.2,11.8-3.5,15c-2.4,3.2-6,4.9-10.9,4.9c-4.8,0-8.3-1.7-10.7-5c-2.4-3.4-3.6-8.3-3.6-14.8
		c0-6.8,1.2-11.9,3.5-15.1c2.3-3.2,6-4.9,10.8-4.9c4.8,0,8.3,1.7,10.8,5.1S483.3,668.6,483.3,675.1z M463.1,675.1
		c0,4.7,0.4,8.1,1.3,10.2c0.9,2.1,2.3,3.1,4.4,3.1c2,0,3.5-1,4.4-3.1c0.9-2.1,1.4-5.5,1.4-10.2c0-4.7-0.5-8.2-1.4-10.2
		c-0.9-2.1-2.4-3.1-4.4-3.1c-2,0-3.5,1-4.4,3.1S463.1,670.4,463.1,675.1z"/>
</g>
</svg>
